<svg width="537" height="390" viewBox="0 0 537 390" fill="none" xmlns="http://www.w3.org/2000/svg">
<g clip-path="url(#clip0_1547_14879)">
<path d="M245.07 338.408L254.027 374.432C254.027 374.432 257.567 389.196 236.717 389.907C227.564 390.259 218.403 389.458 209.449 387.524C207.307 387.049 205.4 385.836 204.061 384.098C202.721 382.359 202.034 380.205 202.12 378.011L203.15 350.895L245.07 338.408Z" fill="#C4C4C4"/>
<path d="M123.854 338.408L114.897 374.432C114.897 374.432 111.357 389.196 132.22 389.907C141.376 390.258 150.54 389.458 159.496 387.524C161.636 387.047 163.542 385.834 164.88 384.096C166.218 382.357 166.904 380.204 166.818 378.011L165.794 350.895L123.854 338.408Z" fill="#C4C4C4"/>
<path d="M141.554 361.447C146.53 364.378 152.217 366.321 157.961 365.915C163.705 365.51 168.965 362.849 174.09 360.223C173.01 360.771 167.145 357.505 165.901 357C163.001 355.81 160.112 354.586 157.236 353.329C151.402 350.767 145.632 348.052 139.926 345.182C136.592 343.51 128.773 337.242 124.955 338.544C120.79 339.967 126.832 347.316 128.403 349.451C131.93 354.3 136.404 358.381 141.554 361.447Z" fill="#A2A2A2"/>
<path d="M227.476 361.447C222.5 364.378 216.813 366.321 211.062 365.915C205.311 365.51 200.058 362.849 194.94 360.223C196.013 360.771 201.878 357.505 203.122 357C206.027 355.81 208.915 354.586 211.787 353.329C217.631 350.767 223.403 348.052 229.104 345.182C232.452 343.553 240.272 337.256 244.06 338.586C248.226 340.009 242.184 347.359 240.62 349.494C237.087 354.323 232.617 358.389 227.476 361.447Z" fill="#A2A2A2"/>
<path d="M124.536 221.899C115.849 242.803 109.714 269.392 109.608 302.847C109.473 337.362 142.883 366.214 184.113 366.001C224.796 365.78 257.702 338.102 257.702 303.993C257.702 270.075 251.553 243.166 242.809 222.048C223.346 175.031 144.042 174.918 124.536 221.899Z" fill="#C4C4C4"/>
<path d="M127.522 196.427C127.522 196.427 88.2181 232.08 75.9699 299.93C75.3702 303.269 76.1037 306.71 78.0126 309.514C79.9216 312.317 82.8535 314.259 86.1779 314.921C91.6089 316.024 99.5848 314.409 110.44 312.573C116.51 311.542 120.783 308.304 120.982 302.157C121.926 280.291 125.184 258.588 130.699 237.409C137.524 211.888 149.665 202.759 149.665 202.759L127.522 196.427Z" fill="#A2A2A2"/>
<path d="M122.844 196.427C122.844 196.427 83.5406 232.08 71.2924 299.93C70.6927 303.269 71.4262 306.71 73.3351 309.514C75.2441 312.317 78.176 314.259 81.5004 314.921C86.9314 316.024 94.6727 316.344 105.528 314.494C108.47 313.999 111.151 312.499 113.115 310.25C115.08 308.002 116.206 305.142 116.304 302.157C116.738 288.318 118.593 262.312 126.022 237.409C129.752 224.993 134.732 212.987 140.886 201.578L122.844 196.427Z" fill="#C4C4C4"/>
<path d="M183.914 221.066C156.383 220.796 139.485 210.5 132.732 199.152C144.71 201.369 156.878 202.386 169.057 202.19C179.479 202.019 189.878 200.945 200.285 199.877C204.387 199.458 208.489 199.038 212.583 198.518C216.785 197.985 221.284 196.192 225.471 196.455C229.872 196.725 223.922 221.457 183.914 221.066Z" fill="#A2A2A2"/>
<path d="M134.552 205.413C147.262 205.043 149.416 209.682 156.333 210.792C159.745 211.354 169.733 214.961 164.614 220.283C161.949 223.058 160.299 223.386 157.42 225.94C156.838 226.452 154.577 227.996 157.243 233.02C159.738 237.744 163.569 240.747 167.046 243.92C171.019 247.563 176.664 249.555 181.64 246.467C188.279 242.34 204.067 235.93 218.228 221.564C223.382 216.194 227.531 209.94 230.476 203.101C230.867 202.154 236.333 205.42 236.689 204.46C236.858 203.826 236.831 203.156 236.611 202.538C236.082 200.46 235.405 198.422 234.585 196.441C207.671 200.247 179.848 198.198 152.7 198.718C149.21 198.789 145.656 198.903 142.357 200.055C139.059 201.208 135.675 202.069 134.552 205.413Z" fill="#A2A2A2"/>
<path d="M76.1474 64.1997C76.1474 64.1997 86.3696 23.3875 135.583 6.45352C184.796 -10.4804 242.326 8.53824 256.685 33.1565C256.685 33.1565 321.786 -13.0205 337.162 77.7966C352.538 168.614 301.797 206.068 257.709 181.955C257.709 181.955 196.987 244.283 100.843 187.597C100.843 187.597 37.2775 257.894 8.061 154.248C-23.2241 43.2884 44.4572 41.6875 76.1474 64.1997Z" fill="#C4C4C4"/>
<path d="M93.713 180.93C93.713 180.93 66.622 157.727 74.9604 101.91C74.9604 101.91 21.3898 49.6634 26.0033 130.946C30.6168 212.229 92.5685 180.667 92.7533 180.866" fill="#FFBBBA"/>
<path d="M234.364 183.527C233.653 171.502 228.03 156.034 204.906 151.167C204.906 151.167 213.01 175.579 216.159 191.866C207.373 195.238 198.388 197.608 189.388 198.269C188.258 192.734 182.095 185.348 159.738 180.638C159.738 180.638 168.311 190.742 171.218 198.248C173.216 207.405 169.989 210.571 169.989 210.571C169.989 210.571 204.906 217.786 232.843 198.945C232.843 198.924 234.997 189.098 234.364 183.527Z" fill="#A2A2A2"/>
<path d="M232.843 198.924C232.843 198.924 231.563 202.595 229.865 204.524L228.002 201.898L232.843 198.924Z" fill="#A2A2A2"/>
<path d="M83.5548 167.589C77.484 168.144 65.7832 165.298 61.2834 163.149C54.1306 159.753 47.7041 155 42.3603 149.154C34.0716 140.061 28.5766 128.684 25.8469 116.645C25.6414 121.653 25.6936 126.669 26.0033 131.672C30.6168 212.955 93.5353 180.731 93.713 180.93C93.713 180.93 89.3412 176.682 83.5548 167.589Z" fill="#FF98A1"/>
<path d="M269.182 165.782C299.671 172.313 323.535 154.27 317.173 99.1916C309.481 32.6369 267.654 67.3515 267.654 67.3515C267.654 67.3515 280.656 149.623 269.182 165.782Z" fill="#FFBBBA"/>
<path d="M311.358 121.028C303.496 134.838 289.172 144.678 273.576 147.453C273.007 155.664 271.67 162.281 269.182 165.789C298.385 172.043 321.509 155.749 317.812 105.944C316.131 111.161 313.971 116.21 311.358 121.028Z" fill="#FF98A1"/>
<path d="M204.906 151.167C204.906 151.167 233.689 160.623 227.028 192.435C220.367 224.247 176.294 245.279 176.294 245.279C176.294 245.279 158.828 233.994 158.352 228.352C158.352 228.352 199.539 203.207 158.352 180.887" fill="#C4C4C4"/>
<path d="M221.121 179.4C226.403 206.217 205.844 225.179 205.844 225.179C205.844 225.179 222.607 211.66 227.028 192.449C234.307 160.773 204.906 151.182 204.906 151.182C204.906 151.182 218.27 164.892 221.121 179.4Z" fill="#E1E1E1"/>
<path d="M254.204 29.5063C236.589 6.73798 182.329 -9.62675 135.583 6.45337C128.486 8.86852 121.668 12.0361 115.245 15.9022C122.29 15.148 130.77 12.3447 133.081 11.8039C201.551 -4.14101 241.693 23.0102 254.204 29.5063Z" fill="#E1E1E1"/>
<path d="M334.305 64.4272C320.713 13.1771 287.672 18.67 269.417 26.3258C313.199 17.9513 330.118 53.9324 334.305 64.4272Z" fill="#E1E1E1"/>
<path d="M76.2116 63.9647L76.1476 64.1995C60.8925 53.3632 37.3061 48.1194 20.4302 57.9596C26.5791 57.9596 46.3553 49.9053 75.7637 72.2467C75.9272 69.3508 76.4746 67.8424 76.2116 63.9647Z" fill="#E1E1E1"/>
<path d="M123.377 94.1185C126.789 91.8836 130.673 90.4716 134.722 89.9938C138.772 89.516 142.877 89.9854 146.715 91.365C147.194 91.4941 147.704 91.429 148.135 91.184C148.566 90.9389 148.884 90.5335 149.018 90.0558C149.14 89.5769 149.071 89.0695 148.827 88.6398C148.584 88.2101 148.183 87.8915 147.71 87.7505C143.391 86.2314 138.781 85.7237 134.235 86.2664C129.689 86.8091 125.328 88.3878 121.486 90.8812C119.475 92.1975 121.351 95.4491 123.377 94.1185Z" fill="#595959"/>
<path d="M240.051 88.5901C236.21 86.0967 231.849 84.518 227.303 83.9753C222.757 83.4326 218.147 83.9403 213.827 85.4595C213.355 85.6019 212.956 85.9209 212.713 86.3501C212.469 86.7793 212.4 87.2859 212.519 87.7647C212.654 88.2424 212.971 88.6478 213.402 88.8929C213.834 89.138 214.344 89.203 214.823 89.0739C218.657 87.6978 222.759 87.2303 226.804 87.708C230.85 88.1858 234.73 89.5959 238.139 91.8275C240.158 93.158 242.042 89.9135 240.03 88.5901H240.051Z" fill="#595959"/>
<path d="M224.597 143.426C231.303 143.426 236.739 135.717 236.739 126.208C236.739 116.698 231.303 108.989 224.597 108.989C217.892 108.989 212.456 116.698 212.456 126.208C212.456 135.717 217.892 143.426 224.597 143.426Z" fill="#484848"/>
<path d="M223.133 115.798C218.448 115.798 214.403 119.64 212.47 125.226C212.47 125.553 212.47 125.88 212.47 126.208C212.47 135.72 217.908 143.433 224.618 143.433C228.884 143.433 232.68 140.267 234.841 135.493C234.957 134.549 235.016 133.598 235.018 132.647C234.997 123.333 229.68 115.798 223.133 115.798Z" fill="#212121"/>
<path d="M236.362 121.946C235.445 116.844 232.921 112.653 229.594 110.519C226.751 111.23 224.618 114.752 224.618 118.986C224.618 123.739 227.334 127.595 230.689 127.595C233.284 127.595 235.509 125.226 236.362 121.946Z" fill="#EEEEEE"/>
<path d="M138.462 146.087C145.686 146.087 151.542 137.783 151.542 127.538C151.542 117.294 145.686 108.989 138.462 108.989C131.238 108.989 125.382 117.294 125.382 127.538C125.382 137.783 131.238 146.087 138.462 146.087Z" fill="#484848"/>
<path d="M136.884 116.325C131.844 116.325 127.479 120.466 125.403 126.478C125.403 126.834 125.403 127.19 125.403 127.538C125.403 137.784 131.261 146.094 138.483 146.094C143.111 146.094 147.177 142.679 149.501 137.556C149.625 136.529 149.687 135.496 149.686 134.461C149.665 124.436 143.943 116.325 136.884 116.325Z" fill="#212121"/>
<path d="M151.144 122.949C150.155 117.449 147.433 112.938 143.85 110.64C140.786 111.408 138.462 115.193 138.462 119.761C138.462 124.884 141.391 129.011 145.002 129.011C147.859 129.032 150.219 126.499 151.144 122.949Z" fill="#EEEEEE"/>
<path d="M303.922 320.656C293.138 329.287 299.579 346.271 288.781 358.046C285.269 361.874 279.014 366.107 266.986 367.125C266.424 375.336 265.088 381.953 262.6 385.461C268.663 386.884 283.016 389.296 293.743 381.192C299.55 376.816 301.797 371.23 307.178 356.687C312.73 341.696 317.514 328.227 321.523 316.714C316.76 316.231 309.453 316.223 303.922 320.656Z" fill="#CE4832"/>
<path d="M244.956 238.982C243.799 236.286 242.41 233.696 240.805 231.241C252.727 230.057 264.474 227.508 275.815 223.642C313.49 210.778 337.297 186.416 349.183 172.079V172.299C349.183 178.802 346.425 191.98 315.708 212.144C302.508 220.796 281.061 232.742 250.7 241.373L244.956 238.982Z" fill="#ADADAD"/>
<path d="M236.127 240.206C236.127 240.206 289.172 237.36 344.242 183.925C347.129 181.122 350.086 172.278 346.965 164.715C344.001 157.528 335.733 153.537 328.859 152.946C320.599 152.235 314.166 156.404 308.65 160.125C282.554 177.707 273.746 187.248 258.747 195.772C249.559 200.955 239.691 204.825 229.431 207.27C228.911 210.336 228.035 213.33 226.822 216.192C225.23 219.714 223.374 223.111 221.27 226.353L236.127 240.206Z" fill="#C4C4C4"/>
<path d="M368.675 174.427C357.898 183.057 364.338 200.041 353.533 211.824C350.022 215.652 343.766 219.878 331.745 220.895C331.177 229.106 329.84 235.73 327.352 239.231C320.464 249.505 320.372 262.12 326.741 270.402C332.023 277.275 339.956 278.834 342.38 279.211C352.503 258.001 362.476 235.097 371.931 210.479C377.172 196.837 381.954 183.515 386.276 170.513C381.52 170.001 374.205 169.994 368.675 174.427Z" fill="#CE4832"/>
<path d="M374.283 92.4963C406.699 105.474 427.271 130.413 425.92 154.554C425.636 159.741 424.172 167.696 418.179 176.874C420.582 180.169 424.435 185.562 428.92 192.364C490.716 286.127 491.398 373.977 516.961 374.966C523.159 375.215 529.898 370.32 533.261 365.503C540.874 354.602 534.732 338.999 533.261 335.484C480.38 229.526 444.204 156.297 437.181 139.947C435.432 135.891 431.97 129.808 425.032 117.641C420.767 110.22 417.312 104.464 410.466 99.8035C407.696 97.9478 404.704 96.4489 401.559 95.3423C396.661 93.5066 387.235 90.8314 374.283 92.4963Z" fill="#CE4832"/>
<path d="M524.261 339.646C526.622 344.408 527.892 349.636 527.979 354.951C527.979 364.054 524.261 371.773 516.826 378.111C510.057 384.301 501.199 387.699 492.031 387.623C485.888 387.674 479.861 385.944 474.679 382.643C469.466 379.323 465.335 374.361 462.288 367.758L443.692 325.985H309.83L290.821 367.758C287.793 374.399 283.528 379.36 278.026 382.643C272.843 385.944 266.816 387.674 260.673 387.623C251.309 387.623 242.779 384.453 235.082 378.111C227.642 371.773 223.922 364.054 223.922 354.951C224.009 349.636 225.279 344.408 227.64 339.646L336.721 115.521C340.038 108.355 345.531 102.421 352.417 98.5654C359.573 94.4289 367.705 92.2865 375.968 92.3611C384.096 92.3232 392.086 94.4656 399.107 98.5654C406.172 102.321 411.827 108.271 415.222 115.521L524.261 339.646ZM335.442 268.951H418.073L376.757 176.718L335.442 268.951Z" fill="#FF5E3C"/>
</g>
<defs>
<clipPath id="clip0_1547_14879">
<rect width="537" height="390" fill="white"/>
</clipPath>
</defs>
</svg>
