<svg width="363" height="531" viewBox="0 0 363 531" fill="none" xmlns="http://www.w3.org/2000/svg">
<path d="M24.2638 450.204C24.2638 450.204 5.69527 486.409 3.30176 489.885C0.908251 493.362 -2.745 500.921 3.30176 503.491C9.34851 506.06 34.6189 482.025 44.2937 470.737C44.9007 470.023 45.286 469.148 45.4023 468.218C46.0826 463.859 47.4683 450.959 40.9428 447.86L24.2638 450.204Z" fill="#35343A"/>
<path d="M55.7573 459.047C55.7573 459.047 34.5936 480.362 28.043 492.758C21.4923 505.154 32.9308 505.758 46.1329 499.711C59.3349 493.665 74.4518 485.199 74.4518 485.199V462.675L55.7573 459.047Z" fill="#35343A"/>
<path d="M28.2445 299.413L5.56919 335.542C5.56919 335.542 4.96451 425.034 21.5931 451.438C21.5931 451.438 37.9949 453.025 44.0921 447.356C44.0921 447.356 44.7723 367.993 41.1443 353.254L72.4362 319.014C72.4362 319.014 53.3889 352.347 52.4819 354.614C51.5749 356.882 51.1466 458.241 51.1466 458.241C51.1466 458.241 63.744 469.049 76.543 465.497C76.543 465.497 85.991 408.531 86.6209 377.315L117.56 337.608C117.56 337.608 99.0167 300.798 76.4674 296.868C53.918 292.937 28.2445 299.413 28.2445 299.413Z" fill="#494E70"/>
<path d="M103.829 342.496L113.453 330.352C106.777 319.417 92.6425 299.665 76.4674 296.843C53.9433 292.912 28.2446 299.362 28.2446 299.362L25.9266 303.015C25.9266 303.015 70.5466 300.168 103.829 342.496Z" fill="#353B59"/>
<path d="M73.2678 305.913C65.4574 312.791 41.346 345.166 36.307 352.12C35.7056 352.943 35.4114 353.95 35.4756 354.967L40.9177 449.196C42.0424 448.723 43.0811 448.068 43.9914 447.256C43.9914 447.256 44.6717 367.892 41.0436 353.153L72.3356 318.913L79.6673 309.692L73.2678 305.913Z" fill="#353B59"/>
<path d="M73.1165 318.057L80.8261 307.878" stroke="#262D44" stroke-width="0.75" stroke-miterlimit="10" stroke-linecap="round"/>
<path d="M84.7818 369.706L83.4968 415.712C85.0841 402.081 86.369 387.998 86.5706 377.139L115.822 339.85L113.579 330.579C112.975 329.596 112.32 328.538 111.589 327.429C97.6815 341.79 84.7818 369.706 84.7818 369.706Z" fill="#353B59"/>
<path d="M56.11 133.202C56.11 133.202 40.7159 144.313 37.9949 152.93C35.2739 161.546 41.371 238.592 42.3032 244.538C46.4767 248.378 51.1152 251.679 56.11 254.364V265.551L28.2445 299.412C28.2445 299.412 55.3793 292.61 93.751 319.367C93.751 319.367 113.907 335.24 119.651 347.257L147.769 304.048V144.313C147.769 144.313 136.557 137.813 121.969 130.859V114.609H63.3157L56.11 133.202Z" fill="#CC95E8"/>
<path d="M121.088 259.958L106.626 250.736C103.065 253.28 100.055 256.517 97.7778 260.254C95.5003 263.99 94.0021 268.149 93.3733 272.479C93.3733 272.479 99.4452 279.609 105.794 280.516C112.143 281.423 128.293 286.261 128.293 286.261C128.293 286.261 134.869 262.679 121.088 259.958Z" fill="#F6B994"/>
<path d="M110.581 253.306L102.242 248.62C102.242 248.62 89.0648 257.539 89.9467 271.094L96.1194 273.815C96.1194 273.815 97.8578 259.353 110.581 253.306Z" fill="#F9F9F9"/>
<path d="M71.7812 138.418L85.2101 153.837L101.587 136.906L115.293 144.641C115.293 144.641 117.459 130.582 111.791 125.367C106.122 120.152 78.7602 125.367 78.7602 125.367L71.7812 138.418Z" fill="#F9F9F9"/>
<path d="M80.549 133.731C87.1684 136.593 94.4175 137.687 101.587 136.906L102.418 135.243L103.829 124.964L123.456 109.04C123.456 109.04 120.936 77.9753 117.888 69.9382C117.888 69.9382 113.101 56.333 112.471 54.8213C111.841 53.3096 91.1056 52.9065 79.4908 57.6935C67.876 62.4805 57.2689 75.3298 54.296 76.1361C51.323 76.9423 45.5534 88.7335 47.3422 102.439C49.131 116.145 80.549 133.731 80.549 133.731Z" fill="#F6B994"/>
<path d="M102.519 115.566C102.519 115.566 94.255 125.417 76.1652 119.975L79.1381 114.382C83.1857 116.262 87.6309 117.127 92.0883 116.901C95.6105 116.947 99.1217 116.497 102.519 115.566Z" fill="#F38B82"/>
<path d="M86.4447 455.872L81.4057 476.734C81.4057 476.734 37.1132 489.079 36.055 496.008C34.7197 505.531 56.2109 508.605 96.0439 509.361C96.9105 509.38 97.7708 509.208 98.5634 508.857C101.713 507.471 110.103 503.818 110.934 502.13C111.992 500.165 118.669 469.377 118.669 469.377L86.4447 455.872Z" fill="#F6B994"/>
<path d="M78.7601 114.835C87.5955 117.614 97.0821 117.534 105.87 114.609" stroke="#D1937D" stroke-width="0.5" stroke-linecap="round" stroke-linejoin="round"/>
<path d="M84.9077 462.272C88.9389 467.311 97.8075 476.834 106.676 478.774C109.976 479.574 113.403 479.703 116.754 479.152C117.989 473.635 118.921 469.326 118.921 469.326L86.4446 455.872L84.9077 462.272Z" fill="#E5A07A"/>
<path d="M142.805 477.641L139.807 502.432C139.807 502.432 111.009 512.107 109.85 524.05C108.767 535.564 153.286 531.734 178.834 518.658C179.833 518.16 180.689 517.415 181.32 516.493C181.95 515.572 182.335 514.504 182.437 513.392L185.183 479.455L142.805 477.641Z" fill="#F6B994"/>
<path d="M142.68 478.699L141.546 488.021C148.563 492.891 156.889 495.526 165.43 495.579C176.793 495.579 182.311 492.052 184.276 490.414L185.158 479.48L169.26 478.699H142.68Z" fill="#E5A07A"/>
<path d="M162.029 290.569C162.029 290.569 125.975 318.687 123.456 320.501C120.936 322.315 82.6654 456.779 82.6654 456.779C82.6654 456.779 98.9916 472.199 119.853 471.292C119.853 471.292 146.459 393.591 155.529 383.11C155.529 383.11 140.689 461.718 140.412 480.463C140.412 480.463 166.085 496.486 190.272 480.463C190.272 480.463 204.482 387.947 208.438 377.164C208.438 377.164 277.799 343.604 301.659 322.743V288.075L223.832 266.76L162.029 290.569Z" fill="#4A4260"/>
<path d="M218.944 285.581C231.819 288.982 263.186 313.698 272.886 321.534C273.242 321.809 273.53 322.162 273.728 322.566C273.926 322.97 274.029 323.414 274.029 323.864C274.029 324.314 273.926 324.758 273.728 325.162C273.53 325.566 273.242 325.919 272.886 326.195L244.845 347.938L218.113 294.096H198.612L193.775 298.959C193.775 298.959 209.647 314.983 211.008 316.948C212.368 318.913 221.716 342.773 225.419 352.221C225.836 353.284 225.91 354.451 225.63 355.558C225.349 356.665 224.73 357.657 223.857 358.394L215.19 365.549L175.156 290.645H161.928L148.726 300.924L178.557 337.356L193.22 377.92C196.433 386.789 197.241 396.351 195.563 405.634L181.379 484.922C184.507 483.756 187.491 482.234 190.273 480.387C190.273 480.387 204.482 387.872 208.438 377.088C208.438 377.088 277.799 343.529 301.659 322.667V288.075L258.601 276.284H218.944V285.581Z" fill="#3C3651"/>
<path d="M235.044 356.932L241.494 381.875C241.494 381.875 244.895 383.538 256.233 379.784C267.57 376.03 276.741 364.667 275.733 359.628C274.726 354.589 261.574 353.052 252.151 366.658L247.616 348.618L235.044 356.932Z" fill="#F6B994"/>
<path d="M252.151 366.758L249.631 357.084C244.924 359.035 240.695 361.983 237.235 365.725L241.418 381.875C241.418 381.875 244.819 383.538 256.157 379.784C267.494 376.03 276.665 364.667 275.658 359.628C274.65 354.589 261.574 353.153 252.151 366.758Z" fill="#FFC931"/>
<path d="M198.94 372.881L205.389 401.149C205.389 401.149 212.217 403.417 222.497 397.521C232.776 391.626 242.653 383.765 241.393 378.625C240.133 373.485 222.95 379.381 218.39 383.009L214.006 362.853L198.94 372.881Z" fill="#F6B994"/>
<path d="M240.687 283.086C240.687 283.086 179.942 335.996 166.085 348.391C164.475 349.848 163.335 351.751 162.81 353.859L155.529 382.959" stroke="#262D44" stroke-width="0.75" stroke-miterlimit="10" stroke-linecap="round"/>
<path d="M147.744 292.837C147.744 292.837 179.514 326.396 182.437 329.797C185.359 333.199 194.883 375.602 194.883 375.602C194.883 375.602 213.048 373.788 216.677 362.45C216.677 362.45 207.984 318.158 204.079 312.715C200.174 307.273 193.648 298.052 193.648 298.052H197.579C203.485 302.786 209.042 307.939 214.207 313.471C222.975 322.844 233.834 358.368 233.834 358.368C233.834 358.368 247.162 353.985 250.034 347.938C250.034 347.938 249.556 325.111 241.72 311.657C235.513 301.937 228.153 293.004 219.801 285.052H147.744V292.837Z" fill="#FFEBF7"/>
<path d="M219.927 285.052H147.744V292.837L153.362 298.783C168.075 304.246 183.741 306.68 199.418 305.938L193.774 298.052H197.705C197.705 298.052 200.577 300.269 204.81 304.124L227.032 292.257C222.975 287.924 219.927 285.052 219.927 285.052Z" fill="#F7D0E9"/>
<path d="M132.551 197.701L131.065 206.67V223.072H235.623V168.047L187.577 149.781H145.4L128.318 177.722L132.551 197.701Z" fill="#ED545B"/>
<path d="M152.203 209.316C152.203 209.316 151.296 192.687 156.411 181.602L159.913 211.634L152.203 209.316Z" fill="#D6434E"/>
<path d="M152.203 209.316C152.282 199.925 153.698 190.593 156.411 181.602" stroke="#B72E3E" stroke-width="0.75" stroke-linecap="round" stroke-linejoin="round"/>
<path d="M211.285 213.095C211.285 213.095 201.031 195.257 203.147 179.233C209.624 188.959 212.78 200.52 212.142 212.188L211.285 213.095Z" fill="#D6434E"/>
<path d="M203.5 178.477C203.5 178.477 202.819 199.188 211.436 211.634" stroke="#B72E3E" stroke-width="0.75" stroke-linecap="round" stroke-linejoin="round"/>
<path d="M154.723 155.5C159.28 161.615 165.629 166.159 172.888 168.5C172.888 168.5 191.356 168.853 197.68 157.314V148.647H154.723V155.5Z" fill="#D6434E"/>
<path d="M159.081 154.29C159.081 154.29 170.52 166.082 173.594 166.182C176.667 166.283 182.437 161.547 182.437 161.547C186.421 160.861 190.283 159.596 193.901 157.793C193.901 157.793 206.699 154.517 205.893 138.191C205.893 138.191 208.942 120.731 204.659 112.114L198.284 104.102H163.012L140.563 142.953V161.395L159.081 154.29Z" fill="#F6B994"/>
<path d="M212.217 147.337C212.217 147.337 206.447 139.325 205.767 138.191C205.767 138.191 204.885 152.351 193.774 157.793C193.774 157.793 212.671 170.39 213.552 171.373C214.434 172.355 219.826 190.218 219.826 190.218C219.826 190.218 231.995 180.292 230.332 165.628C228.669 150.965 212.217 147.337 212.217 147.337Z" fill="#5B3C48"/>
<path d="M223.706 192.032V184.902L234.792 180.594H281.125V224.13L260.591 245.596H240.309L231.995 200.548L223.706 192.032Z" fill="#F6B994"/>
<path d="M296.04 107.126C296.04 107.126 333.832 120.504 342.978 129.121C355.73 172.023 362.139 216.56 362 261.318C362 261.318 355.651 275.15 340.484 274.243L319.597 266.684C319.597 266.684 317.582 301.302 312.417 312.186L301.533 322.491L231.995 282.179L252.957 271.597V232.974L261.347 235.922L275.28 212.44C275.28 212.44 256.056 190.571 255.124 189.765C254.191 188.958 234.565 186.439 226.402 186.439C225.913 187.927 226.021 189.546 226.703 190.956C227.384 192.365 228.586 193.456 230.055 193.997C235.497 196.718 240.813 198.759 240.813 198.759L226.124 204.428L219.826 190.243C219.826 190.243 228.669 180.392 221.211 157.263L212.217 147.362L213.577 130.028C213.709 128.373 214.265 126.78 215.192 125.403C216.118 124.026 217.385 122.912 218.868 122.167L240.611 111.232L296.04 107.126Z" fill="#F9F9F9"/>
<path d="M221.313 43.408C221.313 43.408 220.935 79.4618 237.387 98.5091C241.311 98.6684 245.235 98.1833 249.002 97.073V106.445L240.612 111.207C240.612 111.207 239.554 124.586 263.841 124.586C288.129 124.586 296.04 107.126 296.04 107.126L277.774 100.096V82.8631C277.774 82.8631 298.686 74.1709 298.686 62.5309C298.686 50.8909 282.813 49.3792 282.813 49.3792V23.9073H216.601C216.601 23.9073 212.268 36.0764 221.313 43.408Z" fill="#F6B994"/>
<path d="M249.002 97.073V105.161C253.354 104.391 257.442 102.538 260.889 99.773C264.337 97.0078 267.033 93.4193 268.729 89.3382C262.204 93.7473 249.002 97.073 249.002 97.073Z" fill="#F38B82"/>
<path d="M224.059 29.173C224.059 29.173 242.728 39.0998 260.667 31.1634L259.86 41.9216C262.376 42.863 264.661 44.332 266.562 46.2299C268.477 48.7494 273.289 62.531 273.289 62.531C273.289 62.531 278.328 48.3211 291.858 52.2515C291.858 52.2515 297.602 45.1465 297.628 24.8899C297.628 8.71483 279.991 7.65665 279.991 7.65665C279.991 7.65665 270.619 -4.89037 248.17 2.13899C228.669 8.23613 222.27 10.5792 218.087 11.0831C217.85 11.1186 217.622 11.203 217.419 11.3309C217.215 11.4588 217.04 11.6276 216.905 11.8264C216.77 12.0253 216.678 12.25 216.634 12.4863C216.591 12.7227 216.596 12.9655 216.651 13.1995C217.206 15.5678 218.667 19.1455 222.345 18.9187C219.027 19.6082 215.655 20.0128 212.267 20.1281C211.993 20.1311 211.722 20.1896 211.47 20.2999C211.219 20.4102 210.992 20.5701 210.804 20.7701C210.616 20.97 210.47 21.2059 210.375 21.4636C210.28 21.7212 210.238 21.9954 210.252 22.2696C210.403 27.3086 211.789 39.906 221.363 43.4081C221.312 43.4081 221.665 33.9852 224.059 29.173Z" fill="#5B3C48"/>
<path d="M219.322 23.9073L221.993 28.7699C218.371 29.7503 214.554 29.7503 210.932 28.7699C212.041 34.3379 214.762 40.9641 221.313 43.408C221.313 43.408 221.665 33.9852 224.059 29.173C226.698 30.4781 229.457 31.5244 232.297 32.2971C227.494 30.3198 223.096 27.4759 219.322 23.9073Z" fill="#442A34"/>
<path d="M283.796 25.1922C282.922 26.7355 281.578 27.9591 279.96 28.6843C278.342 29.4096 276.534 29.5984 274.801 29.2234C274.448 29.1522 274.081 29.2164 273.773 29.403C273.465 29.5897 273.238 29.8853 273.138 30.2311C272.789 31.2551 272.181 32.1714 271.373 32.891C270.565 33.6106 269.585 34.109 268.527 34.3379C264.244 35.2449 260.616 31.1634 260.616 31.1634L259.81 41.9215C262.326 42.8629 264.611 44.3319 266.512 46.2299C268.427 48.7493 273.239 62.5309 273.239 62.5309C273.239 62.5309 278.278 48.321 291.807 52.2514C291.807 52.2514 297.552 45.1465 297.577 24.8898C297.588 22.9837 297.299 21.0877 296.72 19.2714C294.22 18.8423 291.649 19.1779 289.343 20.2343C287.037 21.2908 285.103 23.0188 283.796 25.1922Z" fill="#442A34"/>
<path d="M250.286 47.8676C250.286 47.8676 252.63 44.9198 258.298 46.3559C257.985 45.4843 257.372 44.7524 256.569 44.2909C255.766 43.8294 254.825 43.6683 253.915 43.8364C250.06 44.5922 250.286 47.6408 250.286 47.6408" fill="#5B3C48"/>
<path d="M225.268 45.5244C224.42 45.6435 223.617 45.9767 222.933 46.4925C222.25 47.0082 221.71 47.6896 221.363 48.4722C221.363 48.9089 221.363 49.3624 221.363 49.8327C222.364 48.9108 223.581 48.2547 224.901 47.9246C226.222 47.5945 227.604 47.6008 228.921 47.9431C228.584 47.2501 228.067 46.6601 227.425 46.2347C226.782 45.8093 226.037 45.564 225.268 45.5244Z" fill="#5B3C48"/>
<path d="M258.021 57.9454C258.727 60.4649 258.021 62.9844 256.258 63.3623C254.494 63.7402 252.629 62.1782 251.924 59.6335C251.219 57.0888 251.924 54.5945 253.688 54.1914C255.451 53.7883 257.341 55.426 258.021 57.9454Z" fill="#5B3C48"/>
<path d="M234.036 59.0037C234.741 61.5232 234.036 64.0426 232.323 64.4206C230.609 64.7985 228.77 63.186 228.065 60.6665C227.359 58.1471 228.065 55.6276 229.753 55.2497C231.441 54.8717 233.305 56.459 234.036 59.0037Z" fill="#5B3C48"/>
<path d="M238.218 65.5039C237.453 69.4647 237.334 73.523 237.865 77.5218C239.061 78.1895 240.459 78.3956 241.796 78.1013" stroke="#D1937D" stroke-width="0.75" stroke-linecap="round" stroke-linejoin="round"/>
<path d="M244.114 86.4912C249.287 82.3375 254.186 77.8517 258.777 73.0624C258.866 72.9529 258.986 72.8736 259.121 72.8353C259.257 72.7971 259.401 72.8017 259.533 72.8487C259.666 72.8957 259.781 72.9827 259.862 73.0977C259.943 73.2126 259.987 73.35 259.986 73.4907C260.188 77.018 260.289 84.904 257.139 85.8614C253.785 86.4901 250.327 86.2999 247.062 85.3071L244.114 86.4912Z" fill="#B75353"/>
<path d="M271.173 87.625C262.337 94.0511 251.845 97.8107 240.939 98.4588" stroke="#D1937D" stroke-width="0.5" stroke-linecap="round" stroke-linejoin="round"/>
<path d="M323.931 223.677L311.535 170.466C311.535 170.466 309.016 147.362 319.371 134.185C319.371 134.185 306.471 144.54 307.806 171.75L311.434 221.183L323.931 223.677Z" fill="#E5E1E1"/>
<path d="M252.983 232.974V271.749L232.021 282.331L301.558 322.642L312.442 312.363C317.481 301.479 319.623 266.861 319.623 266.861C319.623 266.861 278.177 252.097 261.347 235.922L252.983 232.974Z" fill="#E5E1E1"/>
<path d="M275.28 212.44L338.72 227.003" stroke="#CCC0C0" stroke-width="0.75" stroke-linecap="round" stroke-linejoin="round"/>
<path d="M311.535 170.466L323.931 223.677" stroke="#CCC0C0" stroke-width="0.75" stroke-linecap="round" stroke-linejoin="round"/>
<path d="M261.347 235.922C261.347 235.922 291.127 258.446 319.597 266.76" stroke="#CCC0C0" stroke-width="0.75" stroke-linecap="round" stroke-linejoin="round"/>
<path d="M195.588 214.834L254.292 193.997V272.101C254.292 272.101 218.717 286.034 205.112 300.773C205.112 300.773 156.184 299.337 125.144 290.09C124.377 289.864 123.697 289.41 123.193 288.79C122.69 288.169 122.386 287.41 122.322 286.614C121.213 274.47 116.326 224.156 110.707 205.537C110.587 205.16 110.563 204.76 110.637 204.372C110.711 203.984 110.881 203.621 111.132 203.315C111.382 203.01 111.705 202.772 112.071 202.623C112.437 202.474 112.834 202.419 113.227 202.463C128.873 204.201 188.609 211.08 195.588 214.834Z" fill="#FFC931"/>
<path d="M196.269 218.688C196.269 218.688 202.391 243.631 204.205 295.331" stroke="#E59D0E" stroke-linecap="round" stroke-linejoin="round"/>
<path d="M157.922 153.686C155.139 154.12 152.289 153.631 149.81 152.293C147.33 150.956 145.357 148.843 144.191 146.279C140.235 137.208 149.028 132.825 154.722 136.049C154.722 136.049 167.723 125.972 164.548 105.665C164.548 105.665 175.281 118.514 201.383 109.897C203.964 114.166 205.796 118.844 206.8 123.729C207.949 119.893 208.089 115.825 207.206 111.919C206.323 108.013 204.448 104.401 201.761 101.432C196.337 99.5993 191.05 97.385 185.939 94.8056C179.136 91.1775 144.191 97.325 142.352 130.607C139.909 137.687 136.437 144.368 132.047 150.436C124.816 160.514 120.709 171.171 122.095 182.861C122.305 186.05 123.387 189.12 125.222 191.737C127.056 194.354 129.574 196.417 132.501 197.701C132.501 197.701 136.607 175.379 138.295 171.524C139.983 167.669 159.056 154.291 159.056 154.291L157.922 153.686Z" fill="#5B3C48"/>
<path d="M173.644 122.595C173.946 124.838 173.09 126.853 171.704 127.03C170.318 127.206 168.907 125.568 168.605 123.301C168.303 121.033 169.134 119.043 170.545 118.841C171.956 118.64 173.316 120.328 173.644 122.595Z" fill="#5B3C48"/>
<path d="M196.722 119.647C197.05 121.915 196.193 123.905 194.782 124.107C193.371 124.309 192.011 122.62 191.683 120.378C191.356 118.136 192.238 116.12 193.623 115.919C195.009 115.717 196.42 117.38 196.722 119.647Z" fill="#5B3C48"/>
<path d="M186.871 124.208C186.871 124.208 191.482 132.22 186.367 133.731" stroke="#D1937D" stroke-width="0.5" stroke-linecap="round" stroke-linejoin="round"/>
<path d="M168.353 143.91C168.273 143.818 168.22 143.705 168.201 143.585C168.181 143.464 168.196 143.34 168.243 143.228C168.29 143.115 168.368 143.018 168.468 142.947C168.567 142.876 168.684 142.834 168.806 142.827C176.708 142.791 184.552 141.481 192.036 138.947C192.254 138.852 192.492 138.813 192.729 138.831C192.965 138.849 193.194 138.925 193.395 139.051C193.596 139.178 193.763 139.351 193.882 139.557C194.001 139.763 194.068 139.994 194.077 140.232C194.077 143.003 193.195 147.79 185.158 149.403C182.121 150.047 178.968 149.879 176.017 148.914C173.067 147.95 170.423 146.224 168.353 143.91Z" fill="#B75353"/>
<path d="M159.761 153.484L158.048 153.686V154.719L159.207 154.29C159.207 154.29 170.646 166.082 173.719 166.182C176.793 166.283 182.437 161.547 182.437 161.547C182.437 161.547 168.58 160.967 159.761 153.484Z" fill="#F38B82"/>
<path d="M218.39 382.959L216.425 373.838C210.978 376.356 205.894 379.593 201.308 383.462L205.339 401.099C205.339 401.099 212.167 403.366 222.446 397.471C232.726 391.575 242.602 383.714 241.342 378.575C240.083 373.435 222.95 379.381 218.39 382.959Z" fill="#FFC931"/>
<path d="M218.39 382.958C215.254 384.917 212.391 387.28 209.874 389.988" stroke="#E8E2E6" stroke-width="0.5" stroke-linecap="round" stroke-linejoin="round"/>
<path d="M252.151 366.758C250.574 368.187 249.077 369.701 247.666 371.293" stroke="#E8E2E6" stroke-width="0.5" stroke-linecap="round" stroke-linejoin="round"/>
<path d="M157.242 509.613C131.468 513.694 132.803 505.153 132.803 505.153C124.212 508.857 110.632 515.937 109.85 524.125C108.767 535.639 153.286 531.809 178.834 518.733C179.844 518.229 180.706 517.472 181.337 516.536C181.969 515.6 182.347 514.517 182.437 513.392L183.243 503.465C174.811 506.404 166.097 508.464 157.242 509.613Z" fill="#403F4F"/>
<path d="M96.1446 509.361C97.0113 509.38 97.8716 509.208 98.6641 508.857C101.813 507.471 110.203 503.818 111.035 502.13C111.513 501.248 113.101 494.572 114.713 487.542C111.085 490.062 105.064 492.354 95.1872 492.002C74.3259 491.246 68.5059 480.639 68.5059 480.639C55.3542 484.846 36.7857 491.548 36.1306 496.008C34.8205 505.531 56.1857 508.63 96.1446 509.361Z" fill="#403F4F"/>
<path d="M68.1531 73.793L112.345 56.7865L115.746 64.0426C116.842 61.1184 116.842 57.8965 115.746 54.9724C115.746 54.9724 114.234 43.0301 98.8404 37.7392C85.8147 33.2797 72.5118 36.7314 64.2227 38.1171C59.9716 39.4095 56.1268 41.7788 53.0614 44.9953C46.9963 51.3279 42.7171 59.1542 40.6592 67.6778C38.6013 76.2015 38.8382 85.1181 41.3458 93.5205C41.3458 93.5205 42.6056 99.9704 43.8653 112.895C45.125 125.82 51.8269 147.715 86.2934 138.569C86.2934 138.569 77.0469 130.481 79.0121 114.306C79.0121 114.306 62.711 115.969 56.6643 106.597C50.6175 97.2241 56.2108 87.247 63.3157 93.4449C63.3157 93.5205 70.3954 88.6831 68.1531 73.793Z" fill="#5B3C48"/>
<path d="M117.888 69.9382C117.888 69.9382 122.927 94.1253 117.888 103.498C116.624 106.119 114.808 108.436 112.564 110.289C110.319 112.141 107.701 113.486 104.887 114.231L103.829 124.964C110.071 126.267 116.154 128.244 121.969 130.859C121.969 130.859 134.567 124.964 139.606 118.615C139.606 118.615 128.873 106.017 125.421 95.1834C121.969 84.3497 119.248 72.8104 117.888 69.9382Z" fill="#5B3C48"/>
<path d="M64.2227 58.7517C71.7811 85.9873 63.3157 93.5206 63.3157 93.5206C64.6433 92.2438 65.735 90.7427 66.5406 89.0863C66.5406 88.8595 66.7674 88.5824 66.8681 88.3053C66.9546 88.1252 67.0304 87.9401 67.0949 87.751C68.6025 83.2568 68.9321 78.451 68.0523 73.793C67.3251 68.6552 66.041 63.6118 64.2227 58.7517Z" fill="#442A34"/>
<path d="M77.4501 80.2933C77.4501 80.2933 81.5064 77.2699 90.8285 78.9327C89.9436 77.8313 88.7602 77.008 87.4199 76.5612C86.0795 76.1145 84.6389 76.0631 83.2701 76.4132C77.9792 76.9171 77.4501 80.2933 77.4501 80.2933Z" fill="#5B3C48"/>
<path d="M106.021 73.0624C108.095 71.0031 110.563 69.3835 113.277 68.3006C112.451 67.9933 111.564 67.8856 110.688 67.9863C109.812 68.087 108.973 68.3933 108.238 68.8801C107.53 69.3177 106.952 69.9357 106.563 70.6707C106.173 71.4058 105.986 72.2313 106.021 73.0624Z" fill="#5B3C48"/>
<path d="M101.587 74.6496C102.595 76.5632 103.877 78.32 105.391 79.865C107.356 81.6034 107.91 81.9561 107.91 83.0395C107.91 84.1229 103.804 87.9021 103.804 87.9021" stroke="#D1937D" stroke-width="0.75" stroke-linecap="round" stroke-linejoin="round"/>
<path d="M86.6964 98.0052C90.778 98.1563 101.209 98.2319 106.449 98.0052C106.585 98.0028 106.719 98.0383 106.835 98.1076C106.952 98.1769 107.047 98.2774 107.11 98.3977C107.173 98.5181 107.201 98.6535 107.191 98.7889C107.181 98.9243 107.133 99.0542 107.054 99.1641C105.855 100.827 104.32 102.219 102.55 103.252C100.779 104.285 98.8117 104.935 96.7744 105.161C94.625 105.225 92.4974 104.714 90.6108 103.683C88.7243 102.651 87.1469 101.134 86.0414 99.2901C85.9614 99.1676 85.9151 99.0261 85.9073 98.88C85.8995 98.7339 85.9304 98.5883 85.9968 98.458C86.0633 98.3276 86.163 98.2171 86.2858 98.1376C86.4086 98.0581 86.5503 98.0124 86.6964 98.0052Z" fill="#B75353"/>
<path d="M116.603 58.2982C116.074 57.7133 115.408 57.269 114.665 57.0052C113.921 56.7413 113.124 56.6662 112.345 56.7865L115.746 64.0426C116.365 62.1925 116.655 60.2483 116.603 58.2982Z" fill="#442A34"/>
<path d="M56.11 265.551L58.7806 260.713C58.7806 260.713 91.5339 285.051 123.783 285.051V283.086C123.783 283.086 79.7679 269.935 56.11 254.465V265.551Z" fill="#B680D6"/>
<path d="M71.882 230.933V190.117C71.882 190.117 71.6049 175.152 67.8257 173.187V228.615L71.882 230.933Z" fill="#B680D6"/>
<path d="M67.851 170.995V228.514L109.322 252.601" stroke="#9662BC" stroke-width="0.75" stroke-linecap="round" stroke-linejoin="round"/>
<path d="M56.11 254.465C70.723 264.19 96.8248 273.915 96.8248 273.915" stroke="#9662BC" stroke-width="0.75" stroke-linecap="round" stroke-linejoin="round"/>
</svg>
