<svg width="497" height="407" viewBox="0 0 497 407" fill="none" xmlns="http://www.w3.org/2000/svg">
<g clip-path="url(#clip0_1541_14724)">
<path d="M0 1.30075L224.191 92.4907H269.385L497 1.30075V314.989L271.097 407H225.081L0 316.7V1.30075Z" fill="#FF5484"/>
<path d="M269.454 92.4907H225.081V407H269.454V92.4907Z" fill="#DB3D78"/>
<path d="M0 1.30067C0 1.30067 203.306 4.65526 248.5 92.4906C248.5 92.4906 318.757 -12.8707 497 1.30067L269.385 92.4906H225.081L0 1.30067Z" fill="#FFE7BC"/>
<path d="M0 1.30075L248.5 92.4907H225.081L0 1.30075Z" fill="#E0C190"/>
<path d="M497 1.30075L248.5 92.4907H269.385L497 1.30075Z" fill="#E0C190"/>
<path d="M225.081 202.097L0 117.137V198.468L225.081 295.34V202.097Z" fill="#FF7D95"/>
<path d="M328.138 56.2064L358.336 44.1573V16.1568L343.271 27.7951L328.138 24.6459V56.2064Z" fill="#F2B620"/>
<path d="M281.095 138.496V199.974L486.318 126.584V61.3409L281.095 138.496Z" fill="#FF7D95"/>
<path d="M344.777 253.921C344.437 247.279 345.689 240.651 348.429 234.59C351.168 228.529 355.316 223.21 360.527 219.075C378.81 203.534 406.68 201.96 416.951 210.106C416.951 210.106 437.494 179.368 458.996 215.652C480.497 251.936 465.638 276.65 442.493 273.844C442.493 273.844 423.936 306.02 376.14 302.734C376.14 302.734 360.732 343.811 330.74 304.103C298.625 261.658 327.385 249.608 344.777 253.921Z" fill="#C4C4C4"/>
<path d="M371.757 280.074C371.246 277.563 371.685 274.953 372.99 272.748C374.344 270.459 376.413 268.679 378.879 267.682C380.09 267.196 381.354 266.852 382.645 266.655C383.961 266.45 385.301 266.45 386.617 266.655C387.901 266.923 389.115 267.46 390.177 268.23C391.177 268.95 392.076 269.802 392.848 270.763V271.242C391.752 270.831 390.657 270.284 389.629 269.941C388.639 269.594 387.598 269.409 386.548 269.394C385.525 269.258 384.489 269.258 383.467 269.394C382.443 269.651 381.437 269.971 380.454 270.352L379.016 271.037L377.715 271.79C376.86 272.38 376.079 273.069 375.386 273.844C373.961 275.57 372.911 277.576 372.305 279.731L371.757 280.074Z" fill="#484848"/>
<path d="M430.852 250.498C429.269 250.072 427.622 249.933 425.99 250.088C424.566 250.231 423.212 250.777 422.087 251.662L421.197 252.415L420.307 253.237C419.734 253.741 419.228 254.316 418.8 254.948C418.319 255.551 417.927 256.219 417.636 256.934C417.636 257.687 417.157 258.508 416.815 259.398C416.466 258.524 416.257 257.6 416.198 256.66C416.198 255.625 416.408 254.6 416.815 253.648C417.165 252.707 417.701 251.845 418.389 251.115C418.672 250.719 418.993 250.352 419.348 250.019L419.896 249.54L420.512 249.061C421.335 248.443 422.263 247.98 423.251 247.692C424.287 247.447 425.365 247.447 426.401 247.692C428.37 247.862 430.204 248.766 431.537 250.225L430.852 250.498Z" fill="#484848"/>
<path d="M325.81 296.915C327.248 299.174 328.891 301.502 330.74 303.761C359.705 341.894 375.112 305.062 376.071 302.529C375.27 302.098 374.447 301.71 373.606 301.365C370.178 300.176 366.536 299.732 362.924 300.064C357.925 300.064 348.27 297.668 343.339 297.805C337.507 298.88 331.503 298.575 325.81 296.915Z" fill="#A2A2A2"/>
<path d="M371.963 301.228C371.963 301.228 356.418 295.82 350.598 270.557C350.598 270.557 318.825 256.865 334.506 291.096C350.187 325.326 371.415 301.228 371.552 301.228" fill="#FFBBBA"/>
<path d="M447.012 255.77C445.932 258.719 445.152 261.77 444.684 264.875C444.108 267.9 443.377 270.894 442.493 273.844C463.036 276.514 477.964 256.454 464.131 225.921C460.776 230.439 457.284 234.958 454.339 239.613C451.195 244.652 448.732 250.085 447.012 255.77Z" fill="#A2A2A2"/>
<path d="M365.389 296.915C362.106 298.237 358.586 298.866 355.049 298.763C351.402 298.55 347.837 297.595 344.572 295.956C339.515 293.392 335.2 289.574 332.041 284.866C332.726 286.783 333.547 288.905 334.643 291.233C350.324 325.463 371.894 300.886 371.963 300.954C369.632 299.848 367.428 298.494 365.389 296.915Z" fill="#FF98A1"/>
<path d="M444.684 264.875C458.859 262.548 466.049 250.772 454.065 228.249C439.549 200.864 427.428 222.977 427.428 222.977C427.428 222.977 446.876 256.044 444.684 264.875Z" fill="#FFBBBA"/>
<path d="M455.23 238.586C454.666 242.218 453.321 245.684 451.288 248.745C449.255 251.806 446.581 254.39 443.452 256.318C444.562 259.025 444.986 261.965 444.684 264.875C458.379 262.616 465.227 251.731 455.435 231.056C455.607 233.567 455.538 236.088 455.23 238.586Z" fill="#FF98A1"/>
<path d="M444.616 260.768C443.626 263.913 442.046 266.84 439.959 269.394C437.7 272.337 435.303 275.418 432.701 278.362C431.306 274.918 428.693 272.108 425.359 270.466C422.025 268.825 418.204 268.468 414.623 269.462C414.623 269.462 422.224 278.567 426.333 285.003C423.21 287.885 419.708 290.326 415.924 292.26C414.486 290.069 410.652 287.947 400.243 289.658C402.728 291.215 405.026 293.053 407.091 295.135C379.7 301.981 366.964 291.301 364.225 289.726C361.723 288.14 359.423 286.255 357.377 284.113C357.377 284.113 355.254 282.949 354.98 282.675C356.708 287.49 359.58 291.812 363.35 295.271C367.119 298.729 371.673 301.22 376.619 302.529C407.433 308.279 425.648 295.683 434.961 285.208C438.02 281.784 440.6 277.961 442.63 273.844C444.25 269.685 444.929 265.219 444.616 260.768Z" fill="#A2A2A2"/>
<path d="M414.623 269.462C418.576 269.288 422.451 270.596 425.491 273.128C428.53 275.66 430.515 279.236 431.057 283.154C433.591 297.873 418.252 314.304 418.252 314.304C418.252 314.304 408.803 312.456 407.707 310.059C407.707 310.059 421.402 292.396 399.695 289.521" fill="#C4C4C4"/>
<path d="M426.333 278.841C428.304 282.207 429.439 285.997 429.642 289.893C429.844 293.788 429.109 297.676 427.497 301.228C430.563 295.824 431.924 289.619 431.4 283.428C430.903 279.49 428.931 275.886 425.881 273.345C422.831 270.804 418.93 269.514 414.966 269.736C419.428 271.819 423.326 274.942 426.333 278.841Z" fill="#E1E1E1"/>
<path d="M415.308 209.011C403.941 202.165 377.92 204.356 360.527 219.143C357.987 221.382 355.692 223.883 353.679 226.606C356.067 225.189 358.355 223.61 360.527 221.882C368.307 216.132 377.176 212.026 386.593 209.813C396.011 207.601 405.781 207.328 415.308 209.011Z" fill="#E1E1E1"/>
<path d="M455.503 210.517C441.055 190.801 428.113 198.742 421.265 205.109C426.636 201.633 433.101 200.262 439.42 201.261C445.739 202.259 451.467 205.555 455.503 210.517Z" fill="#E1E1E1"/>
<path d="M344.777 253.785C340.394 252.538 335.752 252.518 331.358 253.725C326.963 254.932 322.984 257.32 319.852 260.631C323.646 258.09 327.982 256.476 332.514 255.917C337.045 255.358 341.644 255.871 345.942 257.413C345.66 256.172 345.271 254.958 344.777 253.785Z" fill="#E1E1E1"/>
</g>
<defs>
<clipPath id="clip0_1541_14724">
<rect width="497" height="407" fill="white"/>
</clipPath>
</defs>
</svg>
