<svg width="319" height="101" viewBox="0 0 319 101" fill="none" xmlns="http://www.w3.org/2000/svg">
<g clip-path="url(#clip0_1778_17253)">
<path d="M147.467 31.21C147.995 31.21 148.419 31.386 148.739 31.738C149.075 32.074 149.243 32.514 149.243 33.058V46.522C149.243 47.082 149.075 47.538 148.739 47.89C148.419 48.226 147.995 48.394 147.467 48.394C146.891 48.394 146.427 48.186 146.075 47.77L138.035 37.474V46.522C138.035 47.082 137.875 47.538 137.555 47.89C137.251 48.226 136.835 48.394 136.307 48.394C135.779 48.394 135.355 48.226 135.035 47.89C134.715 47.538 134.555 47.082 134.555 46.522V33.058C134.555 32.514 134.715 32.074 135.035 31.738C135.371 31.386 135.803 31.21 136.331 31.21C136.923 31.21 137.379 31.418 137.699 31.834L145.739 42.058V33.058C145.739 32.514 145.899 32.074 146.219 31.738C146.539 31.386 146.955 31.21 147.467 31.21ZM154.138 48.394C153.61 48.394 153.17 48.25 152.818 47.962C152.482 47.674 152.314 47.25 152.314 46.69V37.93C152.314 37.37 152.49 36.946 152.842 36.658C153.194 36.37 153.626 36.226 154.138 36.226C154.65 36.226 155.074 36.37 155.41 36.658C155.762 36.946 155.938 37.37 155.938 37.93V46.69C155.938 47.25 155.762 47.674 155.41 47.962C155.074 48.25 154.65 48.394 154.138 48.394ZM154.138 34.306C153.498 34.306 152.994 34.146 152.626 33.826C152.258 33.49 152.074 33.042 152.074 32.482C152.074 31.922 152.258 31.482 152.626 31.162C152.994 30.842 153.498 30.682 154.138 30.682C154.762 30.682 155.258 30.85 155.626 31.186C156.01 31.506 156.202 31.938 156.202 32.482C156.202 33.042 156.018 33.49 155.65 33.826C155.282 34.146 154.778 34.306 154.138 34.306ZM166.104 36.178C167.512 36.178 168.56 36.594 169.248 37.426C169.936 38.242 170.28 39.482 170.28 41.146V46.69C170.28 47.218 170.112 47.634 169.776 47.938C169.456 48.242 169.016 48.394 168.456 48.394C167.896 48.394 167.456 48.242 167.136 47.938C166.816 47.634 166.656 47.218 166.656 46.69V41.314C166.656 40.514 166.504 39.93 166.2 39.562C165.912 39.194 165.456 39.01 164.832 39.01C164.08 39.01 163.472 39.25 163.008 39.73C162.56 40.21 162.336 40.85 162.336 41.65V46.69C162.336 47.218 162.176 47.634 161.856 47.938C161.536 48.242 161.096 48.394 160.536 48.394C159.976 48.394 159.528 48.242 159.192 47.938C158.872 47.634 158.712 47.218 158.712 46.69V37.882C158.712 37.386 158.88 36.986 159.216 36.682C159.568 36.378 160.016 36.226 160.56 36.226C161.056 36.226 161.456 36.378 161.76 36.682C162.08 36.97 162.24 37.346 162.24 37.81V38.146C162.656 37.506 163.192 37.018 163.848 36.682C164.52 36.346 165.272 36.178 166.104 36.178ZM183.042 31.21C183.602 31.21 184.05 31.362 184.386 31.666C184.738 31.97 184.914 32.37 184.914 32.866V46.69C184.914 47.202 184.746 47.618 184.41 47.938C184.09 48.242 183.658 48.394 183.114 48.394C182.57 48.394 182.13 48.242 181.794 47.938C181.474 47.618 181.314 47.202 181.314 46.69V46.498C180.962 47.106 180.458 47.586 179.802 47.938C179.162 48.274 178.434 48.442 177.618 48.442C176.61 48.442 175.706 48.186 174.906 47.674C174.122 47.146 173.506 46.418 173.058 45.49C172.626 44.546 172.41 43.466 172.41 42.25C172.41 41.034 172.626 39.97 173.058 39.058C173.506 38.13 174.122 37.418 174.906 36.922C175.69 36.426 176.594 36.178 177.618 36.178C178.418 36.178 179.138 36.346 179.778 36.682C180.434 37.018 180.938 37.49 181.29 38.098V32.794C181.29 32.314 181.45 31.93 181.77 31.642C182.09 31.354 182.514 31.21 183.042 31.21ZM178.674 45.682C179.522 45.682 180.17 45.394 180.618 44.818C181.082 44.226 181.314 43.386 181.314 42.298C181.314 41.21 181.082 40.378 180.618 39.802C180.17 39.226 179.522 38.938 178.674 38.938C177.826 38.938 177.17 39.226 176.706 39.802C176.242 40.362 176.01 41.178 176.01 42.25C176.01 43.338 176.242 44.186 176.706 44.794C177.17 45.386 177.826 45.682 178.674 45.682ZM189.529 48.394C189.001 48.394 188.561 48.25 188.209 47.962C187.873 47.674 187.705 47.25 187.705 46.69V37.93C187.705 37.37 187.881 36.946 188.233 36.658C188.585 36.37 189.017 36.226 189.529 36.226C190.041 36.226 190.465 36.37 190.801 36.658C191.153 36.946 191.329 37.37 191.329 37.93V46.69C191.329 47.25 191.153 47.674 190.801 47.962C190.465 48.25 190.041 48.394 189.529 48.394ZM189.529 34.306C188.889 34.306 188.385 34.146 188.017 33.826C187.649 33.49 187.465 33.042 187.465 32.482C187.465 31.922 187.649 31.482 188.017 31.162C188.385 30.842 188.889 30.682 189.529 30.682C190.153 30.682 190.649 30.85 191.017 31.186C191.401 31.506 191.593 31.938 191.593 32.482C191.593 33.042 191.409 33.49 191.041 33.826C190.673 34.146 190.169 34.306 189.529 34.306ZM214.798 45.442C215.166 45.81 215.35 46.21 215.35 46.642C215.35 47.09 215.174 47.482 214.822 47.818C214.486 48.154 214.094 48.322 213.646 48.322C213.134 48.322 212.678 48.114 212.278 47.698L204.838 40.426V46.522C204.838 47.098 204.67 47.554 204.334 47.89C203.998 48.226 203.542 48.394 202.966 48.394C202.39 48.394 201.934 48.226 201.598 47.89C201.262 47.554 201.094 47.098 201.094 46.522V33.058C201.094 32.498 201.262 32.05 201.598 31.714C201.934 31.378 202.39 31.21 202.966 31.21C203.542 31.21 203.998 31.378 204.334 31.714C204.67 32.05 204.838 32.498 204.838 33.058V38.794L212.086 31.762C212.438 31.41 212.838 31.234 213.286 31.234C213.734 31.234 214.126 31.402 214.462 31.738C214.798 32.058 214.966 32.442 214.966 32.89C214.966 33.354 214.774 33.77 214.39 34.138L208.678 39.49L214.798 45.442ZM226.365 36.226C226.925 36.226 227.365 36.378 227.685 36.682C228.021 36.986 228.189 37.402 228.189 37.93V46.738C228.189 47.234 228.013 47.634 227.661 47.938C227.325 48.242 226.885 48.394 226.341 48.394C225.829 48.394 225.421 48.25 225.117 47.962C224.813 47.674 224.661 47.29 224.661 46.81V46.57C224.293 47.178 223.805 47.642 223.197 47.962C222.605 48.282 221.933 48.442 221.181 48.442C219.693 48.442 218.581 48.034 217.845 47.218C217.125 46.386 216.765 45.138 216.765 43.474V37.93C216.765 37.402 216.925 36.986 217.245 36.682C217.581 36.378 218.029 36.226 218.589 36.226C219.149 36.226 219.589 36.378 219.909 36.682C220.229 36.986 220.389 37.402 220.389 37.93V43.546C220.389 44.25 220.533 44.77 220.821 45.106C221.125 45.442 221.581 45.61 222.189 45.61C222.893 45.61 223.461 45.37 223.893 44.89C224.341 44.41 224.565 43.778 224.565 42.994V37.93C224.565 37.402 224.725 36.986 225.045 36.682C225.365 36.378 225.805 36.226 226.365 36.226ZM235.434 48.442C234.458 48.442 233.61 48.362 232.89 48.202C232.17 48.042 231.538 47.786 230.994 47.434C230.754 47.29 230.57 47.098 230.442 46.858C230.314 46.618 230.25 46.346 230.25 46.042C230.25 45.674 230.354 45.37 230.562 45.13C230.77 44.874 231.026 44.746 231.33 44.746C231.538 44.746 231.746 44.786 231.954 44.866C232.162 44.93 232.378 45.01 232.602 45.106C233.05 45.314 233.49 45.482 233.922 45.61C234.354 45.722 234.89 45.778 235.53 45.778C236.09 45.778 236.522 45.69 236.826 45.514C237.146 45.338 237.306 45.098 237.306 44.794C237.306 44.57 237.234 44.394 237.09 44.266C236.962 44.122 236.714 43.994 236.346 43.882C235.978 43.77 235.394 43.634 234.594 43.474C233.17 43.202 232.146 42.794 231.522 42.25C230.898 41.706 230.586 40.946 230.586 39.97C230.586 39.25 230.802 38.602 231.234 38.026C231.682 37.45 232.29 37.002 233.058 36.682C233.826 36.346 234.69 36.178 235.65 36.178C236.338 36.178 237.01 36.266 237.666 36.442C238.322 36.618 238.906 36.866 239.418 37.186C239.914 37.49 240.162 37.938 240.162 38.53C240.162 38.914 240.058 39.234 239.85 39.49C239.642 39.746 239.386 39.874 239.082 39.874C238.714 39.874 238.274 39.73 237.762 39.442C237.362 39.234 236.994 39.082 236.658 38.986C236.338 38.874 235.954 38.818 235.506 38.818C235.01 38.818 234.618 38.914 234.33 39.106C234.042 39.282 233.898 39.53 233.898 39.85C233.898 40.186 234.066 40.442 234.402 40.618C234.738 40.794 235.386 40.97 236.346 41.146C237.418 41.354 238.258 41.61 238.866 41.914C239.474 42.202 239.914 42.57 240.186 43.018C240.458 43.466 240.594 44.034 240.594 44.722C240.594 45.858 240.122 46.762 239.178 47.434C238.25 48.106 237.002 48.442 235.434 48.442ZM252.193 36.226C252.753 36.226 253.193 36.378 253.513 36.682C253.849 36.986 254.017 37.402 254.017 37.93V46.738C254.017 47.234 253.841 47.634 253.489 47.938C253.153 48.242 252.713 48.394 252.169 48.394C251.657 48.394 251.249 48.25 250.945 47.962C250.641 47.674 250.489 47.29 250.489 46.81V46.57C250.121 47.178 249.633 47.642 249.025 47.962C248.433 48.282 247.761 48.442 247.009 48.442C245.521 48.442 244.409 48.034 243.673 47.218C242.953 46.386 242.593 45.138 242.593 43.474V37.93C242.593 37.402 242.753 36.986 243.073 36.682C243.409 36.378 243.857 36.226 244.417 36.226C244.977 36.226 245.417 36.378 245.737 36.682C246.057 36.986 246.217 37.402 246.217 37.93V43.546C246.217 44.25 246.361 44.77 246.649 45.106C246.953 45.442 247.409 45.61 248.017 45.61C248.721 45.61 249.289 45.37 249.721 44.89C250.169 44.41 250.393 43.778 250.393 42.994V37.93C250.393 37.402 250.553 36.986 250.873 36.682C251.193 36.378 251.633 36.226 252.193 36.226ZM271.318 36.178C272.598 36.178 273.582 36.57 274.27 37.354C274.958 38.122 275.302 39.386 275.302 41.146V46.69C275.302 47.25 275.134 47.674 274.798 47.962C274.462 48.25 274.03 48.394 273.502 48.394C272.99 48.394 272.558 48.25 272.206 47.962C271.854 47.674 271.678 47.25 271.678 46.69V41.098C271.678 40.33 271.542 39.794 271.27 39.49C271.014 39.17 270.614 39.01 270.07 39.01C269.398 39.01 268.862 39.242 268.462 39.706C268.062 40.17 267.862 40.818 267.862 41.65V46.69C267.862 47.25 267.694 47.674 267.358 47.962C267.022 48.25 266.59 48.394 266.062 48.394C265.55 48.394 265.118 48.25 264.766 47.962C264.414 47.674 264.238 47.25 264.238 46.69V41.098C264.238 40.33 264.102 39.794 263.83 39.49C263.574 39.17 263.174 39.01 262.63 39.01C261.958 39.01 261.422 39.242 261.022 39.706C260.622 40.17 260.422 40.818 260.422 41.65V46.69C260.422 47.25 260.246 47.674 259.894 47.962C259.558 48.25 259.134 48.394 258.622 48.394C258.11 48.394 257.678 48.25 257.326 47.962C256.974 47.674 256.798 47.25 256.798 46.69V37.882C256.798 37.354 256.974 36.946 257.326 36.658C257.694 36.37 258.134 36.226 258.646 36.226C259.126 36.226 259.526 36.37 259.846 36.658C260.166 36.93 260.326 37.314 260.326 37.81V38.05C260.71 37.442 261.206 36.978 261.814 36.658C262.438 36.338 263.142 36.178 263.926 36.178C264.774 36.178 265.486 36.354 266.062 36.706C266.654 37.042 267.11 37.594 267.43 38.362C267.798 37.69 268.318 37.162 268.99 36.778C269.678 36.378 270.454 36.178 271.318 36.178ZM283.337 36.178C285.065 36.178 286.345 36.602 287.177 37.45C288.009 38.282 288.425 39.562 288.425 41.29V46.714C288.425 47.242 288.273 47.658 287.969 47.962C287.665 48.25 287.241 48.394 286.697 48.394C286.185 48.394 285.769 48.242 285.449 47.938C285.145 47.618 284.993 47.21 284.993 46.714V46.546C284.753 47.138 284.353 47.602 283.793 47.938C283.233 48.274 282.577 48.442 281.825 48.442C281.025 48.442 280.297 48.282 279.641 47.962C279.001 47.642 278.489 47.194 278.105 46.618C277.737 46.042 277.553 45.402 277.553 44.698C277.553 43.834 277.769 43.154 278.201 42.658C278.649 42.162 279.361 41.802 280.337 41.578C281.313 41.354 282.649 41.242 284.345 41.242H284.969V40.81C284.969 40.138 284.817 39.65 284.513 39.346C284.225 39.042 283.737 38.89 283.049 38.89C282.361 38.89 281.369 39.13 280.073 39.61C279.705 39.786 279.393 39.874 279.137 39.874C278.785 39.874 278.505 39.754 278.297 39.514C278.089 39.258 277.985 38.93 277.985 38.53C277.985 38.21 278.057 37.946 278.201 37.738C278.345 37.53 278.577 37.338 278.897 37.162C279.457 36.858 280.137 36.618 280.937 36.442C281.753 36.266 282.553 36.178 283.337 36.178ZM282.617 45.946C283.321 45.946 283.889 45.714 284.321 45.25C284.753 44.77 284.969 44.154 284.969 43.402V42.994H284.561C283.265 42.994 282.353 43.098 281.825 43.306C281.313 43.514 281.057 43.89 281.057 44.434C281.057 44.882 281.201 45.25 281.489 45.538C281.793 45.81 282.169 45.946 282.617 45.946Z" fill="black"/>
<path d="M139.051 69.378C137.984 69.378 137.062 69.1487 136.283 68.69C135.504 68.2207 134.902 67.554 134.475 66.69C134.059 65.8153 133.851 64.786 133.851 63.602C133.851 62.4287 134.059 61.41 134.475 60.546C134.902 59.6713 135.504 59.0047 136.283 58.546C137.062 58.0767 137.984 57.842 139.051 57.842C139.766 57.842 140.438 57.9593 141.067 58.194C141.707 58.418 142.262 58.7433 142.731 59.17C142.902 59.33 142.987 59.5167 142.987 59.73C142.987 59.8793 142.944 60.0127 142.859 60.13C142.774 60.2367 142.672 60.29 142.555 60.29C142.427 60.29 142.272 60.2313 142.091 60.114C141.547 59.6873 141.051 59.3887 140.603 59.218C140.166 59.0473 139.659 58.962 139.083 58.962C137.846 58.962 136.891 59.3673 136.219 60.178C135.558 60.978 135.227 62.1193 135.227 63.602C135.227 65.0953 135.558 66.2473 136.219 67.058C136.891 67.858 137.846 68.258 139.083 68.258C139.648 68.258 140.155 68.1727 140.603 68.002C141.051 67.8313 141.547 67.5327 142.091 67.106C142.272 66.9887 142.427 66.93 142.555 66.93C142.672 66.93 142.774 66.9833 142.859 67.09C142.944 67.1967 142.987 67.33 142.987 67.49C142.987 67.7033 142.902 67.89 142.731 68.05C142.262 68.4767 141.707 68.8073 141.067 69.042C140.438 69.266 139.766 69.378 139.051 69.378ZM145.791 69.25C145.588 69.25 145.423 69.1913 145.295 69.074C145.178 68.9567 145.119 68.802 145.119 68.61V58.61C145.119 58.418 145.178 58.2633 145.295 58.146C145.423 58.0287 145.588 57.97 145.791 57.97H151.775C151.967 57.97 152.116 58.018 152.223 58.114C152.33 58.21 152.383 58.3433 152.383 58.514C152.383 58.6847 152.33 58.818 152.223 58.914C152.116 59.01 151.967 59.058 151.775 59.058H146.415V62.978H151.455C151.647 62.978 151.796 63.026 151.903 63.122C152.01 63.218 152.063 63.3513 152.063 63.522C152.063 63.6927 152.01 63.826 151.903 63.922C151.796 64.018 151.647 64.066 151.455 64.066H146.415V68.162H151.775C151.967 68.162 152.116 68.21 152.223 68.306C152.33 68.3913 152.383 68.5247 152.383 68.706C152.383 68.8767 152.33 69.01 152.223 69.106C152.116 69.202 151.967 69.25 151.775 69.25H145.791ZM159.113 69.378C158.068 69.378 157.156 69.1433 156.377 68.674C155.609 68.2047 155.017 67.538 154.601 66.674C154.185 65.81 153.977 64.7913 153.977 63.618C153.977 62.434 154.18 61.41 154.585 60.546C155.001 59.6713 155.593 59.0047 156.361 58.546C157.14 58.0767 158.057 57.842 159.113 57.842C160.169 57.842 161.081 58.0767 161.849 58.546C162.628 59.0047 163.22 59.6713 163.625 60.546C164.041 61.41 164.249 62.4287 164.249 63.602C164.249 64.7753 164.041 65.7993 163.625 66.674C163.209 67.538 162.612 68.2047 161.833 68.674C161.065 69.1433 160.158 69.378 159.113 69.378ZM159.113 68.258C160.308 68.258 161.236 67.858 161.897 67.058C162.569 66.2473 162.905 65.0953 162.905 63.602C162.905 62.1087 162.574 60.962 161.913 60.162C161.252 59.362 160.318 58.962 159.113 58.962C157.918 58.962 156.985 59.3673 156.313 60.178C155.652 60.978 155.321 62.1193 155.321 63.602C155.321 65.0847 155.652 66.2313 156.313 67.042C156.985 67.8527 157.918 68.258 159.113 68.258ZM177.841 58.146C177.969 57.986 178.124 57.906 178.305 57.906C178.454 57.906 178.588 57.9647 178.705 58.082C178.822 58.1993 178.881 58.3433 178.881 58.514C178.881 58.674 178.833 58.8073 178.737 58.914L174.849 63.826V68.658C174.849 68.8713 174.785 69.0367 174.657 69.154C174.54 69.2713 174.385 69.33 174.193 69.33C174.001 69.33 173.841 69.2713 173.713 69.154C173.596 69.0367 173.537 68.8713 173.537 68.658V63.81L169.649 58.914C169.542 58.7967 169.489 58.6633 169.489 58.514C169.489 58.3433 169.548 58.1993 169.665 58.082C169.793 57.9647 169.937 57.906 170.097 57.906C170.278 57.906 170.433 57.986 170.561 58.146L174.209 62.802L177.841 58.146ZM180.882 69.33C180.69 69.33 180.53 69.2767 180.402 69.17C180.285 69.0527 180.226 68.8927 180.226 68.69V58.53C180.226 58.3273 180.285 58.1727 180.402 58.066C180.53 57.9487 180.69 57.89 180.882 57.89C181.064 57.89 181.213 57.9487 181.33 58.066C181.458 58.1727 181.522 58.3273 181.522 58.53V68.69C181.522 68.8927 181.458 69.0527 181.33 69.17C181.213 69.2767 181.064 69.33 180.882 69.33ZM187.153 61.266C189.105 61.266 190.081 62.29 190.081 64.338V68.69C190.081 68.882 190.022 69.0367 189.905 69.154C189.798 69.2713 189.649 69.33 189.457 69.33C189.265 69.33 189.11 69.2713 188.993 69.154C188.876 69.0367 188.817 68.882 188.817 68.69V67.922C188.614 68.3807 188.305 68.738 187.889 68.994C187.473 69.2393 186.993 69.362 186.449 69.362C185.948 69.362 185.484 69.2607 185.057 69.058C184.641 68.8553 184.31 68.5727 184.065 68.21C183.82 67.8473 183.697 67.4473 183.697 67.01C183.697 66.4233 183.846 65.97 184.145 65.65C184.444 65.3193 184.934 65.0847 185.617 64.946C186.3 64.7967 187.249 64.722 188.465 64.722H188.817V64.194C188.817 63.554 188.684 63.0847 188.417 62.786C188.161 62.4873 187.74 62.338 187.153 62.338C186.428 62.338 185.692 62.5353 184.945 62.93C184.657 63.1113 184.454 63.202 184.337 63.202C184.209 63.202 184.102 63.154 184.017 63.058C183.932 62.962 183.889 62.8393 183.889 62.69C183.889 62.5407 183.932 62.4127 184.017 62.306C184.113 62.1887 184.262 62.0713 184.465 61.954C184.838 61.7407 185.26 61.5753 185.729 61.458C186.209 61.33 186.684 61.266 187.153 61.266ZM186.625 68.338C187.265 68.338 187.788 68.1247 188.193 67.698C188.609 67.2607 188.817 66.7007 188.817 66.018V65.554H188.529C187.59 65.554 186.876 65.5967 186.385 65.682C185.894 65.7567 185.542 65.89 185.329 66.082C185.126 66.2633 185.025 66.5353 185.025 66.898C185.025 67.314 185.174 67.6607 185.473 67.938C185.782 68.2047 186.166 68.338 186.625 68.338ZM196.397 61.266C197.08 61.266 197.683 61.4313 198.205 61.762C198.728 62.0927 199.133 62.562 199.421 63.17C199.709 63.778 199.853 64.482 199.853 65.282C199.853 66.0927 199.709 66.8073 199.421 67.426C199.133 68.034 198.728 68.5087 198.205 68.85C197.683 69.1913 197.08 69.362 196.397 69.362C195.789 69.362 195.256 69.2287 194.797 68.962C194.349 68.6953 194.008 68.3167 193.773 67.826V68.69C193.773 68.882 193.715 69.0367 193.597 69.154C193.491 69.2713 193.336 69.33 193.133 69.33C192.931 69.33 192.771 69.2713 192.653 69.154C192.536 69.0367 192.477 68.882 192.477 68.69V58.514C192.477 58.3327 192.536 58.1833 192.653 58.066C192.771 57.9487 192.931 57.89 193.133 57.89C193.336 57.89 193.491 57.9487 193.597 58.066C193.715 58.1727 193.773 58.322 193.773 58.514V62.802C194.008 62.3113 194.349 61.9327 194.797 61.666C195.256 61.3993 195.789 61.266 196.397 61.266ZM196.141 68.29C196.899 68.29 197.485 68.0287 197.901 67.506C198.317 66.9727 198.525 66.2313 198.525 65.282C198.525 64.354 198.317 63.634 197.901 63.122C197.485 62.61 196.899 62.354 196.141 62.354C195.384 62.354 194.797 62.61 194.381 63.122C193.976 63.634 193.773 64.3647 193.773 65.314C193.773 66.2633 193.976 66.9993 194.381 67.522C194.797 68.034 195.384 68.29 196.141 68.29ZM204.438 69.362C203.947 69.362 203.478 69.3033 203.03 69.186C202.593 69.0687 202.203 68.9033 201.862 68.69C201.67 68.562 201.531 68.4447 201.446 68.338C201.371 68.2207 201.334 68.082 201.334 67.922C201.334 67.7833 201.371 67.6713 201.446 67.586C201.531 67.49 201.638 67.442 201.766 67.442C201.894 67.442 202.081 67.522 202.326 67.682C202.646 67.874 202.961 68.0287 203.27 68.146C203.59 68.2527 203.985 68.306 204.454 68.306C205.03 68.306 205.478 68.2047 205.798 68.002C206.118 67.7993 206.278 67.506 206.278 67.122C206.278 66.8873 206.219 66.7007 206.102 66.562C205.985 66.4127 205.782 66.2847 205.494 66.178C205.206 66.0607 204.785 65.9433 204.23 65.826C203.291 65.6233 202.619 65.3513 202.214 65.01C201.809 64.6687 201.606 64.2047 201.606 63.618C201.606 63.1593 201.734 62.754 201.99 62.402C202.246 62.05 202.598 61.7727 203.046 61.57C203.505 61.3673 204.022 61.266 204.598 61.266C205.014 61.266 205.414 61.3247 205.798 61.442C206.193 61.5487 206.539 61.7033 206.838 61.906C207.201 62.162 207.382 62.4287 207.382 62.706C207.382 62.8447 207.339 62.962 207.254 63.058C207.169 63.154 207.067 63.202 206.95 63.202C206.822 63.202 206.63 63.1113 206.374 62.93C206.075 62.738 205.793 62.5887 205.526 62.482C205.259 62.3753 204.929 62.322 204.534 62.322C204.033 62.322 203.627 62.434 203.318 62.658C203.019 62.882 202.87 63.1807 202.87 63.554C202.87 63.7887 202.923 63.9807 203.03 64.13C203.147 64.2687 203.334 64.3967 203.59 64.514C203.857 64.6207 204.235 64.7273 204.726 64.834C205.451 64.994 206.011 65.17 206.406 65.362C206.811 65.554 207.099 65.7887 207.27 66.066C207.441 66.3433 207.526 66.6953 207.526 67.122C207.526 67.794 207.243 68.338 206.678 68.754C206.113 69.1593 205.366 69.362 204.438 69.362ZM214.522 69.33C214.32 69.33 214.16 69.2713 214.042 69.154C213.925 69.026 213.866 68.8607 213.866 68.658V58.562C213.866 58.3593 213.925 58.1993 214.042 58.082C214.16 57.954 214.32 57.89 214.522 57.89C214.725 57.89 214.885 57.954 215.002 58.082C215.12 58.1993 215.178 58.3593 215.178 58.562V68.658C215.178 68.8607 215.12 69.026 215.002 69.154C214.885 69.2713 214.725 69.33 214.522 69.33ZM221.712 61.266C223.579 61.266 224.512 62.2953 224.512 64.354V68.69C224.512 68.8927 224.453 69.0527 224.336 69.17C224.229 69.2767 224.075 69.33 223.872 69.33C223.669 69.33 223.509 69.2767 223.392 69.17C223.275 69.0527 223.216 68.8927 223.216 68.69V64.434C223.216 63.7087 223.072 63.1807 222.784 62.85C222.507 62.5193 222.059 62.354 221.44 62.354C220.725 62.354 220.155 62.5727 219.728 63.01C219.301 63.4473 219.088 64.0393 219.088 64.786V68.69C219.088 68.8927 219.029 69.0527 218.912 69.17C218.805 69.2767 218.651 69.33 218.448 69.33C218.245 69.33 218.085 69.2767 217.968 69.17C217.851 69.0527 217.792 68.8927 217.792 68.69V61.938C217.792 61.746 217.851 61.5913 217.968 61.474C218.085 61.3567 218.245 61.298 218.448 61.298C218.64 61.298 218.789 61.3567 218.896 61.474C219.013 61.5913 219.072 61.7407 219.072 61.922V62.738C219.328 62.258 219.685 61.8953 220.144 61.65C220.603 61.394 221.125 61.266 221.712 61.266ZM233.166 57.89C233.369 57.89 233.529 57.9487 233.646 58.066C233.763 58.1833 233.822 58.3327 233.822 58.514V68.69C233.822 68.882 233.763 69.0367 233.646 69.154C233.529 69.2713 233.369 69.33 233.166 69.33C232.963 69.33 232.803 69.2713 232.686 69.154C232.579 69.0367 232.526 68.882 232.526 68.69V67.826C232.291 68.3167 231.945 68.6953 231.486 68.962C231.038 69.2287 230.51 69.362 229.902 69.362C229.219 69.362 228.617 69.1913 228.094 68.85C227.571 68.5087 227.166 68.034 226.878 67.426C226.59 66.8073 226.446 66.0927 226.446 65.282C226.446 64.482 226.59 63.778 226.878 63.17C227.166 62.562 227.571 62.0927 228.094 61.762C228.617 61.4313 229.219 61.266 229.902 61.266C230.51 61.266 231.038 61.3993 231.486 61.666C231.945 61.9327 232.291 62.3113 232.526 62.802V58.514C232.526 58.322 232.579 58.1727 232.686 58.066C232.803 57.9487 232.963 57.89 233.166 57.89ZM230.158 68.29C230.915 68.29 231.497 68.034 231.902 67.522C232.318 66.9993 232.526 66.2633 232.526 65.314C232.526 64.3647 232.318 63.634 231.902 63.122C231.497 62.61 230.915 62.354 230.158 62.354C229.401 62.354 228.809 62.61 228.382 63.122C227.966 63.634 227.758 64.354 227.758 65.282C227.758 66.2313 227.966 66.9727 228.382 67.506C228.809 68.0287 229.401 68.29 230.158 68.29ZM239.478 69.362C238.742 69.362 238.092 69.1967 237.526 68.866C236.972 68.5353 236.54 68.066 236.23 67.458C235.932 66.8393 235.782 66.1247 235.782 65.314C235.782 64.5033 235.932 63.794 236.23 63.186C236.54 62.5673 236.972 62.0927 237.526 61.762C238.092 61.4313 238.742 61.266 239.478 61.266C240.214 61.266 240.865 61.4313 241.43 61.762C241.996 62.0927 242.428 62.5673 242.726 63.186C243.036 63.794 243.19 64.5033 243.19 65.314C243.19 66.1247 243.036 66.8393 242.726 67.458C242.428 68.066 241.996 68.5353 241.43 68.866C240.865 69.1967 240.214 69.362 239.478 69.362ZM239.478 68.29C240.246 68.29 240.833 68.0393 241.238 67.538C241.654 67.026 241.862 66.2847 241.862 65.314C241.862 64.3647 241.654 63.634 241.238 63.122C240.822 62.5993 240.236 62.338 239.478 62.338C238.721 62.338 238.134 62.5993 237.718 63.122C237.302 63.634 237.094 64.3647 237.094 65.314C237.094 66.274 237.297 67.01 237.702 67.522C238.118 68.034 238.71 68.29 239.478 68.29ZM249.065 61.266C250.932 61.266 251.865 62.2953 251.865 64.354V68.69C251.865 68.8927 251.807 69.0527 251.689 69.17C251.583 69.2767 251.428 69.33 251.225 69.33C251.023 69.33 250.863 69.2767 250.745 69.17C250.628 69.0527 250.569 68.8927 250.569 68.69V64.434C250.569 63.7087 250.425 63.1807 250.137 62.85C249.86 62.5193 249.412 62.354 248.793 62.354C248.079 62.354 247.508 62.5727 247.081 63.01C246.655 63.4473 246.441 64.0393 246.441 64.786V68.69C246.441 68.8927 246.383 69.0527 246.265 69.17C246.159 69.2767 246.004 69.33 245.801 69.33C245.599 69.33 245.439 69.2767 245.321 69.17C245.204 69.0527 245.145 68.8927 245.145 68.69V61.938C245.145 61.746 245.204 61.5913 245.321 61.474C245.439 61.3567 245.599 61.298 245.801 61.298C245.993 61.298 246.143 61.3567 246.249 61.474C246.367 61.5913 246.425 61.7407 246.425 61.922V62.738C246.681 62.258 247.039 61.8953 247.497 61.65C247.956 61.394 248.479 61.266 249.065 61.266ZM260.295 67.442C260.412 67.442 260.514 67.49 260.599 67.586C260.684 67.682 260.727 67.8047 260.727 67.954C260.727 68.2207 260.54 68.466 260.167 68.69C259.783 68.914 259.378 69.0847 258.951 69.202C258.524 69.3087 258.108 69.362 257.703 69.362C256.498 69.362 255.543 69.0047 254.839 68.29C254.146 67.5753 253.799 66.5887 253.799 65.33C253.799 64.53 253.954 63.826 254.263 63.218C254.572 62.5993 255.004 62.1193 255.559 61.778C256.124 61.4367 256.764 61.266 257.479 61.266C258.492 61.266 259.298 61.5967 259.895 62.258C260.492 62.9193 260.791 63.8153 260.791 64.946C260.791 65.1593 260.748 65.314 260.663 65.41C260.578 65.506 260.439 65.554 260.247 65.554H255.095C255.191 67.3887 256.06 68.306 257.703 68.306C258.119 68.306 258.476 68.2527 258.775 68.146C259.074 68.0287 259.394 67.874 259.735 67.682C260.012 67.522 260.199 67.442 260.295 67.442ZM257.495 62.274C256.812 62.274 256.263 62.4873 255.847 62.914C255.442 63.3407 255.202 63.9433 255.127 64.722H259.655C259.634 63.9327 259.436 63.33 259.063 62.914C258.69 62.4873 258.167 62.274 257.495 62.274ZM265.349 69.362C264.858 69.362 264.389 69.3033 263.941 69.186C263.503 69.0687 263.114 68.9033 262.773 68.69C262.581 68.562 262.442 68.4447 262.357 68.338C262.282 68.2207 262.245 68.082 262.245 67.922C262.245 67.7833 262.282 67.6713 262.357 67.586C262.442 67.49 262.549 67.442 262.677 67.442C262.805 67.442 262.991 67.522 263.237 67.682C263.557 67.874 263.871 68.0287 264.181 68.146C264.501 68.2527 264.895 68.306 265.365 68.306C265.941 68.306 266.389 68.2047 266.709 68.002C267.029 67.7993 267.189 67.506 267.189 67.122C267.189 66.8873 267.13 66.7007 267.013 66.562C266.895 66.4127 266.693 66.2847 266.405 66.178C266.117 66.0607 265.695 65.9433 265.141 65.826C264.202 65.6233 263.53 65.3513 263.125 65.01C262.719 64.6687 262.517 64.2047 262.517 63.618C262.517 63.1593 262.645 62.754 262.901 62.402C263.157 62.05 263.509 61.7727 263.957 61.57C264.415 61.3673 264.933 61.266 265.509 61.266C265.925 61.266 266.325 61.3247 266.709 61.442C267.103 61.5487 267.45 61.7033 267.749 61.906C268.111 62.162 268.293 62.4287 268.293 62.706C268.293 62.8447 268.25 62.962 268.165 63.058C268.079 63.154 267.978 63.202 267.861 63.202C267.733 63.202 267.541 63.1113 267.285 62.93C266.986 62.738 266.703 62.5887 266.437 62.482C266.17 62.3753 265.839 62.322 265.445 62.322C264.943 62.322 264.538 62.434 264.229 62.658C263.93 62.882 263.781 63.1807 263.781 63.554C263.781 63.7887 263.834 63.9807 263.941 64.13C264.058 64.2687 264.245 64.3967 264.501 64.514C264.767 64.6207 265.146 64.7273 265.637 64.834C266.362 64.994 266.922 65.17 267.317 65.362C267.722 65.554 268.01 65.7887 268.181 66.066C268.351 66.3433 268.437 66.6953 268.437 67.122C268.437 67.794 268.154 68.338 267.589 68.754C267.023 69.1593 266.277 69.362 265.349 69.362ZM271.092 69.33C270.9 69.33 270.74 69.2767 270.612 69.17C270.495 69.0527 270.436 68.8927 270.436 68.69V61.938C270.436 61.7353 270.495 61.5807 270.612 61.474C270.74 61.3567 270.9 61.298 271.092 61.298C271.284 61.298 271.439 61.3567 271.556 61.474C271.673 61.5807 271.732 61.7353 271.732 61.938V68.69C271.732 68.9033 271.673 69.0633 271.556 69.17C271.439 69.2767 271.284 69.33 271.092 69.33ZM271.092 59.618C270.836 59.618 270.628 59.5433 270.468 59.394C270.308 59.2447 270.228 59.0473 270.228 58.802C270.228 58.5673 270.308 58.3753 270.468 58.226C270.628 58.0767 270.836 58.002 271.092 58.002C271.348 58.002 271.556 58.0767 271.716 58.226C271.876 58.3753 271.956 58.5673 271.956 58.802C271.956 59.0473 271.876 59.2447 271.716 59.394C271.556 59.5433 271.348 59.618 271.092 59.618ZM277.363 61.266C279.315 61.266 280.291 62.29 280.291 64.338V68.69C280.291 68.882 280.232 69.0367 280.115 69.154C280.008 69.2713 279.859 69.33 279.667 69.33C279.475 69.33 279.32 69.2713 279.203 69.154C279.086 69.0367 279.027 68.882 279.027 68.69V67.922C278.824 68.3807 278.515 68.738 278.099 68.994C277.683 69.2393 277.203 69.362 276.659 69.362C276.158 69.362 275.694 69.2607 275.267 69.058C274.851 68.8553 274.52 68.5727 274.275 68.21C274.03 67.8473 273.907 67.4473 273.907 67.01C273.907 66.4233 274.056 65.97 274.355 65.65C274.654 65.3193 275.144 65.0847 275.827 64.946C276.51 64.7967 277.459 64.722 278.675 64.722H279.027V64.194C279.027 63.554 278.894 63.0847 278.627 62.786C278.371 62.4873 277.95 62.338 277.363 62.338C276.638 62.338 275.902 62.5353 275.155 62.93C274.867 63.1113 274.664 63.202 274.547 63.202C274.419 63.202 274.312 63.154 274.227 63.058C274.142 62.962 274.099 62.8393 274.099 62.69C274.099 62.5407 274.142 62.4127 274.227 62.306C274.323 62.1887 274.472 62.0713 274.675 61.954C275.048 61.7407 275.47 61.5753 275.939 61.458C276.419 61.33 276.894 61.266 277.363 61.266ZM276.835 68.338C277.475 68.338 277.998 68.1247 278.403 67.698C278.819 67.2607 279.027 66.7007 279.027 66.018V65.554H278.739C277.8 65.554 277.086 65.5967 276.595 65.682C276.104 65.7567 275.752 65.89 275.539 66.082C275.336 66.2633 275.235 66.5353 275.235 66.898C275.235 67.314 275.384 67.6607 275.683 67.938C275.992 68.2047 276.376 68.338 276.835 68.338Z" fill="black"/>
</g>
<defs>
<clipPath id="clip0_1778_17253">
<rect width="186" height="48" fill="white" transform="translate(132.875 26.25)"/>
</clipPath>
</defs>
</svg>
