<svg width="319" height="101" viewBox="0 0 319 101" fill="none" xmlns="http://www.w3.org/2000/svg">
<g clip-path="url(#clip0_1778_17253)">
<path d="M147.467 31.21C147.995 31.21 148.419 31.386 148.739 31.738C149.075 32.074 149.243 32.514 149.243 33.058V46.522C149.243 47.082 149.075 47.538 148.739 47.89C148.419 48.226 147.995 48.394 147.467 48.394C146.891 48.394 146.427 48.186 146.075 47.77L138.035 37.474V46.522C138.035 47.082 137.875 47.538 137.555 47.89C137.251 48.226 136.835 48.394 136.307 48.394C135.779 48.394 135.355 48.226 135.035 47.89C134.715 47.538 134.555 47.082 134.555 46.522V33.058C134.555 32.514 134.715 32.074 135.035 31.738C135.371 31.386 135.803 31.21 136.331 31.21C136.923 31.21 137.379 31.418 137.699 31.834L145.739 42.058V33.058C145.739 32.514 145.899 32.074 146.219 31.738C146.539 31.386 146.955 31.21 147.467 31.21ZM154.138 48.394C153.61 48.394 153.17 48.25 152.818 47.962C152.482 47.674 152.314 47.25 152.314 46.69V37.93C152.314 37.37 152.49 36.946 152.842 36.658C153.194 36.37 153.626 36.226 154.138 36.226C154.65 36.226 155.074 36.37 155.41 36.658C155.762 36.946 155.938 37.37 155.938 37.93V46.69C155.938 47.25 155.762 47.674 155.41 47.962C155.074 48.25 154.65 48.394 154.138 48.394ZM154.138 34.306C153.498 34.306 152.994 34.146 152.626 33.826C152.258 33.49 152.074 33.042 152.074 32.482C152.074 31.922 152.258 31.482 152.626 31.162C152.994 30.842 153.498 30.682 154.138 30.682C154.762 30.682 155.258 30.85 155.626 31.186C156.01 31.506 156.202 31.938 156.202 32.482C156.202 33.042 156.018 33.49 155.65 33.826C155.282 34.146 154.778 34.306 154.138 34.306ZM166.104 36.178C167.512 36.178 168.56 36.594 169.248 37.426C169.936 38.242 170.28 39.482 170.28 41.146V46.69C170.28 47.218 170.112 47.634 169.776 47.938C169.456 48.242 169.016 48.394 168.456 48.394C167.896 48.394 167.456 48.242 167.136 47.938C166.816 47.634 166.656 47.218 166.656 46.69V41.314C166.656 40.514 166.504 39.93 166.2 39.562C165.912 39.194 165.456 39.01 164.832 39.01C164.08 39.01 163.472 39.25 163.008 39.73C162.56 40.21 162.336 40.85 162.336 41.65V46.69C162.336 47.218 162.176 47.634 161.856 47.938C161.536 48.242 161.096 48.394 160.536 48.394C159.976 48.394 159.528 48.242 159.192 47.938C158.872 47.634 158.712 47.218 158.712 46.69V37.882C158.712 37.386 158.88 36.986 159.216 36.682C159.568 36.378 160.016 36.226 160.56 36.226C161.056 36.226 161.456 36.378 161.76 36.682C162.08 36.97 162.24 37.346 162.24 37.81V38.146C162.656 37.506 163.192 37.018 163.848 36.682C164.52 36.346 165.272 36.178 166.104 36.178ZM183.042 31.21C183.602 31.21 184.05 31.362 184.386 31.666C184.738 31.97 184.914 32.37 184.914 32.866V46.69C184.914 47.202 184.746 47.618 184.41 47.938C184.09 48.242 183.658 48.394 183.114 48.394C182.57 48.394 182.13 48.242 181.794 47.938C181.474 47.618 181.314 47.202 181.314 46.69V46.498C180.962 47.106 180.458 47.586 179.802 47.938C179.162 48.274 178.434 48.442 177.618 48.442C176.61 48.442 175.706 48.186 174.906 47.674C174.122 47.146 173.506 46.418 173.058 45.49C172.626 44.546 172.41 43.466 172.41 42.25C172.41 41.034 172.626 39.97 173.058 39.058C173.506 38.13 174.122 37.418 174.906 36.922C175.69 36.426 176.594 36.178 177.618 36.178C178.418 36.178 179.138 36.346 179.778 36.682C180.434 37.018 180.938 37.49 181.29 38.098V32.794C181.29 32.314 181.45 31.93 181.77 31.642C182.09 31.354 182.514 31.21 183.042 31.21ZM178.674 45.682C179.522 45.682 180.17 45.394 180.618 44.818C181.082 44.226 181.314 43.386 181.314 42.298C181.314 41.21 181.082 40.378 180.618 39.802C180.17 39.226 179.522 38.938 178.674 38.938C177.826 38.938 177.17 39.226 176.706 39.802C176.242 40.362 176.01 41.178 176.01 42.25C176.01 43.338 176.242 44.186 176.706 44.794C177.17 45.386 177.826 45.682 178.674 45.682ZM189.529 48.394C189.001 48.394 188.561 48.25 188.209 47.962C187.873 47.674 187.705 47.25 187.705 46.69V37.93C187.705 37.37 187.881 36.946 188.233 36.658C188.585 36.37 189.017 36.226 189.529 36.226C190.041 36.226 190.465 36.37 190.801 36.658C191.153 36.946 191.329 37.37 191.329 37.93V46.69C191.329 47.25 191.153 47.674 190.801 47.962C190.465 48.25 190.041 48.394 189.529 48.394ZM189.529 34.306C188.889 34.306 188.385 34.146 188.017 33.826C187.649 33.49 187.465 33.042 187.465 32.482C187.465 31.922 187.649 31.482 188.017 31.162C188.385 30.842 188.889 30.682 189.529 30.682C190.153 30.682 190.649 30.85 191.017 31.186C191.401 31.506 191.593 31.938 191.593 32.482C191.593 33.042 191.409 33.49 191.041 33.826C190.673 34.146 190.169 34.306 189.529 34.306ZM214.798 45.442C215.166 45.81 215.35 46.21 215.35 46.642C215.35 47.09 215.174 47.482 214.822 47.818C214.486 48.154 214.094 48.322 213.646 48.322C213.134 48.322 212.678 48.114 212.278 47.698L204.838 40.426V46.522C204.838 47.098 204.67 47.554 204.334 47.89C203.998 48.226 203.542 48.394 202.966 48.394C202.39 48.394 201.934 48.226 201.598 47.89C201.262 47.554 201.094 47.098 201.094 46.522V33.058C201.094 32.498 201.262 32.05 201.598 31.714C201.934 31.378 202.39 31.21 202.966 31.21C203.542 31.21 203.998 31.378 204.334 31.714C204.67 32.05 204.838 32.498 204.838 33.058V38.794L212.086 31.762C212.438 31.41 212.838 31.234 213.286 31.234C213.734 31.234 214.126 31.402 214.462 31.738C214.798 32.058 214.966 32.442 214.966 32.89C214.966 33.354 214.774 33.77 214.39 34.138L208.678 39.49L214.798 45.442ZM226.365 36.226C226.925 36.226 227.365 36.378 227.685 36.682C228.021 36.986 228.189 37.402 228.189 37.93V46.738C228.189 47.234 228.013 47.634 227.661 47.938C227.325 48.242 226.885 48.394 226.341 48.394C225.829 48.394 225.421 48.25 225.117 47.962C224.813 47.674 224.661 47.29 224.661 46.81V46.57C224.293 47.178 223.805 47.642 223.197 47.962C222.605 48.282 221.933 48.442 221.181 48.442C219.693 48.442 218.581 48.034 217.845 47.218C217.125 46.386 216.765 45.138 216.765 43.474V37.93C216.765 37.402 216.925 36.986 217.245 36.682C217.581 36.378 218.029 36.226 218.589 36.226C219.149 36.226 219.589 36.378 219.909 36.682C220.229 36.986 220.389 37.402 220.389 37.93V43.546C220.389 44.25 220.533 44.77 220.821 45.106C221.125 45.442 221.581 45.61 222.189 45.61C222.893 45.61 223.461 45.37 223.893 44.89C224.341 44.41 224.565 43.778 224.565 42.994V37.93C224.565 37.402 224.725 36.986 225.045 36.682C225.365 36.378 225.805 36.226 226.365 36.226ZM235.434 48.442C234.458 48.442 233.61 48.362 232.89 48.202C232.17 48.042 231.538 47.786 230.994 47.434C230.754 47.29 230.57 47.098 230.442 46.858C230.314 46.618 230.25 46.346 230.25 46.042C230.25 45.674 230.354 45.37 230.562 45.13C230.77 44.874 231.026 44.746 231.33 44.746C231.538 44.746 231.746 44.786 231.954 44.866C232.162 44.93 232.378 45.01 232.602 45.106C233.05 45.314 233.49 45.482 233.922 45.61C234.354 45.722 234.89 45.778 235.53 45.778C236.09 45.778 236.522 45.69 236.826 45.514C237.146 45.338 237.306 45.098 237.306 44.794C237.306 44.57 237.234 44.394 237.09 44.266C236.962 44.122 236.714 43.994 236.346 43.882C235.978 43.77 235.394 43.634 234.594 43.474C233.17 43.202 232.146 42.794 231.522 42.25C230.898 41.706 230.586 40.946 230.586 39.97C230.586 39.25 230.802 38.602 231.234 38.026C231.682 37.45 232.29 37.002 233.058 36.682C233.826 36.346 234.69 36.178 235.65 36.178C236.338 36.178 237.01 36.266 237.666 36.442C238.322 36.618 238.906 36.866 239.418 37.186C239.914 37.49 240.162 37.938 240.162 38.53C240.162 38.914 240.058 39.234 239.85 39.49C239.642 39.746 239.386 39.874 239.082 39.874C238.714 39.874 238.274 39.73 237.762 39.442C237.362 39.234 236.994 39.082 236.658 38.986C236.338 38.874 235.954 38.818 235.506 38.818C235.01 38.818 234.618 38.914 234.33 39.106C234.042 39.282 233.898 39.53 233.898 39.85C233.898 40.186 234.066 40.442 234.402 40.618C234.738 40.794 235.386 40.97 236.346 41.146C237.418 41.354 238.258 41.61 238.866 41.914C239.474 42.202 239.914 42.57 240.186 43.018C240.458 43.466 240.594 44.034 240.594 44.722C240.594 45.858 240.122 46.762 239.178 47.434C238.25 48.106 237.002 48.442 235.434 48.442ZM252.193 36.226C252.753 36.226 253.193 36.378 253.513 36.682C253.849 36.986 254.017 37.402 254.017 37.93V46.738C254.017 47.234 253.841 47.634 253.489 47.938C253.153 48.242 252.713 48.394 252.169 48.394C251.657 48.394 251.249 48.25 250.945 47.962C250.641 47.674 250.489 47.29 250.489 46.81V46.57C250.121 47.178 249.633 47.642 249.025 47.962C248.433 48.282 247.761 48.442 247.009 48.442C245.521 48.442 244.409 48.034 243.673 47.218C242.953 46.386 242.593 45.138 242.593 43.474V37.93C242.593 37.402 242.753 36.986 243.073 36.682C243.409 36.378 243.857 36.226 244.417 36.226C244.977 36.226 245.417 36.378 245.737 36.682C246.057 36.986 246.217 37.402 246.217 37.93V43.546C246.217 44.25 246.361 44.77 246.649 45.106C246.953 45.442 247.409 45.61 248.017 45.61C248.721 45.61 249.289 45.37 249.721 44.89C250.169 44.41 250.393 43.778 250.393 42.994V37.93C250.393 37.402 250.553 36.986 250.873 36.682C251.193 36.378 251.633 36.226 252.193 36.226ZM271.318 36.178C272.598 36.178 273.582 36.57 274.27 37.354C274.958 38.122 275.302 39.386 275.302 41.146V46.69C275.302 47.25 275.134 47.674 274.798 47.962C274.462 48.25 274.03 48.394 273.502 48.394C272.99 48.394 272.558 48.25 272.206 47.962C271.854 47.674 271.678 47.25 271.678 46.69V41.098C271.678 40.33 271.542 39.794 271.27 39.49C271.014 39.17 270.614 39.01 270.07 39.01C269.398 39.01 268.862 39.242 268.462 39.706C268.062 40.17 267.862 40.818 267.862 41.65V46.69C267.862 47.25 267.694 47.674 267.358 47.962C267.022 48.25 266.59 48.394 266.062 48.394C265.55 48.394 265.118 48.25 264.766 47.962C264.414 47.674 264.238 47.25 264.238 46.69V41.098C264.238 40.33 264.102 39.794 263.83 39.49C263.574 39.17 263.174 39.01 262.63 39.01C261.958 39.01 261.422 39.242 261.022 39.706C260.622 40.17 260.422 40.818 260.422 41.65V46.69C260.422 47.25 260.246 47.674 259.894 47.962C259.558 48.25 259.134 48.394 258.622 48.394C258.11 48.394 257.678 48.25 257.326 47.962C256.974 47.674 256.798 47.25 256.798 46.69V37.882C256.798 37.354 256.974 36.946 257.326 36.658C257.694 36.37 258.134 36.226 258.646 36.226C259.126 36.226 259.526 36.37 259.846 36.658C260.166 36.93 260.326 37.314 260.326 37.81V38.05C260.71 37.442 261.206 36.978 261.814 36.658C262.438 36.338 263.142 36.178 263.926 36.178C264.774 36.178 265.486 36.354 266.062 36.706C266.654 37.042 267.11 37.594 267.43 38.362C267.798 37.69 268.318 37.162 268.99 36.778C269.678 36.378 270.454 36.178 271.318 36.178ZM283.337 36.178C285.065 36.178 286.345 36.602 287.177 37.45C288.009 38.282 288.425 39.562 288.425 41.29V46.714C288.425 47.242 288.273 47.658 287.969 47.962C287.665 48.25 287.241 48.394 286.697 48.394C286.185 48.394 285.769 48.242 285.449 47.938C285.145 47.618 284.993 47.21 284.993 46.714V46.546C284.753 47.138 284.353 47.602 283.793 47.938C283.233 48.274 282.577 48.442 281.825 48.442C281.025 48.442 280.297 48.282 279.641 47.962C279.001 47.642 278.489 47.194 278.105 46.618C277.737 46.042 277.553 45.402 277.553 44.698C277.553 43.834 277.769 43.154 278.201 42.658C278.649 42.162 279.361 41.802 280.337 41.578C281.313 41.354 282.649 41.242 284.345 41.242H284.969V40.81C284.969 40.138 284.817 39.65 284.513 39.346C284.225 39.042 283.737 38.89 283.049 38.89C282.361 38.89 281.369 39.13 280.073 39.61C279.705 39.786 279.393 39.874 279.137 39.874C278.785 39.874 278.505 39.754 278.297 39.514C278.089 39.258 277.985 38.93 277.985 38.53C277.985 38.21 278.057 37.946 278.201 37.738C278.345 37.53 278.577 37.338 278.897 37.162C279.457 36.858 280.137 36.618 280.937 36.442C281.753 36.266 282.553 36.178 283.337 36.178ZM282.617 45.946C283.321 45.946 283.889 45.714 284.321 45.25C284.753 44.77 284.969 44.154 284.969 43.402V42.994H284.561C283.265 42.994 282.353 43.098 281.825 43.306C281.313 43.514 281.057 43.89 281.057 44.434C281.057 44.882 281.201 45.25 281.489 45.538C281.793 45.81 282.169 45.946 282.617 45.946Z" fill="black"/>
<path d="M142.379 68.258C142.528 68.3967 142.603 68.5513 142.603 68.722C142.603 68.8713 142.539 69.01 142.411 69.138C142.294 69.2553 142.155 69.314 141.995 69.314C141.856 69.314 141.712 69.25 141.563 69.122L135.579 63.89V68.658C135.579 68.8607 135.52 69.026 135.403 69.154C135.286 69.2713 135.126 69.33 134.923 69.33C134.72 69.33 134.56 69.2713 134.443 69.154C134.326 69.026 134.267 68.8607 134.267 68.658V58.562C134.267 58.3593 134.326 58.1993 134.443 58.082C134.56 57.954 134.72 57.89 134.923 57.89C135.126 57.89 135.286 57.954 135.403 58.082C135.52 58.1993 135.579 58.3593 135.579 58.562V63.154L141.291 58.082C141.408 57.9647 141.547 57.906 141.707 57.906C141.867 57.906 142.006 57.97 142.123 58.098C142.24 58.2153 142.299 58.3487 142.299 58.498C142.299 58.658 142.23 58.8073 142.091 58.946L136.923 63.49L142.379 68.258ZM147.3 69.362C146.564 69.362 145.913 69.1967 145.348 68.866C144.793 68.5353 144.361 68.066 144.052 67.458C143.753 66.8393 143.604 66.1247 143.604 65.314C143.604 64.5033 143.753 63.794 144.052 63.186C144.361 62.5673 144.793 62.0927 145.348 61.762C145.913 61.4313 146.564 61.266 147.3 61.266C148.036 61.266 148.686 61.4313 149.252 61.762C149.817 62.0927 150.249 62.5673 150.548 63.186C150.857 63.794 151.012 64.5033 151.012 65.314C151.012 66.1247 150.857 66.8393 150.548 67.458C150.249 68.066 149.817 68.5353 149.252 68.866C148.686 69.1967 148.036 69.362 147.3 69.362ZM147.3 68.29C148.068 68.29 148.654 68.0393 149.06 67.538C149.476 67.026 149.684 66.2847 149.684 65.314C149.684 64.3647 149.476 63.634 149.06 63.122C148.644 62.5993 148.057 62.338 147.3 62.338C146.542 62.338 145.956 62.5993 145.54 63.122C145.124 63.634 144.916 64.3647 144.916 65.314C144.916 66.274 145.118 67.01 145.524 67.522C145.94 68.034 146.532 68.29 147.3 68.29ZM161.639 61.266C163.367 61.266 164.231 62.2953 164.231 64.354V68.69C164.231 68.8927 164.172 69.0527 164.055 69.17C163.937 69.2767 163.783 69.33 163.591 69.33C163.399 69.33 163.239 69.2767 163.111 69.17C162.993 69.0527 162.935 68.8927 162.935 68.69V64.386C162.935 63.6713 162.807 63.154 162.551 62.834C162.295 62.514 161.895 62.354 161.351 62.354C160.7 62.354 160.188 62.5727 159.815 63.01C159.441 63.4473 159.255 64.0393 159.255 64.786V68.69C159.255 68.8927 159.191 69.0527 159.063 69.17C158.945 69.2767 158.791 69.33 158.599 69.33C158.407 69.33 158.252 69.2767 158.135 69.17C158.017 69.0527 157.959 68.8927 157.959 68.69V64.386C157.959 63.6713 157.831 63.154 157.575 62.834C157.319 62.514 156.913 62.354 156.359 62.354C155.719 62.354 155.207 62.5727 154.823 63.01C154.449 63.4473 154.263 64.0393 154.263 64.786V68.69C154.263 68.8927 154.204 69.0527 154.087 69.17C153.969 69.2767 153.815 69.33 153.623 69.33C153.431 69.33 153.271 69.2767 153.143 69.17C153.025 69.0527 152.967 68.8927 152.967 68.69V61.938C152.967 61.746 153.025 61.5913 153.143 61.474C153.271 61.3567 153.431 61.298 153.623 61.298C153.804 61.298 153.953 61.3567 154.071 61.474C154.188 61.5807 154.247 61.73 154.247 61.922V62.69C154.481 62.2313 154.807 61.8793 155.223 61.634C155.639 61.3887 156.119 61.266 156.663 61.266C157.879 61.266 158.673 61.778 159.047 62.802C159.271 62.3327 159.612 61.9593 160.071 61.682C160.529 61.4047 161.052 61.266 161.639 61.266ZM167.272 69.33C167.08 69.33 166.92 69.2767 166.792 69.17C166.674 69.0527 166.616 68.8927 166.616 68.69V61.938C166.616 61.7353 166.674 61.5807 166.792 61.474C166.92 61.3567 167.08 61.298 167.272 61.298C167.464 61.298 167.618 61.3567 167.736 61.474C167.853 61.5807 167.912 61.7353 167.912 61.938V68.69C167.912 68.9033 167.853 69.0633 167.736 69.17C167.618 69.2767 167.464 69.33 167.272 69.33ZM167.272 59.618C167.016 59.618 166.808 59.5433 166.648 59.394C166.488 59.2447 166.408 59.0473 166.408 58.802C166.408 58.5673 166.488 58.3753 166.648 58.226C166.808 58.0767 167.016 58.002 167.272 58.002C167.528 58.002 167.736 58.0767 167.896 58.226C168.056 58.3753 168.136 58.5673 168.136 58.802C168.136 59.0473 168.056 59.2447 167.896 59.394C167.736 59.5433 167.528 59.618 167.272 59.618ZM172.983 69.362C172.492 69.362 172.023 69.3033 171.575 69.186C171.137 69.0687 170.748 68.9033 170.407 68.69C170.215 68.562 170.076 68.4447 169.991 68.338C169.916 68.2207 169.879 68.082 169.879 67.922C169.879 67.7833 169.916 67.6713 169.991 67.586C170.076 67.49 170.183 67.442 170.311 67.442C170.439 67.442 170.625 67.522 170.871 67.682C171.191 67.874 171.505 68.0287 171.815 68.146C172.135 68.2527 172.529 68.306 172.999 68.306C173.575 68.306 174.023 68.2047 174.343 68.002C174.663 67.7993 174.823 67.506 174.823 67.122C174.823 66.8873 174.764 66.7007 174.647 66.562C174.529 66.4127 174.327 66.2847 174.039 66.178C173.751 66.0607 173.329 65.9433 172.775 65.826C171.836 65.6233 171.164 65.3513 170.759 65.01C170.353 64.6687 170.151 64.2047 170.151 63.618C170.151 63.1593 170.279 62.754 170.535 62.402C170.791 62.05 171.143 61.7727 171.591 61.57C172.049 61.3673 172.567 61.266 173.143 61.266C173.559 61.266 173.959 61.3247 174.343 61.442C174.737 61.5487 175.084 61.7033 175.383 61.906C175.745 62.162 175.927 62.4287 175.927 62.706C175.927 62.8447 175.884 62.962 175.799 63.058C175.713 63.154 175.612 63.202 175.495 63.202C175.367 63.202 175.175 63.1113 174.919 62.93C174.62 62.738 174.337 62.5887 174.071 62.482C173.804 62.3753 173.473 62.322 173.079 62.322C172.577 62.322 172.172 62.434 171.863 62.658C171.564 62.882 171.415 63.1807 171.415 63.554C171.415 63.7887 171.468 63.9807 171.575 64.13C171.692 64.2687 171.879 64.3967 172.135 64.514C172.401 64.6207 172.78 64.7273 173.271 64.834C173.996 64.994 174.556 65.17 174.951 65.362C175.356 65.554 175.644 65.7887 175.815 66.066C175.985 66.3433 176.071 66.6953 176.071 67.122C176.071 67.794 175.788 68.338 175.223 68.754C174.657 69.1593 173.911 69.362 172.983 69.362ZM181.254 61.266C183.206 61.266 184.182 62.29 184.182 64.338V68.69C184.182 68.882 184.123 69.0367 184.006 69.154C183.899 69.2713 183.75 69.33 183.558 69.33C183.366 69.33 183.211 69.2713 183.094 69.154C182.977 69.0367 182.918 68.882 182.918 68.69V67.922C182.715 68.3807 182.406 68.738 181.99 68.994C181.574 69.2393 181.094 69.362 180.55 69.362C180.049 69.362 179.585 69.2607 179.158 69.058C178.742 68.8553 178.411 68.5727 178.166 68.21C177.921 67.8473 177.798 67.4473 177.798 67.01C177.798 66.4233 177.947 65.97 178.246 65.65C178.545 65.3193 179.035 65.0847 179.718 64.946C180.401 64.7967 181.35 64.722 182.566 64.722H182.918V64.194C182.918 63.554 182.785 63.0847 182.518 62.786C182.262 62.4873 181.841 62.338 181.254 62.338C180.529 62.338 179.793 62.5353 179.046 62.93C178.758 63.1113 178.555 63.202 178.438 63.202C178.31 63.202 178.203 63.154 178.118 63.058C178.033 62.962 177.99 62.8393 177.99 62.69C177.99 62.5407 178.033 62.4127 178.118 62.306C178.214 62.1887 178.363 62.0713 178.566 61.954C178.939 61.7407 179.361 61.5753 179.83 61.458C180.31 61.33 180.785 61.266 181.254 61.266ZM180.726 68.338C181.366 68.338 181.889 68.1247 182.294 67.698C182.71 67.2607 182.918 66.7007 182.918 66.018V65.554H182.63C181.691 65.554 180.977 65.5967 180.486 65.682C179.995 65.7567 179.643 65.89 179.43 66.082C179.227 66.2633 179.126 66.5353 179.126 66.898C179.126 67.314 179.275 67.6607 179.574 67.938C179.883 68.2047 180.267 68.338 180.726 68.338ZM190.434 61.298C190.882 61.266 191.106 61.4473 191.106 61.842C191.106 62.0127 191.058 62.1513 190.962 62.258C190.866 62.354 190.701 62.4127 190.466 62.434L189.986 62.482C189.272 62.546 188.738 62.802 188.386 63.25C188.045 63.6873 187.874 64.2047 187.874 64.802V68.69C187.874 68.9033 187.816 69.0633 187.698 69.17C187.581 69.2767 187.426 69.33 187.234 69.33C187.042 69.33 186.882 69.2767 186.754 69.17C186.637 69.0527 186.578 68.8927 186.578 68.69V61.938C186.578 61.7353 186.642 61.5807 186.77 61.474C186.898 61.3567 187.053 61.298 187.234 61.298C187.405 61.298 187.549 61.3567 187.666 61.474C187.784 61.5807 187.842 61.73 187.842 61.922V62.818C188.066 62.3487 188.381 61.9913 188.786 61.746C189.202 61.5007 189.677 61.3567 190.21 61.314L190.434 61.298ZM192.899 69.33C192.707 69.33 192.547 69.2767 192.419 69.17C192.302 69.0527 192.243 68.8927 192.243 68.69V61.938C192.243 61.7353 192.302 61.5807 192.419 61.474C192.547 61.3567 192.707 61.298 192.899 61.298C193.091 61.298 193.246 61.3567 193.363 61.474C193.48 61.5807 193.539 61.7353 193.539 61.938V68.69C193.539 68.9033 193.48 69.0633 193.363 69.17C193.246 69.2767 193.091 69.33 192.899 69.33ZM192.899 59.618C192.643 59.618 192.435 59.5433 192.275 59.394C192.115 59.2447 192.035 59.0473 192.035 58.802C192.035 58.5673 192.115 58.3753 192.275 58.226C192.435 58.0767 192.643 58.002 192.899 58.002C193.155 58.002 193.363 58.0767 193.523 58.226C193.683 58.3753 193.763 58.5673 193.763 58.802C193.763 59.0473 193.683 59.2447 193.523 59.394C193.363 59.5433 193.155 59.618 192.899 59.618ZM198.61 69.362C198.119 69.362 197.65 69.3033 197.202 69.186C196.764 69.0687 196.375 68.9033 196.034 68.69C195.842 68.562 195.703 68.4447 195.618 68.338C195.543 68.2207 195.506 68.082 195.506 67.922C195.506 67.7833 195.543 67.6713 195.618 67.586C195.703 67.49 195.81 67.442 195.938 67.442C196.066 67.442 196.252 67.522 196.498 67.682C196.818 67.874 197.132 68.0287 197.442 68.146C197.762 68.2527 198.156 68.306 198.626 68.306C199.202 68.306 199.65 68.2047 199.97 68.002C200.29 67.7993 200.45 67.506 200.45 67.122C200.45 66.8873 200.391 66.7007 200.274 66.562C200.156 66.4127 199.954 66.2847 199.666 66.178C199.378 66.0607 198.956 65.9433 198.402 65.826C197.463 65.6233 196.791 65.3513 196.386 65.01C195.98 64.6687 195.778 64.2047 195.778 63.618C195.778 63.1593 195.906 62.754 196.162 62.402C196.418 62.05 196.77 61.7727 197.218 61.57C197.676 61.3673 198.194 61.266 198.77 61.266C199.186 61.266 199.586 61.3247 199.97 61.442C200.364 61.5487 200.711 61.7033 201.01 61.906C201.372 62.162 201.554 62.4287 201.554 62.706C201.554 62.8447 201.511 62.962 201.426 63.058C201.34 63.154 201.239 63.202 201.122 63.202C200.994 63.202 200.802 63.1113 200.546 62.93C200.247 62.738 199.964 62.5887 199.698 62.482C199.431 62.3753 199.1 62.322 198.706 62.322C198.204 62.322 197.799 62.434 197.49 62.658C197.191 62.882 197.042 63.1807 197.042 63.554C197.042 63.7887 197.095 63.9807 197.202 64.13C197.319 64.2687 197.506 64.3967 197.762 64.514C198.028 64.6207 198.407 64.7273 198.898 64.834C199.623 64.994 200.183 65.17 200.578 65.362C200.983 65.554 201.271 65.7887 201.442 66.066C201.612 66.3433 201.698 66.6953 201.698 67.122C201.698 67.794 201.415 68.338 200.85 68.754C200.284 69.1593 199.538 69.362 198.61 69.362ZM215.094 58.146C215.222 57.986 215.377 57.906 215.558 57.906C215.708 57.906 215.841 57.9647 215.958 58.082C216.076 58.1993 216.134 58.3433 216.134 58.514C216.134 58.674 216.086 58.8073 215.99 58.914L212.102 63.826V68.658C212.102 68.8713 212.038 69.0367 211.91 69.154C211.793 69.2713 211.638 69.33 211.446 69.33C211.254 69.33 211.094 69.2713 210.966 69.154C210.849 69.0367 210.79 68.8713 210.79 68.658V63.81L206.902 58.914C206.796 58.7967 206.742 58.6633 206.742 58.514C206.742 58.3433 206.801 58.1993 206.918 58.082C207.046 57.9647 207.19 57.906 207.35 57.906C207.532 57.906 207.686 57.986 207.814 58.146L211.462 62.802L215.094 58.146ZM218.136 69.33C217.944 69.33 217.784 69.2767 217.656 69.17C217.538 69.0527 217.48 68.8927 217.48 68.69V58.53C217.48 58.3273 217.538 58.1727 217.656 58.066C217.784 57.9487 217.944 57.89 218.136 57.89C218.317 57.89 218.466 57.9487 218.584 58.066C218.712 58.1727 218.776 58.3273 218.776 58.53V68.69C218.776 68.8927 218.712 69.0527 218.584 69.17C218.466 69.2767 218.317 69.33 218.136 69.33ZM224.406 61.266C226.358 61.266 227.334 62.29 227.334 64.338V68.69C227.334 68.882 227.276 69.0367 227.158 69.154C227.052 69.2713 226.902 69.33 226.71 69.33C226.518 69.33 226.364 69.2713 226.246 69.154C226.129 69.0367 226.07 68.882 226.07 68.69V67.922C225.868 68.3807 225.558 68.738 225.142 68.994C224.726 69.2393 224.246 69.362 223.702 69.362C223.201 69.362 222.737 69.2607 222.31 69.058C221.894 68.8553 221.564 68.5727 221.318 68.21C221.073 67.8473 220.95 67.4473 220.95 67.01C220.95 66.4233 221.1 65.97 221.398 65.65C221.697 65.3193 222.188 65.0847 222.87 64.946C223.553 64.7967 224.502 64.722 225.718 64.722H226.07V64.194C226.07 63.554 225.937 63.0847 225.67 62.786C225.414 62.4873 224.993 62.338 224.406 62.338C223.681 62.338 222.945 62.5353 222.198 62.93C221.91 63.1113 221.708 63.202 221.59 63.202C221.462 63.202 221.356 63.154 221.27 63.058C221.185 62.962 221.142 62.8393 221.142 62.69C221.142 62.5407 221.185 62.4127 221.27 62.306C221.366 62.1887 221.516 62.0713 221.718 61.954C222.092 61.7407 222.513 61.5753 222.982 61.458C223.462 61.33 223.937 61.266 224.406 61.266ZM223.878 68.338C224.518 68.338 225.041 68.1247 225.446 67.698C225.862 67.2607 226.07 66.7007 226.07 66.018V65.554H225.782C224.844 65.554 224.129 65.5967 223.638 65.682C223.148 65.7567 222.796 65.89 222.582 66.082C222.38 66.2633 222.278 66.5353 222.278 66.898C222.278 67.314 222.428 67.6607 222.726 67.938C223.036 68.2047 223.42 68.338 223.878 68.338ZM233.651 61.266C234.333 61.266 234.936 61.4313 235.459 61.762C235.981 62.0927 236.387 62.562 236.675 63.17C236.963 63.778 237.107 64.482 237.107 65.282C237.107 66.0927 236.963 66.8073 236.675 67.426C236.387 68.034 235.981 68.5087 235.459 68.85C234.936 69.1913 234.333 69.362 233.651 69.362C233.043 69.362 232.509 69.2287 232.051 68.962C231.603 68.6953 231.261 68.3167 231.027 67.826V68.69C231.027 68.882 230.968 69.0367 230.851 69.154C230.744 69.2713 230.589 69.33 230.387 69.33C230.184 69.33 230.024 69.2713 229.907 69.154C229.789 69.0367 229.731 68.882 229.731 68.69V58.514C229.731 58.3327 229.789 58.1833 229.907 58.066C230.024 57.9487 230.184 57.89 230.387 57.89C230.589 57.89 230.744 57.9487 230.851 58.066C230.968 58.1727 231.027 58.322 231.027 58.514V62.802C231.261 62.3113 231.603 61.9327 232.051 61.666C232.509 61.3993 233.043 61.266 233.651 61.266ZM233.395 68.29C234.152 68.29 234.739 68.0287 235.155 67.506C235.571 66.9727 235.779 66.2313 235.779 65.282C235.779 64.354 235.571 63.634 235.155 63.122C234.739 62.61 234.152 62.354 233.395 62.354C232.637 62.354 232.051 62.61 231.635 63.122C231.229 63.634 231.027 64.3647 231.027 65.314C231.027 66.2633 231.229 66.9993 231.635 67.522C232.051 68.034 232.637 68.29 233.395 68.29ZM241.691 69.362C241.201 69.362 240.731 69.3033 240.283 69.186C239.846 69.0687 239.457 68.9033 239.115 68.69C238.923 68.562 238.785 68.4447 238.699 68.338C238.625 68.2207 238.587 68.082 238.587 67.922C238.587 67.7833 238.625 67.6713 238.699 67.586C238.785 67.49 238.891 67.442 239.019 67.442C239.147 67.442 239.334 67.522 239.579 67.682C239.899 67.874 240.214 68.0287 240.523 68.146C240.843 68.2527 241.238 68.306 241.707 68.306C242.283 68.306 242.731 68.2047 243.051 68.002C243.371 67.7993 243.531 67.506 243.531 67.122C243.531 66.8873 243.473 66.7007 243.355 66.562C243.238 66.4127 243.035 66.2847 242.747 66.178C242.459 66.0607 242.038 65.9433 241.483 65.826C240.545 65.6233 239.873 65.3513 239.467 65.01C239.062 64.6687 238.859 64.2047 238.859 63.618C238.859 63.1593 238.987 62.754 239.243 62.402C239.499 62.05 239.851 61.7727 240.299 61.57C240.758 61.3673 241.275 61.266 241.851 61.266C242.267 61.266 242.667 61.3247 243.051 61.442C243.446 61.5487 243.793 61.7033 244.091 61.906C244.454 62.162 244.635 62.4287 244.635 62.706C244.635 62.8447 244.593 62.962 244.507 63.058C244.422 63.154 244.321 63.202 244.203 63.202C244.075 63.202 243.883 63.1113 243.627 62.93C243.329 62.738 243.046 62.5887 242.779 62.482C242.513 62.3753 242.182 62.322 241.787 62.322C241.286 62.322 240.881 62.434 240.571 62.658C240.273 62.882 240.123 63.1807 240.123 63.554C240.123 63.7887 240.177 63.9807 240.283 64.13C240.401 64.2687 240.587 64.3967 240.843 64.514C241.11 64.6207 241.489 64.7273 241.979 64.834C242.705 64.994 243.265 65.17 243.659 65.362C244.065 65.554 244.353 65.7887 244.523 66.066C244.694 66.3433 244.779 66.6953 244.779 67.122C244.779 67.794 244.497 68.338 243.931 68.754C243.366 69.1593 242.619 69.362 241.691 69.362ZM251.776 69.33C251.573 69.33 251.413 69.2713 251.296 69.154C251.178 69.026 251.12 68.8607 251.12 68.658V58.562C251.12 58.3593 251.178 58.1993 251.296 58.082C251.413 57.954 251.573 57.89 251.776 57.89C251.978 57.89 252.138 57.954 252.256 58.082C252.373 58.1993 252.432 58.3593 252.432 58.562V68.658C252.432 68.8607 252.373 69.026 252.256 69.154C252.138 69.2713 251.978 69.33 251.776 69.33ZM258.965 61.266C260.832 61.266 261.765 62.2953 261.765 64.354V68.69C261.765 68.8927 261.707 69.0527 261.589 69.17C261.483 69.2767 261.328 69.33 261.125 69.33C260.923 69.33 260.763 69.2767 260.645 69.17C260.528 69.0527 260.469 68.8927 260.469 68.69V64.434C260.469 63.7087 260.325 63.1807 260.037 62.85C259.76 62.5193 259.312 62.354 258.693 62.354C257.979 62.354 257.408 62.5727 256.981 63.01C256.555 63.4473 256.341 64.0393 256.341 64.786V68.69C256.341 68.8927 256.283 69.0527 256.165 69.17C256.059 69.2767 255.904 69.33 255.701 69.33C255.499 69.33 255.339 69.2767 255.221 69.17C255.104 69.0527 255.045 68.8927 255.045 68.69V61.938C255.045 61.746 255.104 61.5913 255.221 61.474C255.339 61.3567 255.499 61.298 255.701 61.298C255.893 61.298 256.043 61.3567 256.149 61.474C256.267 61.5913 256.325 61.7407 256.325 61.922V62.738C256.581 62.258 256.939 61.8953 257.397 61.65C257.856 61.394 258.379 61.266 258.965 61.266ZM270.419 57.89C270.622 57.89 270.782 57.9487 270.899 58.066C271.017 58.1833 271.075 58.3327 271.075 58.514V68.69C271.075 68.882 271.017 69.0367 270.899 69.154C270.782 69.2713 270.622 69.33 270.419 69.33C270.217 69.33 270.057 69.2713 269.939 69.154C269.833 69.0367 269.779 68.882 269.779 68.69V67.826C269.545 68.3167 269.198 68.6953 268.739 68.962C268.291 69.2287 267.763 69.362 267.155 69.362C266.473 69.362 265.87 69.1913 265.347 68.85C264.825 68.5087 264.419 68.034 264.131 67.426C263.843 66.8073 263.699 66.0927 263.699 65.282C263.699 64.482 263.843 63.778 264.131 63.17C264.419 62.562 264.825 62.0927 265.347 61.762C265.87 61.4313 266.473 61.266 267.155 61.266C267.763 61.266 268.291 61.3993 268.739 61.666C269.198 61.9327 269.545 62.3113 269.779 62.802V58.514C269.779 58.322 269.833 58.1727 269.939 58.066C270.057 57.9487 270.217 57.89 270.419 57.89ZM267.411 68.29C268.169 68.29 268.75 68.034 269.155 67.522C269.571 66.9993 269.779 66.2633 269.779 65.314C269.779 64.3647 269.571 63.634 269.155 63.122C268.75 62.61 268.169 62.354 267.411 62.354C266.654 62.354 266.062 62.61 265.635 63.122C265.219 63.634 265.011 64.354 265.011 65.282C265.011 66.2313 265.219 66.9727 265.635 67.506C266.062 68.0287 266.654 68.29 267.411 68.29ZM276.732 69.362C275.996 69.362 275.345 69.1967 274.78 68.866C274.225 68.5353 273.793 68.066 273.484 67.458C273.185 66.8393 273.036 66.1247 273.036 65.314C273.036 64.5033 273.185 63.794 273.484 63.186C273.793 62.5673 274.225 62.0927 274.78 61.762C275.345 61.4313 275.996 61.266 276.732 61.266C277.468 61.266 278.118 61.4313 278.684 61.762C279.249 62.0927 279.681 62.5673 279.98 63.186C280.289 63.794 280.444 64.5033 280.444 65.314C280.444 66.1247 280.289 66.8393 279.98 67.458C279.681 68.066 279.249 68.5353 278.684 68.866C278.118 69.1967 277.468 69.362 276.732 69.362ZM276.732 68.29C277.5 68.29 278.086 68.0393 278.492 67.538C278.908 67.026 279.116 66.2847 279.116 65.314C279.116 64.3647 278.908 63.634 278.492 63.122C278.076 62.5993 277.489 62.338 276.732 62.338C275.974 62.338 275.388 62.5993 274.972 63.122C274.556 63.634 274.348 64.3647 274.348 65.314C274.348 66.274 274.55 67.01 274.956 67.522C275.372 68.034 275.964 68.29 276.732 68.29ZM286.319 61.266C288.185 61.266 289.119 62.2953 289.119 64.354V68.69C289.119 68.8927 289.06 69.0527 288.943 69.17C288.836 69.2767 288.681 69.33 288.479 69.33C288.276 69.33 288.116 69.2767 287.999 69.17C287.881 69.0527 287.823 68.8927 287.823 68.69V64.434C287.823 63.7087 287.679 63.1807 287.391 62.85C287.113 62.5193 286.665 62.354 286.047 62.354C285.332 62.354 284.761 62.5727 284.335 63.01C283.908 63.4473 283.695 64.0393 283.695 64.786V68.69C283.695 68.8927 283.636 69.0527 283.519 69.17C283.412 69.2767 283.257 69.33 283.055 69.33C282.852 69.33 282.692 69.2767 282.575 69.17C282.457 69.0527 282.399 68.8927 282.399 68.69V61.938C282.399 61.746 282.457 61.5913 282.575 61.474C282.692 61.3567 282.852 61.298 283.055 61.298C283.247 61.298 283.396 61.3567 283.503 61.474C283.62 61.5913 283.679 61.7407 283.679 61.922V62.738C283.935 62.258 284.292 61.8953 284.751 61.65C285.209 61.394 285.732 61.266 286.319 61.266ZM297.548 67.442C297.666 67.442 297.767 67.49 297.852 67.586C297.938 67.682 297.98 67.8047 297.98 67.954C297.98 68.2207 297.794 68.466 297.42 68.69C297.036 68.914 296.631 69.0847 296.204 69.202C295.778 69.3087 295.362 69.362 294.956 69.362C293.751 69.362 292.796 69.0047 292.092 68.29C291.399 67.5753 291.052 66.5887 291.052 65.33C291.052 64.53 291.207 63.826 291.516 63.218C291.826 62.5993 292.258 62.1193 292.812 61.778C293.378 61.4367 294.018 61.266 294.732 61.266C295.746 61.266 296.551 61.5967 297.148 62.258C297.746 62.9193 298.044 63.8153 298.044 64.946C298.044 65.1593 298.002 65.314 297.916 65.41C297.831 65.506 297.692 65.554 297.5 65.554H292.348C292.444 67.3887 293.314 68.306 294.956 68.306C295.372 68.306 295.73 68.2527 296.028 68.146C296.327 68.0287 296.647 67.874 296.988 67.682C297.266 67.522 297.452 67.442 297.548 67.442ZM294.748 62.274C294.066 62.274 293.516 62.4873 293.1 62.914C292.695 63.3407 292.455 63.9433 292.38 64.722H296.908C296.887 63.9327 296.69 63.33 296.316 62.914C295.943 62.4873 295.42 62.274 294.748 62.274ZM302.602 69.362C302.111 69.362 301.642 69.3033 301.194 69.186C300.757 69.0687 300.367 68.9033 300.026 68.69C299.834 68.562 299.695 68.4447 299.61 68.338C299.535 68.2207 299.498 68.082 299.498 67.922C299.498 67.7833 299.535 67.6713 299.61 67.586C299.695 67.49 299.802 67.442 299.93 67.442C300.058 67.442 300.245 67.522 300.49 67.682C300.81 67.874 301.125 68.0287 301.434 68.146C301.754 68.2527 302.149 68.306 302.618 68.306C303.194 68.306 303.642 68.2047 303.962 68.002C304.282 67.7993 304.442 67.506 304.442 67.122C304.442 66.8873 304.383 66.7007 304.266 66.562C304.149 66.4127 303.946 66.2847 303.658 66.178C303.37 66.0607 302.949 65.9433 302.394 65.826C301.455 65.6233 300.783 65.3513 300.378 65.01C299.973 64.6687 299.77 64.2047 299.77 63.618C299.77 63.1593 299.898 62.754 300.154 62.402C300.41 62.05 300.762 61.7727 301.21 61.57C301.669 61.3673 302.186 61.266 302.762 61.266C303.178 61.266 303.578 61.3247 303.962 61.442C304.357 61.5487 304.703 61.7033 305.002 61.906C305.365 62.162 305.546 62.4287 305.546 62.706C305.546 62.8447 305.503 62.962 305.418 63.058C305.333 63.154 305.231 63.202 305.114 63.202C304.986 63.202 304.794 63.1113 304.538 62.93C304.239 62.738 303.957 62.5887 303.69 62.482C303.423 62.3753 303.093 62.322 302.698 62.322C302.197 62.322 301.791 62.434 301.482 62.658C301.183 62.882 301.034 63.1807 301.034 63.554C301.034 63.7887 301.087 63.9807 301.194 64.13C301.311 64.2687 301.498 64.3967 301.754 64.514C302.021 64.6207 302.399 64.7273 302.89 64.834C303.615 64.994 304.175 65.17 304.57 65.362C304.975 65.554 305.263 65.7887 305.434 66.066C305.605 66.3433 305.69 66.6953 305.69 67.122C305.69 67.794 305.407 68.338 304.842 68.754C304.277 69.1593 303.53 69.362 302.602 69.362ZM308.346 69.33C308.154 69.33 307.994 69.2767 307.866 69.17C307.748 69.0527 307.69 68.8927 307.69 68.69V61.938C307.69 61.7353 307.748 61.5807 307.866 61.474C307.994 61.3567 308.154 61.298 308.346 61.298C308.538 61.298 308.692 61.3567 308.81 61.474C308.927 61.5807 308.986 61.7353 308.986 61.938V68.69C308.986 68.9033 308.927 69.0633 308.81 69.17C308.692 69.2767 308.538 69.33 308.346 69.33ZM308.346 59.618C308.09 59.618 307.882 59.5433 307.722 59.394C307.562 59.2447 307.482 59.0473 307.482 58.802C307.482 58.5673 307.562 58.3753 307.722 58.226C307.882 58.0767 308.09 58.002 308.346 58.002C308.602 58.002 308.81 58.0767 308.97 58.226C309.13 58.3753 309.21 58.5673 309.21 58.802C309.21 59.0473 309.13 59.2447 308.97 59.394C308.81 59.5433 308.602 59.618 308.346 59.618ZM314.616 61.266C316.568 61.266 317.544 62.29 317.544 64.338V68.69C317.544 68.882 317.486 69.0367 317.368 69.154C317.262 69.2713 317.112 69.33 316.92 69.33C316.728 69.33 316.574 69.2713 316.456 69.154C316.339 69.0367 316.28 68.882 316.28 68.69V67.922C316.078 68.3807 315.768 68.738 315.352 68.994C314.936 69.2393 314.456 69.362 313.912 69.362C313.411 69.362 312.947 69.2607 312.52 69.058C312.104 68.8553 311.774 68.5727 311.528 68.21C311.283 67.8473 311.16 67.4473 311.16 67.01C311.16 66.4233 311.31 65.97 311.608 65.65C311.907 65.3193 312.398 65.0847 313.08 64.946C313.763 64.7967 314.712 64.722 315.928 64.722H316.28V64.194C316.28 63.554 316.147 63.0847 315.88 62.786C315.624 62.4873 315.203 62.338 314.616 62.338C313.891 62.338 313.155 62.5353 312.408 62.93C312.12 63.1113 311.918 63.202 311.8 63.202C311.672 63.202 311.566 63.154 311.48 63.058C311.395 62.962 311.352 62.8393 311.352 62.69C311.352 62.5407 311.395 62.4127 311.48 62.306C311.576 62.1887 311.726 62.0713 311.928 61.954C312.302 61.7407 312.723 61.5753 313.192 61.458C313.672 61.33 314.147 61.266 314.616 61.266ZM314.088 68.338C314.728 68.338 315.251 68.1247 315.656 67.698C316.072 67.2607 316.28 66.7007 316.28 66.018V65.554H315.992C315.054 65.554 314.339 65.5967 313.848 65.682C313.358 65.7567 313.006 65.89 312.792 66.082C312.59 66.2633 312.488 66.5353 312.488 66.898C312.488 67.314 312.638 67.6607 312.936 67.938C313.246 68.2047 313.63 68.338 314.088 68.338Z" fill="black"/>
</g>
<defs>
<clipPath id="clip0_1778_17253">
<rect width="186" height="48" fill="white" transform="translate(132.875 26.25)"/>
</clipPath>
</defs>
</svg>
