<svg width="459" height="507" viewBox="0 0 459 507" fill="none" xmlns="http://www.w3.org/2000/svg">
<circle cx="229.098" cy="228.903" r="228.903" fill="#FFDC66"/>
<g clip-path="url(#clip0_1594_14790)">
<path opacity="0.8" d="M241.898 506.994C316.095 506.994 376.243 497.578 376.243 485.962C376.243 474.347 316.095 464.93 241.898 464.93C167.701 464.93 107.553 474.347 107.553 485.962C107.553 497.578 167.701 506.994 241.898 506.994Z" fill="white" fill-opacity="0.7"/>
<path d="M300.618 418.586L309.339 471.342C309.339 471.342 312.784 485.192 292.494 485.897C283.606 486.228 274.71 485.476 266.004 483.658C263.951 483.25 262.109 482.127 260.806 480.487C259.503 478.847 258.823 476.798 258.886 474.703L259.864 430.335L300.618 418.586Z" fill="#C4C4C4"/>
<path d="M182.856 418.586L174.159 471.342C174.159 471.342 170.714 485.192 191.011 485.897C199.898 486.228 208.794 485.476 217.5 483.658C219.552 483.249 221.392 482.125 222.694 480.486C223.997 478.846 224.676 476.797 224.612 474.703L223.616 430.317L182.856 418.586Z" fill="#C4C4C4"/>
<path d="M200.053 440.251C204.887 443.009 210.425 444.83 215.992 444.43C221.56 444.03 226.68 441.546 231.657 439.093C230.614 439.606 224.916 436.544 223.706 436.066C220.888 434.952 218.083 433.804 215.289 432.622C209.614 430.21 204.007 427.659 198.468 424.968C195.237 423.392 187.637 417.5 183.929 418.724C179.882 420.067 185.753 426.968 187.273 428.974C190.731 433.557 195.078 437.393 200.053 440.251Z" fill="#A2A2A2"/>
<path d="M283.511 440.251C278.676 443.009 273.139 444.83 267.571 444.43C262.004 444.03 256.884 441.57 251.906 439.147C252.949 439.66 258.648 436.597 259.858 436.12C262.679 435.005 265.485 433.857 268.275 432.675C273.949 430.263 279.556 427.712 285.096 425.022C288.327 423.446 295.927 417.554 299.635 418.777C303.682 420.121 297.811 427.022 296.291 429.028C292.828 433.592 288.481 437.409 283.511 440.251Z" fill="#A2A2A2"/>
<path d="M183.518 309.129C175.083 328.77 169.122 353.748 168.991 385.179C168.854 417.595 201.352 444.705 241.385 444.519C280.924 444.299 312.915 418.3 312.915 386.254C312.915 354.386 306.954 329.11 298.442 309.242C279.535 265.125 202.473 265 183.518 309.129Z" fill="#C4C4C4"/>
<path d="M213.179 298.7C216.487 299.225 228.176 298.658 223.205 303.655C220.618 306.263 218.544 306.454 215.748 308.854C215.152 309.338 213.173 310.412 215.748 315.135C218.168 319.576 223.199 324.382 227.908 326.824C233.052 329.492 234.864 330.334 239.699 327.421C246.154 323.546 260.937 315.785 269.538 306.998C273.079 303.38 278.396 297.929 281.526 291.637C281.961 290.772 290.884 293.649 291.236 292.748C291.394 292.157 291.367 291.532 291.158 290.957C290.644 289.002 289.985 287.088 289.185 285.232C263.041 288.813 236.039 286.879 209.638 287.369C206.246 287.434 202.795 287.542 199.594 288.622C196.393 289.703 206.455 297.661 213.179 298.7Z" fill="#ADADAD"/>
<path d="M242.888 304.383C216.141 304.126 199.731 294.455 193.174 283.793C204.818 285.876 216.635 286.833 228.462 286.652C238.596 286.485 248.693 285.458 258.797 284.479C262.779 284.079 266.767 283.685 270.748 283.196C274.826 282.7 279.195 281.017 283.266 281.262C287.534 281.542 281.764 304.747 242.888 304.383Z" fill="#ADADAD"/>
<path d="M150.852 173.285C150.852 173.285 159.424 139.042 200.691 124.833C241.958 110.625 290.198 126.577 302.239 147.22C302.239 147.22 356.829 108.476 369.722 184.675C382.615 260.875 340.067 292.318 303.098 272.086C303.098 272.086 252.18 324.382 171.56 276.82C171.56 276.82 118.259 335.802 93.7596 248.839C67.526 155.739 124.279 154.384 150.852 173.285Z" fill="#C4C4C4"/>
<path d="M165.581 271.226C165.581 271.226 142.865 251.759 149.857 204.925C149.857 204.925 104.936 161.088 108.805 229.288C112.673 297.488 164.622 271.005 164.777 271.173" fill="#FFBBBA"/>
<path d="M283.523 273.405C282.926 263.316 278.211 250.338 258.821 246.254C258.821 246.254 265.616 266.737 268.257 280.402C260.889 283.232 253.355 285.22 245.808 285.775C244.861 281.13 239.693 274.934 220.946 270.982C220.946 270.982 228.135 279.459 230.573 285.757C232.248 293.44 229.541 297.237 229.541 297.237C229.541 297.237 258.821 302.15 282.247 286.342C282.247 286.318 284.053 278.08 283.523 273.405Z" fill="#A2A2A2"/>
<path d="M282.247 285.721C282.247 285.721 282.247 287.99 280.166 291.631L278.188 288.216L282.247 285.721Z" fill="#A2A2A2"/>
<path d="M157.064 260.051C151.973 260.516 142.162 258.134 138.388 256.325C132.39 253.476 127.002 249.488 122.521 244.583C115.57 236.953 110.963 227.407 108.674 217.306C108.501 221.509 108.545 225.717 108.805 229.915C112.673 298.114 165.433 271.077 165.582 271.244C165.582 271.226 161.916 267.662 157.064 260.051Z" fill="#FF98A1"/>
<path d="M312.719 258.522C338.285 264.003 358.295 248.863 352.96 202.651C346.511 146.808 311.437 175.935 311.437 175.935C311.437 175.935 322.339 244.959 312.719 258.522Z" fill="#FFBBBA"/>
<path d="M348.084 220.966C341.491 232.553 329.48 240.81 316.402 243.138C315.925 250.027 314.805 255.579 312.719 258.522C337.206 263.77 356.596 250.099 353.497 208.316C352.086 212.691 350.274 216.925 348.084 220.966Z" fill="#FF98A1"/>
<path d="M258.821 246.254C258.821 246.254 282.956 254.188 277.371 280.88C271.786 307.571 234.829 325.218 234.829 325.218C234.829 325.218 220.183 315.75 219.783 311.015C219.783 311.015 254.32 289.918 219.783 271.191" fill="#C4C4C4"/>
<path d="M272.417 269.943C276.846 292.443 259.608 308.353 259.608 308.353C259.608 308.353 273.663 297.01 277.371 280.891C283.475 254.314 258.821 246.266 258.821 246.266C258.821 246.266 270.027 257.77 272.417 269.943Z" fill="#E1E1E1"/>
<path d="M300.159 144.176C285.388 125.072 239.889 111.341 200.691 124.833C194.74 126.86 189.023 129.517 183.637 132.761C189.544 132.128 196.655 129.776 198.593 129.323C256.007 115.944 289.668 138.725 300.159 144.176Z" fill="#E1E1E1"/>
<path d="M367.326 173.488C355.928 130.505 328.223 135.089 312.891 141.537C349.628 134.48 363.815 164.67 367.326 173.488Z" fill="#E1E1E1"/>
<path d="M150.906 173.088L150.852 173.285C138.06 164.192 118.282 159.793 104.131 168.049C109.287 168.049 125.87 161.291 150.53 180.037C150.667 177.607 151.126 176.341 150.906 173.088Z" fill="#E1E1E1"/>
<path d="M190.456 198.388C193.317 196.513 196.574 195.328 199.969 194.927C203.365 194.526 206.808 194.92 210.026 196.078C210.427 196.186 210.855 196.131 211.216 195.926C211.578 195.72 211.844 195.38 211.957 194.979C212.057 194.577 211.999 194.152 211.795 193.792C211.591 193.432 211.256 193.164 210.86 193.045C207.238 191.77 203.373 191.344 199.561 191.8C195.749 192.255 192.092 193.58 188.871 195.672C187.184 196.776 188.757 199.504 190.456 198.388Z" fill="#595959"/>
<path d="M288.291 193.749C285.07 191.657 281.413 190.333 277.601 189.877C273.789 189.422 269.924 189.848 266.302 191.123C265.906 191.242 265.571 191.51 265.367 191.87C265.162 192.23 265.104 192.655 265.205 193.057C265.316 193.459 265.582 193.8 265.944 194.006C266.306 194.212 266.735 194.265 267.136 194.155C270.352 193.002 273.791 192.611 277.183 193.011C280.575 193.412 283.828 194.595 286.688 196.466C288.381 197.582 289.96 194.86 288.273 193.749H288.291Z" fill="#595959"/>
<path d="M181.855 236.112C182.602 231.906 184.876 228.125 188.239 225.497C191.728 222.757 196.03 221.261 200.464 221.247C202.617 221.217 204.766 221.439 206.866 221.909C209.024 222.433 211.074 223.326 212.929 224.548C214.745 225.773 216.307 227.338 217.53 229.157C218.659 230.887 219.54 232.768 220.147 234.744L219.277 235.276C217.834 233.873 216.541 232.446 215.104 231.294C213.759 230.162 212.268 229.218 210.669 228.488C209.11 227.797 207.47 227.306 205.787 227.025C204.041 226.764 202.278 226.638 200.512 226.649C199.642 226.679 198.783 226.715 197.925 226.793C197.078 226.886 196.238 227.033 195.41 227.234C193.724 227.607 192.097 228.209 190.575 229.025C187.288 230.802 184.417 233.261 182.153 236.237L181.855 236.112Z" fill="#484848"/>
<path d="M291.361 226.261C289.225 224.61 286.798 223.375 284.208 222.62C281.881 222.007 279.431 222.038 277.12 222.709C276.554 222.882 275.928 223.091 275.284 223.306C274.641 223.521 274.039 223.748 273.443 224.011C272.247 224.481 271.094 225.054 269.997 225.724C268.909 226.412 267.908 227.23 267.017 228.16C266.042 229.232 265.123 230.354 264.263 231.521L263.697 231.33C263.653 229.73 263.91 228.136 264.454 226.631C265.041 225.037 265.955 223.583 267.136 222.363C268.303 221.165 269.651 220.157 271.13 219.378C271.839 218.985 272.572 218.636 273.323 218.333L274.438 217.903C274.82 217.766 275.249 217.653 275.63 217.527C277.315 217.063 279.069 216.901 280.81 217.05C283.326 217.276 285.729 218.201 287.75 219.719C289.77 221.238 291.328 223.29 292.249 225.646L291.361 226.261Z" fill="#484848"/>
<path d="M229.762 116.774H196.214V131.639C196.214 131.639 208.231 137.239 229.762 137.239C251.292 137.239 263.309 131.639 263.309 131.639V116.774H229.762Z" fill="#085990"/>
<path d="M229.762 109.198H196.214V121.663C196.214 121.663 208.231 129.639 229.762 129.639C251.292 129.639 263.309 121.663 263.309 121.663V109.198H229.762Z" fill="#044076"/>
<path d="M229.762 72L154.56 97.76L229.762 131.358L304.964 97.76L229.762 72Z" fill="#11A5D3"/>
<path d="M229.762 100.279C233.808 100.279 237.088 99.0256 237.088 97.4793C237.088 95.933 233.808 94.6794 229.762 94.6794C225.716 94.6794 222.436 95.933 222.436 97.4793C222.436 99.0256 225.716 100.279 229.762 100.279Z" fill="#044076"/>
<path d="M303.098 97.4614C303.702 97.8688 304.239 98.3684 304.689 98.942C305.118 99.4864 305.468 100.089 305.726 100.733C305.979 101.362 306.154 102.019 306.245 102.691C306.35 103.36 306.388 104.038 306.358 104.715C306.266 106.036 306.011 107.342 305.601 108.601C305.22 109.861 304.785 111.091 304.409 112.308C304.018 113.495 303.731 114.714 303.551 115.95C303.551 116.105 303.509 116.255 303.497 116.404V116.863L303.461 117.771C303.461 118.075 303.497 118.368 303.515 118.684C303.525 118.99 303.553 119.295 303.598 119.598C303.985 122.098 304.696 124.536 305.714 126.851C306.698 129.239 307.759 131.669 308.594 134.176C309.492 136.661 309.896 139.297 309.786 141.937C309.572 144.625 308.729 147.224 307.324 149.525C306.606 150.735 305.745 151.856 304.761 152.862C303.7 153.927 302.456 154.793 301.089 155.417C302.001 154.33 302.877 153.315 303.735 152.265C304.582 151.254 305.338 150.172 305.995 149.029C307.243 146.84 307.954 144.384 308.069 141.865C308.094 139.368 307.654 136.888 306.77 134.552C305.923 132.164 304.785 129.776 303.789 127.335C302.704 124.92 301.938 122.373 301.512 119.759C301.462 119.431 301.432 119.1 301.423 118.768C301.423 118.434 301.387 118.105 301.381 117.771L301.441 116.774L301.47 116.272C301.47 116.105 301.512 115.944 301.536 115.777C301.748 114.467 302.075 113.178 302.513 111.926C303.348 109.437 304.302 107.037 304.618 104.613C304.701 104.01 304.743 103.402 304.743 102.793C304.746 102.192 304.694 101.593 304.588 101.002C304.486 100.387 304.314 99.786 304.075 99.2106C303.814 98.5938 303.486 98.0073 303.098 97.4614Z" fill="#085990"/>
<path d="M228.427 100.279C231.735 100.279 234.417 99.2528 234.417 97.9868C234.417 96.7207 231.735 95.6943 228.427 95.6943C225.118 95.6943 222.436 96.7207 222.436 97.9868C222.436 99.2528 225.118 100.279 228.427 100.279Z" fill="#085990"/>
<path d="M154.56 97.76L229.762 72L304.964 97.76L229.762 76.549L154.56 97.76Z" fill="#18D2F8"/>
<path d="M327.221 233.246C327.221 233.246 331.757 218.656 347.089 218.805C347.089 218.805 373.102 259.113 397.923 272.94C397.923 272.94 398.31 288.957 382.603 292.198C382.573 292.198 339.954 250.905 327.221 233.246Z" fill="#F1E6C8"/>
<path d="M382.573 292.198C382.573 292.198 382.842 278.032 397.893 272.94C397.893 272.94 400.295 289.954 382.573 292.198Z" fill="#E2C392"/>
<path d="M290.801 314.597C290.801 314.597 335.28 312.209 381.453 267.37C385.995 262.964 387.485 256.361 383.742 251.251C380.797 247.239 375.85 242.35 367.546 237.001C365.296 235.549 362.613 234.921 359.953 235.225C357.293 235.528 354.82 236.744 352.954 238.667C344.317 247.586 329.707 265.298 309.762 277.31C299.342 283.578 282.247 286.318 282.247 286.318C281.506 288.858 280.528 291.322 279.326 293.679C277.842 296.568 278.343 302.956 278.343 302.956L290.801 314.597Z" fill="#C4C4C4"/>
<path d="M185.246 314.597C185.246 314.597 140.767 312.209 94.5881 267.37C90.046 262.964 88.5558 256.361 92.3052 251.251C95.2438 247.239 100.191 242.35 108.501 237.001C110.751 235.549 113.434 234.921 116.094 235.225C118.754 235.528 121.227 236.744 123.093 238.667C131.706 247.58 147.008 264.23 166.279 277.304C183.088 288.694 199.624 290.019 199.624 290.019L185.246 314.597Z" fill="#C4C4C4"/>
<path d="M323.675 270.599C331.257 264.833 339.936 255.173 353.181 244.523C354.954 242.982 357.035 241.836 359.285 241.162C369.418 238.297 378.86 247.299 379.289 246.642C379.843 245.807 363.791 232.315 357.013 235.831C355.351 236.756 353.792 237.857 352.364 239.114C351.085 240.259 349.89 241.494 348.787 242.81C345.956 246.039 345.211 247.227 343.459 249.245C341.667 251.282 339.748 253.202 337.712 254.994C332.467 259.83 330.881 260.284 323.365 266.492C319.973 269.298 319.723 269.674 316.808 271.967C311.944 275.793 309.285 277.369 307.652 278.265C305.882 279.238 304.057 280.107 302.186 280.868C312.319 278.169 319.186 274.014 323.675 270.599Z" fill="#E1E1E1"/>
<path d="M300.29 313.266C299.873 312.446 299.462 311.579 299.056 310.663C298.705 309.863 298.389 309.087 298.103 308.335C306.954 306.48 315.644 303.924 324.092 300.694C352.513 289.828 372.738 273.364 385.578 260.606C384.512 262.856 383.181 264.971 381.614 266.904C380.203 268.589 378.647 270.147 376.964 271.561C371.242 276.671 368.381 279.226 368.22 279.363C351.118 293.548 332.544 302.222 332.544 302.222C323.539 306.425 314.159 309.771 304.528 312.215L300.29 313.266Z" fill="#ADADAD"/>
<path d="M104.513 242.941C107.267 241.974 113.383 239.831 118.98 242.344C123.438 244.326 121.817 243.037 126.884 247.215C130.514 248.409 140.457 265.143 170.714 280.008C164.085 275.815 157.724 271.211 151.669 266.223C146.704 262.128 141.691 257.997 135.998 251.896C133.018 248.726 129.739 245.866 126.884 242.589C124.416 239.753 122.908 237.729 119.868 236.476C117.524 235.553 114.978 235.268 112.488 235.652C106.7 236.41 102.772 240.219 98.6355 244.231C96.6915 246.126 94.8978 248.17 93.2708 250.344C96.3733 247.011 100.228 244.473 104.513 242.941Z" fill="#E1E1E1"/>
<path d="M91.3037 261.842C96.8865 267.051 102.787 271.908 108.972 276.384C136.528 296.329 164.759 305.069 185.711 309.129C185.336 309.839 184.954 310.627 184.597 311.481C184.158 312.524 183.782 313.593 183.47 314.681C170.809 312.354 158.479 308.491 146.751 303.177C138.632 299.433 130.812 295.07 123.361 290.127C121.984 289.237 116.208 285.446 109.144 279.906C109.144 279.906 102.856 274.981 96.1379 268.617C95.2021 267.728 94.3497 266.791 94.3497 266.791C94.0815 266.498 93.5748 265.949 93.2112 265.489C92.3535 264.403 91.7065 263.166 91.3037 261.842Z" fill="#ADADAD"/>
</g>
<defs>
<clipPath id="clip0_1594_14790">
<rect width="311" height="435" fill="white" transform="translate(87 72)"/>
</clipPath>
</defs>
</svg>
