<svg width="1190" height="518" viewBox="0 0 1190 518" fill="none" xmlns="http://www.w3.org/2000/svg">
<g filter="url(#filter0_d_1318_14450)">
<rect x="20" y="119" width="864" height="335" rx="39" fill="#FDF9D3"/>
</g>
<circle cx="960.098" cy="228.903" r="228.903" fill="#FFDC66"/>
<path d="M1143.89 480.476C1143.89 492.896 1070.97 502.912 981.001 502.912C891.03 502.912 818.115 492.839 818.115 480.476C818.115 468.057 891.03 458.041 981.001 458.041C1070.97 458.041 1143.89 468.057 1143.89 480.476Z" fill="#D1EAED"/>
<path d="M855.66 219.892C856.175 231.682 859.609 243.071 862.013 254.632C862.928 258.925 863.672 263.332 863.386 267.739C863.043 273.691 860.811 279.357 859.38 285.138C859.151 285.996 858.979 286.912 859.208 287.771C859.494 288.858 860.467 289.602 861.44 290.175C865.275 292.407 870.083 292.464 874.375 291.319C878.668 290.175 882.56 287.885 886.337 285.596C892.232 282.105 898.127 278.442 903.049 273.748C908.429 268.597 912.55 262.245 916.156 255.72C924.226 241.354 930.464 225.901 934.356 209.876C936.531 200.947 938.019 191.618 936.13 182.575C934.013 172.674 927.717 163.745 919.075 158.423C910.089 152.928 904.48 137.361 894.865 144.229C876.607 157.164 865.218 180 860.754 194.136C858.178 202.321 855.316 211.249 855.66 219.892Z" fill="#B3C2C6"/>
<path d="M838.89 388.788C834.312 388.731 829.275 388.845 825.956 392.05C823.781 394.168 822.808 397.201 822.006 400.12C818.515 413.398 817.37 427.249 818.572 440.928C819.603 452.26 820.232 468.285 829.504 474.867C837.746 480.705 851.367 476.87 861.44 476.355C880.213 475.382 898.871 473.494 917.472 470.689C933.555 468.285 949.809 465.08 964.232 457.525C977.567 450.543 989.758 437.952 989.415 422.899C989.129 409.106 977.968 397.373 965.091 392.451C947.978 385.869 929.549 389.475 911.806 389.589C887.539 389.761 863.215 389.074 838.89 388.788Z" fill="#A5B3B7"/>
<path d="M726.999 151.726L757.848 193.106L725.396 205.182L719.787 182.747L726.999 151.726Z" fill="#FFF3C2"/>
<path d="M713.148 158.48L727.056 151.726C727.056 151.726 733.122 156.133 733.866 167.523C734.61 178.912 725.51 200.375 725.51 200.375C725.51 200.375 733.981 192.076 747.545 188.585C761.11 185.093 793.676 187.039 793.676 187.039L794.82 197.856L724.938 212.966L712.518 205.869L713.148 158.48Z" fill="#F4D8AB"/>
<path d="M713.148 158.48C713.32 161.284 716.696 205.984 716.696 205.984L724.537 208.273L796.48 197.627L851.31 269.914L791.558 275.465L726.312 216.114L711.946 206.842L710 157.106L713.148 158.48Z" fill="#6673AA"/>
<path d="M791.615 275.465L780.684 270.829L712.003 206.842L725.968 211.764L791.615 275.465Z" fill="#546189"/>
<path d="M793.618 186.982L847.99 255.605L849.421 267.395L796.537 197.57L794.763 197.856L793.618 186.982Z" fill="#FFF3C2"/>
<path d="M833.281 280.788C853.027 280.559 877.179 272.26 874.718 251.084C869.338 205.297 865.046 178.454 887.653 151.726C911.863 123.109 943.914 123.567 970.184 127.23C996.455 130.893 1019.75 148.635 1032.51 171.872C1045.27 195.109 1048.02 223.154 1042.58 249.08C1038.29 269.398 1028.96 288.915 1014.08 303.338C1005.21 311.923 994.623 318.505 983.462 323.77C948.664 340.196 908.601 343.745 870.54 337.907C840.55 333.328 811.075 322.797 786.807 304.597C763.742 287.255 742.108 260.012 737.93 230.651C744.111 230.136 751.666 224.871 757.733 225.786C766.432 227.045 770.439 237.748 775.532 243.643C787.151 257.208 815.31 280.96 833.281 280.788Z" fill="#BCCDD3"/>
<path d="M912.665 452.546C912.207 457.697 911.863 463.192 914.267 467.828C917.987 474.867 926.801 477.271 934.7 478.645C974.591 485.57 1051.11 484.483 1090.66 475.955C1095.58 474.925 1108.69 455.637 1109.38 444.305C1111.49 409.449 1105.26 376.712 1099.3 342.429C1093.35 308.146 1079.1 275.58 1059.87 246.62C1043.9 222.581 1020.61 199.001 991.762 199.402C965.033 199.802 942.541 221.837 933.04 246.791C920.963 278.499 928.976 310.092 924.798 342.314C920.048 379.001 915.87 415.688 912.665 452.546Z" fill="#BCCDD3"/>
<path d="M994.738 289.03C993.65 300.877 985.58 310.721 977.854 319.707C961.027 339.338 944.372 362.346 920.963 373.392C922.68 367.383 923.138 358.454 924.054 352.273C924.626 348.438 923.768 341.685 926.572 338.708C928.976 336.19 934.871 335.847 938.076 334.702C942.827 333.042 947.462 330.982 951.927 328.635C960.741 324.057 968.925 318.276 976.194 311.522C981.002 307.058 994.108 295.955 994.738 289.03Z" fill="#B3C2C6"/>
<path d="M996.455 396.343C1014.54 389.933 1033.08 382.95 1047.05 369.729C1064.45 353.303 1072.63 328.635 1072.29 304.712C1071.95 280.788 1063.65 257.551 1052.2 236.546C1059.13 244.216 1064.05 253.373 1068.97 262.473C1077.96 279.128 1086.94 295.841 1093.98 313.411C1109.26 351.472 1115.16 393.252 1110.98 434.003C1110.12 442.13 1108.86 450.371 1105.6 457.926C1102.34 465.481 1096.84 472.292 1089.4 475.669C1084.31 478.015 1078.59 478.645 1072.98 479.217C1051.46 481.507 1029.94 483.796 1008.47 486.085C998.744 487.115 988.957 488.146 979.227 487.402C969.212 486.6 959.425 483.968 949.867 480.877C940.309 477.844 930.522 474.181 923.253 467.198C911.634 455.98 907.628 435.262 912.665 419.98C915.469 411.51 923.253 413.627 930.979 412.941C941.568 412.025 952.041 409.907 962.286 407.217C973.79 404.184 985.18 400.349 996.455 396.343Z" fill="#B3C2C6"/>
<path d="M924.626 419.064C913.466 419.923 902.191 420.839 891.602 424.502C881.071 428.222 871.113 435.09 866.248 445.163C857.377 463.421 867.221 484.998 877.924 502.225C881.014 507.204 884.391 512.298 889.485 515.217C897.154 519.567 906.655 517.964 915.24 516.133C955.418 507.662 995.253 497.417 1034.57 485.513C1044.7 482.422 1055.69 478.645 1061.41 469.716C1075.67 447.452 1050.6 411.681 1026.5 410.823C993.307 409.678 957.822 416.489 924.626 419.064Z" fill="#BCCDD3"/>
<path d="M1026.56 344.546C1033.6 358.111 1042.36 370.988 1046.48 385.697C1047.56 389.646 1048.37 393.767 1050.43 397.316C1052.89 401.551 1057.07 404.642 1061.53 406.588C1072.29 411.224 1086.88 408.534 1092.55 398.289C1096.73 390.677 1095.24 381.29 1093.24 372.877C1087 346.893 1075.72 320.451 1053.8 305.227C1044.19 298.53 1029.76 296.47 1022.27 307.745C1015 318.505 1021.29 334.359 1026.56 344.546Z" fill="#BCCDD3"/>
<path d="M1017.46 342.715C1019.58 341.513 1022.38 342.085 1024.38 343.516C1026.39 344.947 1027.76 347.064 1029.02 349.182C1032.91 355.535 1036.52 362.06 1039.84 368.756C1043.27 375.681 1049.34 388.845 1042.36 395.713C1036.29 401.665 1029.25 394.168 1029.65 387.643C1030.11 379.917 1033.2 374.823 1031.14 366.696C1028.91 357.653 1024.1 349.239 1017.46 342.715Z" fill="#B3C2C6"/>
<path d="M1082.31 341.398C1078.64 325.316 1074.35 309.004 1064.73 295.611C1061.07 290.46 1051.97 281.36 1045.1 286.454C1046.93 288.457 1049.74 289.201 1051.97 290.746C1056.38 293.837 1058.27 298.244 1060.84 302.937C1068 315.758 1075.15 328.578 1082.31 341.398Z" fill="#B3C2C6"/>
<path d="M1052.83 281.761C1053.29 276.839 1056.44 272.317 1060.9 270.2C1062.04 269.627 1063.3 269.227 1064.56 269.284C1066.51 269.341 1068.28 270.486 1069.6 271.86C1072.92 275.351 1073.83 280.445 1074.58 285.195C1075.38 290.231 1076.18 295.211 1077.04 300.247C1077.55 303.452 1078.07 306.772 1076.87 309.805C1075.72 312.782 1072.23 315.128 1069.26 313.926C1066.68 312.839 1065.71 309.748 1064.73 307.058C1061.76 298.702 1051.97 290.976 1052.83 281.761Z" fill="#B3C2C6"/>
<path d="M999.831 162.257C1017.92 155.733 1036.75 148.006 1055.75 150.982C1066.85 152.756 1077.04 158.079 1086.48 164.146C1098.85 172.159 1111.27 183.491 1111.78 198.2C1112.41 215.713 1096.16 229.049 1091.12 245.818C1089.23 252.171 1088.89 259.211 1085.28 264.82C1081.56 270.601 1075.09 273.863 1069.89 278.27C1063.19 283.993 1058.55 291.72 1052.54 298.13C1046.53 304.54 1038.18 309.977 1029.48 308.661C1024.38 307.917 1019.86 304.941 1015.86 301.621C1000.12 288.515 989.987 268.826 988.614 248.337C987.641 234.658 990.388 220.578 986.782 207.357C984.607 199.459 980.257 192.133 979.456 184.006C978.941 179.084 979.742 169.011 984.207 165.691C987.812 163.116 995.31 163.917 999.831 162.257Z" fill="#CCDEE2"/>
<path d="M1023.35 171.643C1030.85 171.357 1038.24 173.532 1045.33 175.879C1055.18 179.141 1065.14 182.976 1072.8 189.901C1078.24 194.823 1082.53 202.721 1079.44 209.36C1077.38 213.825 1072.69 216.343 1069.08 219.72C1064.96 223.554 1062.16 228.763 1061.24 234.314C1060.56 238.55 1060.84 243.071 1058.95 246.906C1055.18 254.575 1044.36 256.635 1040.75 264.362C1039.27 267.567 1039.21 271.573 1036.75 274.149C1034 277.011 1029.02 276.896 1025.82 274.55C1022.55 272.203 1020.89 268.254 1020.26 264.305C1019.63 260.356 1019.86 256.349 1019.75 252.343C1019.58 246.104 1018.43 239.866 1016.31 233.914C1013.11 224.813 1007.84 216.572 1003.84 207.815C1000.86 201.29 995.367 188.298 998.801 181.03C1002.01 174.505 1016.83 171.872 1023.35 171.643Z" fill="#F4BBB5"/>
<path d="M912.035 224.985C914.324 226.302 917.243 226.531 919.59 225.271C921.936 224.069 923.424 221.379 923.081 218.747C922.852 217.03 921.879 215.542 920.906 214.111C919.533 212.108 917.93 209.99 915.698 209.017C905.968 204.896 905.281 221.036 912.035 224.985Z" fill="#54413F"/>
<path d="M910.833 214.454C909.975 215.599 909.745 217.201 910.318 218.518C910.604 219.205 911.119 219.834 911.806 219.949C912.493 220.063 913.237 219.663 913.637 219.09C914.038 218.518 914.21 217.774 914.381 217.087C914.668 215.599 914.668 213.71 913.351 213.023C912.149 212.394 910.432 213.481 910.547 214.798L910.833 214.454Z" fill="white"/>
<path d="M861.498 224.127C862.928 225.042 864.932 224.928 866.649 223.669C868.366 222.41 869.625 219.948 869.625 217.716C869.625 216.286 869.11 215.026 868.537 213.939C867.793 212.336 866.878 210.677 865.447 210.047C859.151 207.357 857.205 221.379 861.498 224.127Z" fill="#54413F"/>
<path d="M861.612 215.141C860.925 216.228 860.639 217.602 860.868 218.689C860.983 219.262 861.269 219.72 861.784 219.777C862.242 219.834 862.814 219.376 863.157 218.861C863.501 218.346 863.673 217.659 863.844 217.087C864.188 215.77 864.359 214.168 863.501 213.653C862.757 213.195 861.498 214.282 861.383 215.427L861.612 215.141Z" fill="white"/>
<path d="M882.789 212.851C881.873 213.023 880.957 213.424 880.27 214.168C878.954 215.599 878.782 217.888 878.839 219.948C878.839 220.177 878.84 220.406 878.897 220.635C879.011 220.979 879.297 221.265 879.526 221.551C880.213 222.238 880.9 222.867 881.587 223.497C881.014 222.352 881.529 220.75 882.445 219.948C883.361 219.147 884.62 219.033 885.822 219.204C889.027 219.72 891.774 222.638 892.518 226.244C892.633 226.702 892.862 227.332 893.262 227.16C892.747 224.012 892.862 218.747 891.374 216.057C889.771 213.252 885.421 212.279 882.789 212.851Z" fill="#54413F"/>
<path opacity="0.44" d="M937.905 207.929C938.82 211.421 939.049 215.141 938.935 218.746C938.82 222.238 938.305 225.786 936.932 228.877C935.386 232.425 932.868 235.23 930.407 237.977C928.347 240.209 926.286 242.556 923.653 243.7C920.677 245.017 917.358 244.788 914.21 244.044C910.776 243.242 907.456 241.869 904.595 239.58C898.642 234.715 895.723 226.473 893.491 218.518C892.862 216.171 892.232 213.767 892.347 211.306C892.518 208.502 893.606 205.926 894.922 203.58C898.928 196.483 905.11 190.988 912.035 188.184C915.469 186.81 916.957 187.783 919.876 189.386C922.509 190.816 925.313 191.217 927.889 193.106C932.582 196.483 936.302 201.748 937.905 207.929Z" fill="#9DAAA9"/>
<path opacity="0.44" d="M877.466 213.596C878.267 216.858 878.553 220.235 878.553 223.611C878.553 226.817 878.267 230.022 877.237 232.883C876.149 236.088 874.204 238.607 872.315 241.011C870.77 243.014 869.167 245.074 867.164 246.047C864.875 247.192 862.242 246.848 859.723 246.047C857.034 245.189 854.343 243.815 852.054 241.583C847.246 236.947 844.728 229.22 842.782 221.837C842.21 219.662 841.638 217.43 841.695 215.198C841.752 212.623 842.553 210.276 843.526 208.216C846.502 201.805 851.196 196.941 856.633 194.651C859.323 193.507 860.467 194.48 862.814 196.025C864.932 197.398 867.164 197.914 869.224 199.688C873.059 202.893 876.092 207.929 877.466 213.596Z" fill="#9DAAA9"/>
<path d="M891.145 222.696C888.054 205.64 896.639 189.042 910.318 185.78C923.997 182.46 937.676 193.678 940.766 210.734C943.857 227.789 935.272 244.387 921.593 247.649C907.914 250.969 894.293 239.751 891.145 222.696ZM896.296 221.494C898.757 235.001 909.574 243.929 920.448 241.296C931.323 238.664 938.133 225.557 935.615 211.993C933.154 198.486 922.337 189.557 911.463 192.19C900.645 194.823 893.835 207.929 896.296 221.494Z" fill="#54413F"/>
<path d="M842.496 225.386C839.634 209.818 846.331 194.995 857.32 192.362C868.366 189.729 879.641 200.203 882.445 215.77C885.25 231.338 878.61 246.161 867.622 248.794C856.633 251.427 845.3 240.953 842.496 225.386ZM846.788 224.355C849.078 236.832 857.949 245.303 866.591 243.243C875.234 241.182 880.385 229.335 878.095 216.858C875.806 204.381 866.935 195.91 858.292 197.971C849.707 200.031 844.556 211.879 846.788 224.355Z" fill="#54413F"/>
<path opacity="0.59" d="M929.835 202.836C930.35 203.866 930.808 205.011 930.865 206.212C930.922 207.414 930.464 208.674 929.549 209.303C928.289 210.162 926.572 209.418 925.542 208.216C924.512 207.014 923.94 205.354 923.138 203.98C921.765 201.634 919.704 199.86 917.415 199.058C916.156 198.6 914.668 198.257 914.095 196.941C913.981 196.654 913.867 196.254 913.981 195.91C914.095 195.624 914.324 195.395 914.611 195.281C919.361 192.362 927.374 198.314 929.835 202.836Z" fill="white"/>
<path opacity="0.59" d="M869.396 203.58C870.311 204.267 871.113 205.125 871.628 206.155C872.143 207.243 872.315 208.559 871.914 209.704C871.742 210.104 871.513 210.505 871.17 210.734C870.483 211.135 869.567 210.734 868.995 210.104C868.423 209.475 868.022 208.674 867.393 208.044C866.076 206.728 864.13 206.785 862.413 206.67C860.696 206.613 858.693 206.098 857.835 204.381C857.663 204.038 857.606 203.694 857.663 203.351C857.72 203.122 857.892 202.893 858.063 202.721C861.154 199.459 866.305 201.233 869.396 203.58Z" fill="white"/>
<path d="M968.754 170.613C976.194 165.405 984.092 160.311 992.963 158.422C996.855 157.564 1001.78 157.85 1003.78 161.284C998.973 163.802 993.135 163.173 987.984 164.947C984.664 166.092 981.803 168.152 979.056 170.327C964.232 181.659 950.725 194.537 937.39 207.529C936.817 204.324 932.639 199.001 933.727 196.826C935.329 193.621 942.598 190.015 945.46 187.783C953.129 181.888 960.855 176.107 968.754 170.613Z" fill="#54413F"/>
<path d="M860.983 460.158C859.208 471.662 862.242 483.567 867.736 493.869C873.059 503.827 881.529 513.099 892.69 515.045C896.124 515.618 899.959 515.446 902.706 513.328C905.739 511.039 906.884 507.033 907.685 503.312C911.634 484.883 911.634 464.794 902.706 448.254C900.302 443.789 897.211 439.554 893.091 436.635C876.722 425.131 863.215 445.506 860.983 460.158Z" fill="#F4BBB5"/>
<path d="M820.862 458.842C821.835 464.394 823.323 470.403 827.329 473.494C828.703 474.524 830.42 475.154 832.022 474.696C835.056 473.78 836.257 469.545 836.887 465.939C838.947 454.549 840.321 442.988 841.065 431.37C841.58 423.472 841.752 415.402 840.207 407.618C839.062 401.837 836.2 391.306 830.248 390.333C817.084 388.158 817.428 420.381 817.657 429.138C817.886 439.154 819.087 449.055 820.862 458.842Z" fill="#F4BBB5"/>
<path d="M931.723 339.052C939.221 337.049 944.544 330.982 948.836 324.915C953.644 318.047 958.108 310.607 960.455 302.537C961.771 297.958 962.343 293.151 961.828 288.457C961.771 287.828 961.37 287.313 960.683 287.313C960.111 287.313 959.424 287.828 959.482 288.457C960.455 296.642 957.879 304.597 954.159 311.751C952.27 315.414 950.095 318.906 947.806 322.283C945.803 325.259 943.628 328.235 941.052 330.753C938.248 333.558 934.986 335.79 931.094 336.82C929.663 337.163 930.292 339.395 931.723 339.052Z" fill="#A5B3B7"/>
<path d="M957.364 286.626C957.879 286.397 958.451 286.225 958.966 286.111C959.253 286.053 959.539 285.996 959.825 285.939C959.882 285.939 960.226 285.882 959.997 285.939C960.111 285.939 960.283 285.882 960.397 285.882C960.97 285.824 961.485 285.824 962.057 285.882C962.172 285.882 962.286 285.882 962.4 285.882C962.458 285.882 962.916 285.939 962.687 285.939C962.801 285.939 962.916 285.996 963.03 285.996C963.087 285.996 963.145 285.996 963.202 286.053C962.973 285.939 962.801 285.767 962.687 285.538C962.687 285.309 962.687 285.138 962.687 284.909V284.966C962.801 284.794 962.916 284.623 962.973 284.451C962.973 284.451 962.973 284.451 962.916 284.508C963.087 284.394 963.259 284.279 963.431 284.222C963.717 284.279 964.06 284.394 964.346 284.451C964.461 284.737 964.575 285.023 964.69 285.309C964.69 285.309 964.69 285.309 964.69 285.252C964.575 285.538 964.461 285.824 964.346 286.111C964.346 286.111 964.346 286.111 964.404 286.053C964.804 285.595 964.862 284.851 964.404 284.394C963.946 283.993 963.202 283.936 962.744 284.394C962.114 285.08 962.343 286.053 963.145 286.397C963.889 286.683 964.69 286.34 964.919 285.538C965.148 284.737 964.518 284.05 963.831 283.821C963.373 283.707 962.801 283.65 962.343 283.592C960.455 283.421 958.451 283.707 956.677 284.451C956.105 284.68 955.647 285.252 955.876 285.882C956.105 286.34 956.734 286.855 957.364 286.626Z" fill="#A5B3B7"/>
<path d="M826.413 291.262C826.528 295.497 825.669 299.675 824.811 303.796C828.073 299.217 828.932 293.437 829.676 287.828C829.962 285.71 830.191 283.306 828.874 281.589C827.215 279.472 823.952 279.186 821.549 278.384C822.006 280.101 824.067 281.933 824.925 283.936C825.898 286.225 826.356 288.744 826.413 291.262Z" fill="#B3C2C6"/>
<path d="M856.576 310.378C857.205 307.344 856.919 304.139 856.461 301.049C855.66 295.154 855.145 287.656 852.569 282.219C850.852 278.67 845.816 278.384 845.014 282.963C844.385 286.454 850.623 291.548 852.283 294.696C854.343 298.645 857.549 305.799 856.576 310.378Z" fill="#B3C2C6"/>
<path opacity="0.18" d="M883.59 437.379C881.415 441.099 881.816 446.537 885.25 449.112C887.997 451.115 891.831 450.944 894.979 449.627C898.127 448.311 900.76 446.079 903.507 444.076C914.782 435.948 928.576 432.057 942.312 429.882C956.048 427.764 970.013 427.249 983.749 425.246C986.553 424.845 989.472 424.273 991.475 422.327C985.695 420.781 979.628 420.781 973.619 420.896C956.906 421.182 940.194 422.441 923.653 424.616C912.264 426.161 890.343 425.704 883.59 437.379Z" fill="white"/>
<path opacity="0.18" d="M823.838 404.813C823.666 408.133 826.471 411.567 829.79 411.338C832.079 411.166 833.968 409.506 835.914 408.305C837.86 407.16 839.978 406.416 842.153 405.729C850.108 403.268 860.124 403.554 867.564 400.521C876.607 396.858 860.41 395.084 856.404 394.683C847.704 393.824 824.41 392.222 823.838 404.813Z" fill="white"/>
<path opacity="0.18" d="M1052.66 379.287C1053.75 384.267 1054.66 389.532 1057.69 393.596C1060.79 397.716 1066.79 400.12 1071.09 397.43C1075.09 394.969 1075.9 389.246 1074.29 384.839C1072.69 380.432 1069.31 376.941 1066.22 373.449C1060.9 367.383 1056.09 360.858 1051.97 353.875C1048.25 347.58 1044.02 340.254 1036.75 339.281C1040.93 339.853 1044.76 353.875 1045.96 357.081C1048.82 364.292 1051.06 371.732 1052.66 379.287Z" fill="white"/>
<path d="M1118.76 462.276C1132.61 463.306 1147.04 460.273 1158.25 452.146C1162.2 449.284 1165.87 445.621 1167.41 440.928C1166.38 449.398 1160.66 456.781 1153.5 461.532C1146.41 466.282 1137.99 468.686 1129.64 470.46C1115.96 473.437 1101.94 474.982 1087.91 475.096C1084.88 475.096 1081.79 475.039 1079.04 473.837C1076.3 472.635 1074.01 469.888 1074.18 466.912C1074.29 464.68 1075.72 462.734 1077.21 461.074C1079.84 458.212 1083.05 455.751 1086.71 454.549C1092.21 452.775 1096.56 454.549 1101.19 457.297C1106.63 460.444 1112.58 461.818 1118.76 462.276Z" fill="#B3C2C6"/>
<defs>
<filter id="filter0_d_1318_14450" x="0" y="109" width="904" height="375" filterUnits="userSpaceOnUse" color-interpolation-filters="sRGB">
<feFlood flood-opacity="0" result="BackgroundImageFix"/>
<feColorMatrix in="SourceAlpha" type="matrix" values="0 0 0 0 0 0 0 0 0 0 0 0 0 0 0 0 0 0 127 0" result="hardAlpha"/>
<feOffset dy="10"/>
<feGaussianBlur stdDeviation="10"/>
<feColorMatrix type="matrix" values="0 0 0 0 0.160784 0 0 0 0 0.160784 0 0 0 0 0.164706 0 0 0 0.07 0"/>
<feBlend mode="normal" in2="BackgroundImageFix" result="effect1_dropShadow_1318_14450"/>
<feBlend mode="normal" in="SourceGraphic" in2="effect1_dropShadow_1318_14450" result="shape"/>
</filter>
</defs>
</svg>
