<svg width="480" height="518" viewBox="0 0 480 518" fill="none" xmlns="http://www.w3.org/2000/svg">
<circle cx="250.098" cy="228.903" r="228.903" fill="#FFDC66"/>
<path d="M433.889 480.476C433.889 492.896 360.973 502.912 271.001 502.912C181.03 502.912 108.115 492.839 108.115 480.476C108.115 468.057 181.03 458.041 271.001 458.041C360.973 458.041 433.889 468.057 433.889 480.476Z" fill="#D1EAED"/>
<path d="M145.66 219.892C146.175 231.682 149.609 243.071 152.013 254.632C152.928 258.925 153.672 263.332 153.386 267.739C153.043 273.691 150.811 279.357 149.38 285.138C149.151 285.996 148.979 286.912 149.208 287.771C149.494 288.858 150.467 289.602 151.44 290.175C155.275 292.407 160.083 292.464 164.375 291.319C168.668 290.175 172.56 287.885 176.337 285.596C182.232 282.105 188.127 278.442 193.049 273.748C198.429 268.597 202.55 262.244 206.156 255.72C214.226 241.354 220.464 225.901 224.356 209.876C226.531 200.947 228.019 191.618 226.13 182.575C224.013 172.674 217.717 163.745 209.075 158.423C200.089 152.928 194.48 137.361 184.865 144.229C166.607 157.164 155.218 180 150.754 194.136C148.178 202.321 145.316 211.249 145.66 219.892Z" fill="#B3C2C6"/>
<path d="M128.89 388.788C124.312 388.731 119.275 388.845 115.956 392.05C113.781 394.168 112.808 397.201 112.006 400.12C108.515 413.398 107.37 427.249 108.572 440.928C109.603 452.26 110.232 468.285 119.504 474.867C127.746 480.705 141.367 476.87 151.44 476.355C170.213 475.382 188.871 473.494 207.472 470.689C223.555 468.285 239.809 465.08 254.232 457.525C267.567 450.543 279.758 437.952 279.415 422.899C279.129 409.106 267.968 397.373 255.091 392.451C237.978 385.869 219.549 389.475 201.806 389.589C177.539 389.761 153.215 389.074 128.89 388.788Z" fill="#A5B3B7"/>
<path d="M16.9985 151.726L47.8475 193.106L15.396 205.182L9.78711 182.746L16.9985 151.726Z" fill="#FFF3C2"/>
<path d="M3.14787 158.479L17.0557 151.726C17.0557 151.726 23.1224 156.133 23.8664 167.522C24.6105 178.912 15.5104 200.374 15.5104 200.374C15.5104 200.374 23.981 192.076 37.5454 188.584C51.1098 185.093 83.6756 187.039 83.6756 187.039L84.8203 197.856L14.9381 212.966L2.51831 205.869L3.14787 158.479Z" fill="#F4D8AB"/>
<path d="M3.14785 158.48C3.31955 161.284 6.69638 205.983 6.69638 205.983L14.5374 208.273L86.4801 197.627L141.31 269.914L81.558 275.465L16.3116 216.114L1.94596 206.842L0 157.106L3.14785 158.48Z" fill="#6673AA"/>
<path d="M81.6153 275.465L70.6836 270.829L2.00317 206.842L15.9682 211.764L81.6153 275.465Z" fill="#546189"/>
<path d="M83.6184 186.982L137.99 255.605L139.421 267.395L86.5372 197.57L84.7631 197.856L83.6184 186.982Z" fill="#FFF3C2"/>
<path d="M123.281 280.788C143.027 280.559 167.179 272.26 164.718 251.084C159.338 205.297 155.046 178.454 177.653 151.726C201.863 123.109 233.914 123.567 260.184 127.23C286.455 130.893 309.749 148.635 322.512 171.872C335.275 195.109 338.022 223.154 332.585 249.08C328.292 269.398 318.963 288.915 304.082 303.338C295.211 311.923 284.623 318.505 273.462 323.77C238.664 340.196 198.601 343.745 160.54 337.907C130.55 333.328 101.075 322.797 76.8074 304.597C53.7423 287.255 32.108 260.012 27.9299 230.651C34.1112 230.136 41.6661 224.871 47.7328 225.786C56.4324 227.046 60.4386 237.748 65.5324 243.643C77.1509 257.208 105.31 280.96 123.281 280.788Z" fill="#BCCDD3"/>
<path d="M202.665 452.546C202.207 457.697 201.863 463.192 204.267 467.828C207.987 474.867 216.801 477.271 224.7 478.645C264.591 485.57 341.113 484.483 380.661 475.955C385.584 474.925 398.69 455.637 399.377 444.305C401.494 409.449 395.256 376.712 389.304 342.429C383.351 308.146 369.1 275.58 349.87 246.62C333.901 222.581 310.607 199.001 281.762 199.402C255.033 199.802 232.541 221.837 223.04 246.791C210.963 278.499 218.976 310.092 214.798 342.314C210.048 379.001 205.87 415.688 202.665 452.546Z" fill="#BCCDD3"/>
<path d="M284.738 289.03C283.65 300.877 275.58 310.721 267.854 319.707C251.027 339.338 234.372 362.346 210.963 373.392C212.68 367.383 213.138 358.454 214.054 352.273C214.626 348.438 213.768 341.685 216.572 338.708C218.976 336.19 224.871 335.847 228.076 334.702C232.827 333.042 237.462 330.982 241.927 328.635C250.741 324.057 258.925 318.276 266.194 311.522C271.002 307.058 284.108 295.955 284.738 289.03Z" fill="#B3C2C6"/>
<path d="M286.455 396.343C304.541 389.933 323.084 382.95 337.049 369.729C354.448 353.303 362.633 328.635 362.289 304.712C361.946 280.788 353.647 257.551 342.2 236.546C349.126 244.216 354.048 253.373 358.97 262.473C367.955 279.128 376.941 295.841 383.981 313.411C399.262 351.472 405.157 393.252 400.979 434.003C400.121 442.13 398.862 450.371 395.599 457.926C392.337 465.481 386.843 472.292 379.402 475.669C374.309 478.015 368.585 478.645 362.976 479.217C341.456 481.507 319.936 483.796 298.474 486.085C288.744 487.115 278.957 488.146 269.227 487.402C259.212 486.6 249.425 483.968 239.867 480.877C230.309 477.844 220.522 474.181 213.253 467.198C201.634 455.98 197.628 435.262 202.665 419.98C205.469 411.51 213.253 413.627 220.979 412.941C231.568 412.025 242.041 409.907 252.286 407.217C263.79 404.184 275.18 400.349 286.455 396.343Z" fill="#B3C2C6"/>
<path d="M214.626 419.064C203.466 419.923 192.191 420.839 181.602 424.502C171.071 428.222 161.113 435.09 156.248 445.163C147.377 463.421 157.221 484.998 167.924 502.225C171.014 507.204 174.391 512.298 179.485 515.217C187.154 519.567 196.655 517.964 205.24 516.133C245.418 507.662 285.253 497.417 324.572 485.513C334.702 482.422 345.691 478.645 351.415 469.716C365.666 447.452 340.598 411.681 316.502 410.823C283.307 409.678 247.822 416.489 214.626 419.064Z" fill="#BCCDD3"/>
<path d="M316.56 344.546C323.599 358.111 332.356 370.988 336.477 385.697C337.564 389.646 338.366 393.767 340.426 397.316C342.887 401.551 347.065 404.642 351.529 406.588C362.289 411.224 376.884 408.534 382.55 398.289C386.728 390.677 385.24 381.29 383.237 372.877C376.998 346.893 365.723 320.451 343.803 305.227C334.187 298.53 319.765 296.47 312.267 307.745C304.998 318.505 311.294 334.359 316.56 344.546Z" fill="#BCCDD3"/>
<path d="M307.459 342.715C309.577 341.513 312.381 342.085 314.385 343.516C316.388 344.947 317.761 347.064 319.021 349.182C322.912 355.535 326.518 362.06 329.838 368.756C333.272 375.681 339.338 388.845 332.356 395.713C326.289 401.665 319.249 394.168 319.65 387.643C320.108 379.917 323.199 374.823 321.138 366.696C318.906 357.653 314.098 349.239 307.459 342.715Z" fill="#B3C2C6"/>
<path d="M372.305 341.398C368.642 325.316 364.35 309.004 354.734 295.611C351.071 290.46 341.971 281.36 335.103 286.454C336.935 288.457 339.739 289.201 341.971 290.746C346.378 293.837 348.267 298.244 350.843 302.937C357.997 315.758 365.151 328.578 372.305 341.398Z" fill="#B3C2C6"/>
<path d="M342.83 281.761C343.288 276.839 346.436 272.317 350.9 270.2C352.044 269.627 353.304 269.227 354.563 269.284C356.509 269.341 358.283 270.486 359.599 271.86C362.919 275.351 363.835 280.445 364.579 285.195C365.38 290.231 366.181 295.211 367.04 300.247C367.555 303.452 368.07 306.772 366.868 309.805C365.723 312.782 362.232 315.128 359.256 313.926C356.68 312.839 355.707 309.748 354.734 307.058C351.758 298.702 341.971 290.976 342.83 281.761Z" fill="#B3C2C6"/>
<path d="M289.831 162.257C307.917 155.733 326.747 148.006 345.749 150.982C356.852 152.757 367.04 158.079 376.483 164.146C388.846 172.159 401.265 183.491 401.78 198.2C402.41 215.714 386.156 229.049 381.119 245.819C379.23 252.171 378.887 259.211 375.281 264.82C371.561 270.601 365.094 273.863 359.885 278.27C353.189 283.993 348.553 291.72 342.544 298.13C336.534 304.54 328.178 309.977 319.478 308.661C314.385 307.917 309.863 304.941 305.857 301.621C290.118 288.515 279.987 268.826 278.614 248.337C277.641 234.658 280.388 220.578 276.782 207.357C274.607 199.459 270.257 192.133 269.456 184.006C268.941 179.084 269.742 169.011 274.207 165.691C277.812 163.116 285.31 163.917 289.831 162.257Z" fill="#CCDEE2"/>
<path d="M313.355 171.643C320.852 171.357 328.235 173.532 335.332 175.879C345.177 179.141 355.135 182.976 362.805 189.901C368.242 194.823 372.534 202.721 369.444 209.36C367.383 213.825 362.69 216.343 359.084 219.72C354.963 223.554 352.159 228.763 351.243 234.314C350.556 238.55 350.843 243.071 348.954 246.906C345.176 254.575 334.359 256.635 330.754 264.362C329.266 267.567 329.208 271.573 326.747 274.149C324 277.011 319.021 276.896 315.816 274.55C312.553 272.203 310.894 268.254 310.264 264.305C309.634 260.356 309.863 256.349 309.749 252.343C309.577 246.104 308.432 239.866 306.315 233.914C303.11 224.813 297.844 216.572 293.838 207.815C290.862 201.29 285.367 188.298 288.801 181.03C292.006 174.505 306.83 171.872 313.355 171.643Z" fill="#F4BBB5"/>
<path d="M202.035 224.985C204.324 226.302 207.243 226.531 209.59 225.271C211.936 224.069 213.424 221.379 213.081 218.747C212.852 217.03 211.879 215.542 210.906 214.111C209.533 212.108 207.93 209.99 205.698 209.017C195.968 204.896 195.281 221.036 202.035 224.985Z" fill="#54413F"/>
<path d="M200.833 214.454C199.975 215.599 199.745 217.201 200.318 218.518C200.604 219.205 201.119 219.834 201.806 219.949C202.493 220.063 203.237 219.663 203.637 219.09C204.038 218.518 204.21 217.774 204.381 217.087C204.668 215.599 204.668 213.71 203.351 213.023C202.149 212.394 200.432 213.481 200.547 214.798L200.833 214.454Z" fill="white"/>
<path d="M151.498 224.127C152.928 225.042 154.932 224.928 156.649 223.669C158.366 222.41 159.625 219.948 159.625 217.716C159.625 216.286 159.11 215.026 158.537 213.939C157.793 212.336 156.878 210.677 155.447 210.047C149.151 207.357 147.205 221.379 151.498 224.127Z" fill="#54413F"/>
<path d="M151.612 215.141C150.925 216.228 150.639 217.602 150.868 218.689C150.983 219.262 151.269 219.72 151.784 219.777C152.242 219.834 152.814 219.376 153.157 218.861C153.501 218.346 153.673 217.659 153.844 217.087C154.188 215.77 154.359 214.168 153.501 213.653C152.757 213.195 151.498 214.282 151.383 215.427L151.612 215.141Z" fill="white"/>
<path d="M172.789 212.851C171.873 213.023 170.957 213.424 170.27 214.168C168.954 215.599 168.782 217.888 168.839 219.948C168.839 220.177 168.84 220.406 168.897 220.635C169.011 220.979 169.297 221.265 169.526 221.551C170.213 222.238 170.9 222.867 171.587 223.497C171.014 222.352 171.529 220.75 172.445 219.948C173.361 219.147 174.62 219.033 175.822 219.204C179.027 219.72 181.774 222.638 182.518 226.244C182.633 226.702 182.862 227.332 183.262 227.16C182.747 224.012 182.862 218.747 181.374 216.057C179.771 213.252 175.421 212.279 172.789 212.851Z" fill="#54413F"/>
<path opacity="0.44" d="M227.905 207.929C228.82 211.421 229.049 215.141 228.935 218.747C228.82 222.238 228.305 225.786 226.932 228.877C225.386 232.425 222.868 235.23 220.407 237.977C218.347 240.209 216.286 242.556 213.653 243.7C210.677 245.017 207.358 244.788 204.21 244.044C200.776 243.242 197.456 241.869 194.595 239.58C188.642 234.715 185.723 226.473 183.491 218.518C182.862 216.171 182.232 213.767 182.347 211.306C182.518 208.502 183.606 205.926 184.922 203.58C188.928 196.483 195.11 190.988 202.035 188.184C205.469 186.81 206.957 187.783 209.876 189.386C212.509 190.816 215.313 191.217 217.889 193.106C222.582 196.483 226.302 201.748 227.905 207.929Z" fill="#9DAAA9"/>
<path opacity="0.44" d="M167.466 213.596C168.267 216.858 168.553 220.235 168.553 223.611C168.553 226.817 168.267 230.022 167.237 232.883C166.149 236.088 164.204 238.607 162.315 241.011C160.77 243.014 159.167 245.074 157.164 246.047C154.875 247.192 152.242 246.848 149.723 246.047C147.034 245.189 144.343 243.815 142.054 241.583C137.246 236.947 134.728 229.22 132.782 221.837C132.21 219.662 131.638 217.43 131.695 215.198C131.752 212.623 132.553 210.276 133.526 208.216C136.502 201.805 141.196 196.941 146.633 194.651C149.323 193.507 150.467 194.48 152.814 196.025C154.932 197.398 157.164 197.914 159.224 199.688C163.059 202.893 166.092 207.929 167.466 213.596Z" fill="#9DAAA9"/>
<path d="M181.145 222.696C178.054 205.64 186.639 189.042 200.318 185.78C213.997 182.46 227.676 193.678 230.766 210.734C233.857 227.789 225.272 244.387 211.593 247.649C197.914 250.969 184.293 239.751 181.145 222.696ZM186.296 221.494C188.757 235.001 199.574 243.929 210.448 241.296C221.323 238.664 228.133 225.557 225.615 211.993C223.154 198.486 212.337 189.557 201.463 192.19C190.645 194.823 183.835 207.929 186.296 221.494Z" fill="#54413F"/>
<path d="M132.496 225.386C129.634 209.818 136.331 194.995 147.32 192.362C158.366 189.729 169.641 200.203 172.445 215.77C175.25 231.338 168.61 246.161 157.622 248.794C146.633 251.427 135.3 240.953 132.496 225.386ZM136.788 224.355C139.078 236.832 147.949 245.303 156.591 243.243C165.234 241.182 170.385 229.335 168.095 216.858C165.806 204.381 156.935 195.91 148.292 197.971C139.707 200.031 134.556 211.879 136.788 224.355Z" fill="#54413F"/>
<path opacity="0.59" d="M219.835 202.836C220.35 203.866 220.808 205.011 220.865 206.212C220.922 207.414 220.464 208.674 219.549 209.303C218.289 210.162 216.572 209.418 215.542 208.216C214.512 207.014 213.94 205.354 213.138 203.98C211.765 201.634 209.704 199.86 207.415 199.058C206.156 198.6 204.668 198.257 204.095 196.941C203.981 196.654 203.867 196.254 203.981 195.91C204.095 195.624 204.324 195.395 204.611 195.281C209.361 192.362 217.374 198.314 219.835 202.836Z" fill="white"/>
<path opacity="0.59" d="M159.396 203.58C160.311 204.267 161.113 205.125 161.628 206.155C162.143 207.243 162.315 208.559 161.914 209.704C161.742 210.104 161.513 210.505 161.17 210.734C160.483 211.135 159.567 210.734 158.995 210.104C158.423 209.475 158.022 208.674 157.393 208.044C156.076 206.728 154.13 206.785 152.413 206.67C150.696 206.613 148.693 206.098 147.835 204.381C147.663 204.038 147.606 203.694 147.663 203.351C147.72 203.122 147.892 202.893 148.063 202.721C151.154 199.459 156.305 201.233 159.396 203.58Z" fill="white"/>
<path d="M262.207 184.6C269.647 179.392 277.545 174.298 286.417 172.41C290.309 171.551 295.231 171.837 297.234 175.271C292.426 177.79 286.588 177.16 281.437 178.934C278.118 180.079 275.256 182.139 272.509 184.314C257.685 195.646 244.178 208.524 230.843 221.516C230.27 218.311 226.092 212.988 227.18 210.813C228.782 207.608 236.051 204.003 238.913 201.77C246.582 195.875 254.308 190.095 262.207 184.6Z" fill="#54413F"/>
<path d="M150.983 460.158C149.208 471.662 152.242 483.567 157.736 493.869C163.059 503.827 171.529 513.099 182.69 515.045C186.124 515.618 189.959 515.446 192.706 513.328C195.739 511.039 196.884 507.033 197.685 503.312C201.634 484.883 201.634 464.794 192.706 448.254C190.302 443.789 187.211 439.554 183.091 436.635C166.722 425.131 153.215 445.506 150.983 460.158Z" fill="#F4BBB5"/>
<path d="M110.862 458.842C111.835 464.394 113.323 470.403 117.329 473.494C118.703 474.524 120.42 475.154 122.022 474.696C125.056 473.78 126.257 469.545 126.887 465.939C128.947 454.549 130.321 442.988 131.065 431.37C131.58 423.472 131.752 415.402 130.207 407.618C129.062 401.837 126.2 391.306 120.248 390.333C107.084 388.158 107.428 420.381 107.657 429.138C107.886 439.154 109.087 449.055 110.862 458.842Z" fill="#F4BBB5"/>
<path d="M221.723 339.052C229.221 337.049 234.544 330.982 238.836 324.915C243.644 318.047 248.108 310.607 250.455 302.537C251.771 297.958 252.343 293.151 251.828 288.457C251.771 287.828 251.37 287.313 250.683 287.313C250.111 287.313 249.424 287.828 249.482 288.457C250.455 296.642 247.879 304.597 244.159 311.751C242.27 315.414 240.095 318.906 237.806 322.283C235.803 325.259 233.628 328.235 231.052 330.753C228.248 333.558 224.986 335.79 221.094 336.82C219.663 337.163 220.292 339.395 221.723 339.052Z" fill="#A5B3B7"/>
<path d="M247.364 286.626C247.879 286.397 248.451 286.225 248.966 286.111C249.253 286.053 249.539 285.996 249.825 285.939C249.882 285.939 250.226 285.882 249.997 285.939C250.111 285.939 250.283 285.882 250.397 285.882C250.97 285.824 251.485 285.824 252.057 285.882C252.172 285.882 252.286 285.882 252.4 285.882C252.458 285.882 252.916 285.939 252.687 285.939C252.801 285.939 252.916 285.996 253.03 285.996C253.087 285.996 253.145 285.996 253.202 286.053C252.973 285.939 252.801 285.767 252.687 285.538C252.687 285.309 252.687 285.138 252.687 284.909V284.966C252.801 284.794 252.916 284.623 252.973 284.451C252.973 284.451 252.973 284.451 252.916 284.508C253.087 284.394 253.259 284.279 253.431 284.222C253.717 284.279 254.06 284.394 254.346 284.451C254.461 284.737 254.575 285.023 254.69 285.309C254.69 285.309 254.69 285.309 254.69 285.252C254.575 285.538 254.461 285.824 254.346 286.111C254.346 286.111 254.346 286.111 254.404 286.053C254.804 285.595 254.862 284.851 254.404 284.394C253.946 283.993 253.202 283.936 252.744 284.394C252.114 285.08 252.343 286.053 253.145 286.397C253.889 286.683 254.69 286.34 254.919 285.538C255.148 284.737 254.518 284.05 253.831 283.821C253.373 283.707 252.801 283.65 252.343 283.592C250.455 283.421 248.451 283.707 246.677 284.451C246.105 284.68 245.647 285.252 245.876 285.882C246.105 286.34 246.734 286.855 247.364 286.626Z" fill="#A5B3B7"/>
<path d="M116.413 291.262C116.528 295.497 115.669 299.675 114.811 303.796C118.073 299.217 118.932 293.437 119.676 287.828C119.962 285.71 120.191 283.306 118.874 281.589C117.215 279.472 113.952 279.186 111.549 278.384C112.006 280.101 114.067 281.933 114.925 283.936C115.898 286.225 116.356 288.744 116.413 291.262Z" fill="#B3C2C6"/>
<path d="M146.576 310.378C147.205 307.344 146.919 304.139 146.461 301.049C145.66 295.154 145.145 287.656 142.569 282.219C140.852 278.67 135.816 278.384 135.014 282.963C134.385 286.454 140.623 291.548 142.283 294.696C144.343 298.645 147.549 305.799 146.576 310.378Z" fill="#B3C2C6"/>
<path opacity="0.18" d="M173.59 437.379C171.415 441.099 171.816 446.537 175.25 449.112C177.997 451.115 181.831 450.944 184.979 449.627C188.127 448.311 190.76 446.079 193.507 444.076C204.782 435.948 218.576 432.057 232.312 429.882C246.048 427.764 260.013 427.249 273.749 425.246C276.553 424.845 279.472 424.273 281.475 422.327C275.695 420.781 269.628 420.781 263.619 420.896C246.906 421.182 230.194 422.441 213.653 424.616C202.264 426.161 180.343 425.704 173.59 437.379Z" fill="white"/>
<path opacity="0.18" d="M113.838 404.813C113.666 408.133 116.471 411.567 119.79 411.338C122.079 411.166 123.968 409.506 125.914 408.305C127.86 407.16 129.978 406.416 132.153 405.729C140.108 403.268 150.124 403.554 157.564 400.521C166.607 396.858 150.41 395.084 146.404 394.683C137.704 393.824 114.41 392.222 113.838 404.813Z" fill="white"/>
<path opacity="0.18" d="M342.658 379.287C343.746 384.267 344.661 389.532 347.695 393.596C350.785 397.716 356.795 400.12 361.088 397.43C365.094 394.969 365.895 389.246 364.293 384.839C362.69 380.432 359.313 376.941 356.223 373.449C350.9 367.383 346.092 360.858 341.971 353.875C338.251 347.58 334.016 340.254 326.747 339.281C330.925 339.853 334.76 353.875 335.962 357.081C338.824 364.292 341.056 371.732 342.658 379.287Z" fill="white"/>
<path d="M408.763 462.276C422.614 463.306 437.036 460.273 448.254 452.146C452.203 449.284 455.866 445.621 457.412 440.928C456.381 449.398 450.658 456.781 443.504 461.532C436.407 466.282 427.994 468.686 419.637 470.46C405.959 473.437 391.936 474.982 377.914 475.096C374.881 475.096 371.79 475.039 369.043 473.837C366.296 472.635 364.006 469.888 364.178 466.912C364.292 464.68 365.723 462.734 367.211 461.074C369.844 458.212 373.049 455.751 376.712 454.549C382.207 452.775 386.556 454.549 391.192 457.297C396.629 460.444 402.582 461.818 408.763 462.276Z" fill="#B3C2C6"/>
</svg>