<svg width="49" height="48" viewBox="0 0 49 48" fill="none" xmlns="http://www.w3.org/2000/svg">
<rect x="0.5" width="48" height="48" rx="6" fill="#FECB32"/>
<g clip-path="url(#clip0_1081_13661)">
<path d="M11.0089 17.1776C11.0089 16.8668 11.1584 16.5451 11.4726 16.2264C11.7873 15.9073 12.2534 15.6067 12.8443 15.3478C14.0254 14.8305 15.6603 14.4998 17.4397 14.4998C19.2217 14.4998 20.8566 14.8305 22.037 15.3478C22.6276 15.6066 23.0932 15.9072 23.4075 16.2263C23.7212 16.5449 23.8705 16.8667 23.8705 17.1776V31.9247C22.4958 30.8523 20.1318 30.1897 17.4397 30.1897C14.7463 30.1897 12.3829 30.861 11.0089 31.9272V17.1776Z" stroke="white" stroke-width="0.5"/>
<path d="M25.1295 31.9272V17.1776C25.1295 16.8657 25.2774 16.5437 25.5881 16.2256C25.8995 15.9067 26.3614 15.6063 26.9492 15.3476C28.124 14.8306 29.7574 14.4998 31.5551 14.4998C33.3529 14.4998 34.9956 14.8306 36.1798 15.3479C36.7723 15.6067 37.2388 15.9074 37.5535 16.2264C37.8677 16.545 38.0169 16.8667 38.0169 17.1776V31.9304C36.624 30.8554 34.2492 30.1897 31.5551 30.1897C28.8663 30.1897 26.5034 30.861 25.1295 31.9272Z" stroke="white" stroke-width="0.5"/>
<path d="M38.4911 33.0825L38.0635 32.6509C36.9286 31.5056 34.4947 30.6847 31.5293 30.6847C28.5639 30.6847 26.1667 31.4954 25.032 32.6502L24.6037 33.0861V32.475V17.1726C24.6037 16.6905 24.8366 16.2497 25.2096 15.8706C25.5819 15.4919 26.1073 15.1597 26.7339 14.8848C27.9879 14.3347 29.6921 13.9947 31.5293 13.9947C33.3666 13.9947 35.0797 14.336 36.3424 14.8872C36.9733 15.1626 37.503 15.4953 37.8788 15.8741C38.2536 16.252 38.4894 16.6915 38.4911 17.1726V33.0825ZM38.4911 33.0825V32.475M38.4911 33.0825V32.475M38.4911 32.475V17.1777V32.475ZM24.2882 16.1413L24.4952 16.4579L24.7053 16.1433C25.1596 15.4632 26.0344 14.8621 27.235 14.4309C28.4305 14.0016 29.9243 13.75 31.5809 13.75C33.6401 13.75 35.4614 14.1541 36.7586 14.7977C38.0697 15.4481 38.7758 16.3028 38.7758 17.1777V34.1225V34.1373L38.7776 34.1519C38.7796 34.1693 38.7779 34.187 38.7726 34.2038C38.7672 34.2207 38.7582 34.2364 38.746 34.25C38.7338 34.2635 38.7187 34.2745 38.7015 34.2822C38.6842 34.2898 38.6654 34.2938 38.6464 34.2938C38.6273 34.2938 38.6085 34.2898 38.5913 34.2822C38.5741 34.2745 38.5589 34.2635 38.5467 34.25C38.5345 34.2364 38.5255 34.2207 38.5202 34.2038C38.5148 34.187 38.5131 34.1693 38.5152 34.1519L38.5169 34.1373V34.1225C38.5169 33.6394 38.2807 33.1984 37.9045 32.8196C37.5287 32.4413 36.9989 32.1092 36.368 31.8345C35.1053 31.2847 33.3923 30.9447 31.5551 30.9447C29.718 30.9447 28.0137 31.2847 26.7597 31.8348C26.1331 32.1096 25.6078 32.4419 25.2354 32.8205C24.8625 33.1997 24.6295 33.6404 24.6295 34.1225V34.1373L24.6312 34.1519C24.6333 34.1693 24.6316 34.187 24.6262 34.2038C24.6208 34.2207 24.6119 34.2364 24.5997 34.25C24.5875 34.2635 24.5723 34.2745 24.5551 34.2822C24.5379 34.2898 24.5191 34.2938 24.5 34.2938C24.4809 34.2938 24.4622 34.2898 24.4449 34.2822C24.4277 34.2745 24.4126 34.2635 24.4004 34.25C24.3882 34.2364 24.3792 34.2207 24.3738 34.2038C24.3684 34.187 24.3668 34.1693 24.3688 34.1519L24.3705 34.1373V34.1225C24.3705 33.6403 24.1371 33.1995 23.7637 32.8204C23.3909 32.4418 22.8649 32.1096 22.2377 31.8347C20.9824 31.2847 19.2769 30.9447 17.4398 30.9447C15.6026 30.9447 13.8971 31.2847 12.6418 31.8347C12.0147 32.1096 11.4886 32.4418 11.1158 32.8204C10.7424 33.1995 10.509 33.6403 10.509 34.1225V34.1373L10.5107 34.1519C10.5128 34.1693 10.5111 34.187 10.5057 34.2038C10.5003 34.2207 10.4913 34.2364 10.4791 34.25C10.4669 34.2635 10.4518 34.2745 10.4346 34.2822C10.4174 34.2898 10.3986 34.2938 10.3795 34.2938C10.3604 34.2938 10.3416 34.2898 10.3244 34.2822C10.3072 34.2745 10.292 34.2635 10.2798 34.25C10.2676 34.2364 10.2587 34.2207 10.2533 34.2038C10.2479 34.187 10.2462 34.1693 10.2483 34.1519L10.25 34.1373V34.1225V17.1777C10.25 16.2922 10.9568 15.4377 12.2663 14.7902C13.5627 14.1492 15.3827 13.75 17.4398 13.75C19.0834 13.75 20.5759 14.0016 21.7708 14.4309C22.9714 14.8623 23.8447 15.4631 24.2882 16.1413ZM23.943 32.6509L24.3705 33.0825V32.475V17.1777C24.3705 16.6955 24.1372 16.2544 23.7639 15.8749C23.391 15.4958 22.8651 15.1629 22.2379 14.8874C20.9826 14.336 19.277 13.9947 17.4398 13.9947C15.6026 13.9947 13.8971 14.3347 12.6418 14.8848C12.0147 15.1596 11.4886 15.4918 11.1158 15.8704C10.7424 16.2495 10.509 16.6903 10.509 17.1726V32.475V33.0861L10.9373 32.6502C12.0718 31.4957 14.4997 30.6847 17.4398 30.6847C20.3788 30.6847 22.8079 31.5054 23.943 32.6509Z" fill="white" stroke="white" stroke-width="0.5"/>
</g>
<defs>
<clipPath id="clip0_1081_13661">
<rect width="29" height="21" fill="white" transform="translate(10 13.5)"/>
</clipPath>
</defs>
</svg>
