<svg width="48" height="48" viewBox="0 0 48 48" fill="none" xmlns="http://www.w3.org/2000/svg">
<rect width="48" height="48" rx="6" fill="#FECB32"/>
<path d="M17.1447 23.6437C17.1322 24.6346 17.2484 25.6229 17.4903 26.584C18.0032 28.6685 19.2539 31.521 19.6845 32.4892C19.474 32.7848 19.3716 33.1438 19.3946 33.5059C19.4176 33.868 19.5645 34.2112 19.8107 34.4778C19.5507 34.7645 19.4036 35.1358 19.3965 35.5228C19.3959 35.7458 19.441 35.9665 19.5293 36.1713C19.6175 36.3761 19.7469 36.5605 19.9094 36.7132C19.674 36.9951 19.5432 37.3497 19.5392 37.717C19.5556 38.1793 19.7533 38.6165 20.0895 38.9342C20.4256 39.2518 20.8733 39.4245 21.3357 39.4148L27.8334 39.4999H27.8609C28.3498 39.5029 28.8208 39.3161 29.1747 38.9787C29.3325 38.8286 29.4578 38.6477 29.5428 38.4472C29.6278 38.2466 29.6708 38.0308 29.669 37.813C29.6672 37.5952 29.6207 37.3801 29.5323 37.181C29.444 36.9819 29.3157 36.8031 29.1555 36.6556C29.4014 36.3612 29.5327 35.9878 29.5252 35.6042C29.5176 35.2207 29.3717 34.8528 29.1143 34.5683C29.3776 34.2769 29.5234 33.8982 29.5234 33.5055C29.5234 33.1127 29.3776 32.734 29.1143 32.4426C29.5696 31.4305 30.7847 28.6356 31.2894 26.584C31.5335 25.6233 31.6515 24.6349 31.6404 23.6437C31.6592 22.68 31.4856 21.7223 31.1298 20.8265C30.7739 19.9307 30.2431 19.1149 29.5682 18.4268C28.8933 17.7386 28.0879 17.192 27.1993 16.8188C26.3106 16.4456 25.3564 16.2534 24.3926 16.2534C23.4287 16.2534 22.4745 16.4456 21.5859 16.8188C20.6972 17.192 19.8918 17.7386 19.217 18.4268C18.5421 19.1149 18.0112 19.9307 17.6554 20.8265C17.2995 21.7223 17.1259 22.68 17.1447 23.6437V23.6437ZM28.4067 38.1806C28.3344 38.251 28.2484 38.3058 28.154 38.3417C28.0597 38.3775 27.9589 38.3937 27.8581 38.389L21.3494 38.3177C21.1769 38.3308 21.006 38.2764 20.873 38.1658C20.7399 38.0552 20.655 37.8973 20.6363 37.7253C20.6466 37.5926 20.7002 37.4671 20.7889 37.3679C20.8777 37.2688 20.9966 37.2016 21.1272 37.1767C21.2476 37.1437 21.3531 37.0707 21.4264 36.9696C21.4996 36.8686 21.5362 36.7456 21.5302 36.621C21.5241 36.4963 21.4757 36.3775 21.393 36.284C21.3102 36.1906 21.1981 36.1281 21.0751 36.107C20.9261 36.0931 20.7865 36.0277 20.6804 35.9221C20.5743 35.8165 20.5083 35.6773 20.4937 35.5283C20.5018 35.3996 20.5509 35.2769 20.6338 35.1782C20.7168 35.0795 20.8291 35.0099 20.9544 34.9797C21.0652 34.9443 21.1619 34.8746 21.2304 34.7807C21.299 34.6868 21.336 34.5735 21.336 34.4572C21.336 34.3409 21.299 34.2276 21.2304 34.1337C21.1619 34.0398 21.0652 33.9701 20.9544 33.9347C20.8289 33.9039 20.7163 33.8344 20.6325 33.7359C20.5488 33.6374 20.4983 33.515 20.4882 33.3861C20.4907 33.2933 20.5192 33.203 20.5705 33.1256H28.275C28.3746 33.2222 28.4318 33.3544 28.4341 33.4931C28.4236 33.6188 28.3737 33.7379 28.2914 33.8335C28.2091 33.929 28.0988 33.9962 27.976 34.0252C27.8653 34.0606 27.7686 34.1303 27.7001 34.2242C27.6315 34.3182 27.5945 34.4314 27.5945 34.5477C27.5945 34.664 27.6315 34.7773 27.7001 34.8712C27.7686 34.9651 27.8653 35.0348 27.976 35.0702C28.1013 35.1011 28.2136 35.1708 28.2968 35.2693C28.3801 35.3678 28.43 35.4902 28.4396 35.6188C28.4308 35.7515 28.378 35.8775 28.2896 35.9769C28.2012 36.0762 28.0822 36.1432 27.9514 36.1674C27.8295 36.1989 27.7223 36.2714 27.6475 36.3727C27.5728 36.474 27.5352 36.5979 27.541 36.7236C27.5468 36.8493 27.5956 36.9692 27.6793 37.0632C27.763 37.1572 27.8765 37.2195 28.0007 37.2398C28.15 37.2532 28.2898 37.3184 28.396 37.4241C28.5022 37.5298 28.5681 37.6694 28.5822 37.8185C28.5807 37.8895 28.5643 37.9594 28.534 38.0237C28.5038 38.0879 28.4604 38.1451 28.4067 38.1916V38.1806ZM24.3939 17.4915C26.0247 17.4937 27.5879 18.1427 28.7408 19.296C29.8936 20.4494 30.5419 22.0129 30.5433 23.6437C30.5551 24.5458 30.45 25.4456 30.2306 26.3207C29.7452 28.2955 28.5164 31.1069 28.094 32.0422H20.6884C20.266 31.1069 19.0427 28.2982 18.5517 26.3234C18.3323 25.4475 18.2281 24.5466 18.2418 23.6437C18.2433 22.0125 18.8919 20.4485 20.0453 19.2951C21.1988 18.1416 22.7627 17.493 24.3939 17.4915V17.4915Z" fill="white"/>
<path d="M16.7991 11.0049C16.7483 10.9378 16.6846 10.8815 16.6117 10.8393C16.5389 10.7971 16.4584 10.7698 16.3749 10.7591C16.2914 10.7483 16.2066 10.7544 16.1254 10.7768C16.0443 10.7992 15.9684 10.8376 15.9022 10.8897C15.8355 10.9418 15.7797 11.0067 15.7382 11.0806C15.6967 11.1544 15.6701 11.2358 15.6602 11.3199C15.6503 11.4041 15.6571 11.4894 15.6803 11.5709C15.7034 11.6524 15.7425 11.7285 15.7953 11.7948L19.0674 15.9501C19.1273 16.026 19.2036 16.0873 19.2905 16.1296C19.3774 16.1719 19.4727 16.194 19.5694 16.1943H19.5913C19.7269 16.1907 19.8577 16.1436 19.9643 16.0599C20.0979 15.9545 20.1846 15.8008 20.2057 15.632C20.2156 15.5484 20.2089 15.4636 20.1858 15.3826C20.1627 15.3016 20.1238 15.226 20.0713 15.1602L16.7991 11.0049ZM19.6242 15.6237C19.6097 15.6364 19.5914 15.6441 19.5721 15.6457C19.5578 15.6462 19.5436 15.6433 19.5307 15.6371C19.5178 15.6309 19.5066 15.6216 19.4981 15.61L16.2259 11.4547C16.2118 11.4357 16.205 11.4124 16.2067 11.3888C16.2083 11.3769 16.2123 11.3654 16.2184 11.3551C16.2246 11.3447 16.2327 11.3357 16.2424 11.3285C16.2576 11.3154 16.2772 11.3086 16.2972 11.3093C16.309 11.3103 16.3205 11.3137 16.3309 11.3194C16.3412 11.3251 16.3503 11.3328 16.3575 11.3422L19.6407 15.4976C19.6483 15.5066 19.6539 15.5171 19.6572 15.5285C19.6605 15.5398 19.6614 15.5517 19.6599 15.5634C19.6583 15.5753 19.6543 15.5868 19.6481 15.5972C19.642 15.6075 19.6339 15.6166 19.6242 15.6237V15.6237Z" fill="white"/>
<path d="M28.6507 16.0379C28.7553 16.1081 28.8786 16.1453 29.0045 16.1449H29.0265C29.1274 16.1421 29.2263 16.1159 29.3153 16.0683C29.4044 16.0207 29.4811 15.953 29.5394 15.8706L32.2356 11.8112C32.2828 11.7416 32.3155 11.6633 32.332 11.5809C32.3485 11.4985 32.3484 11.4136 32.3316 11.3312C32.2969 11.1652 32.1984 11.0194 32.0573 10.9253C31.916 10.8322 31.7436 10.7987 31.5776 10.8321C31.4117 10.8655 31.2657 10.963 31.1714 11.1036L28.4724 15.1629C28.3795 15.3045 28.346 15.4769 28.3792 15.6429C28.4148 15.8049 28.5122 15.9467 28.6507 16.0379V16.0379ZM28.925 15.4537L31.6239 11.397C31.63 11.3867 31.6384 11.3779 31.6483 11.3713C31.6583 11.3646 31.6697 11.3603 31.6815 11.3586C31.6919 11.3541 31.7031 11.3518 31.7144 11.3518C31.7258 11.3518 31.737 11.3541 31.7474 11.3586C31.7577 11.365 31.7667 11.3734 31.7738 11.3833C31.7809 11.3932 31.7859 11.4044 31.7885 11.4162C31.7967 11.4384 31.7967 11.4627 31.7885 11.4848L29.0813 15.5524C29.0735 15.565 29.0626 15.5753 29.0496 15.5825C29.0367 15.5897 29.0221 15.5935 29.0073 15.5935C28.9891 15.5929 28.9713 15.5882 28.9552 15.5798C28.9351 15.5654 28.9213 15.5438 28.9168 15.5195C28.9146 15.5082 28.9147 15.4965 28.9171 15.4852C28.9194 15.4739 28.924 15.4632 28.9305 15.4537H28.925Z" fill="white"/>
<path d="M24.2595 15.089H24.3089C24.4697 15.083 24.6224 15.0168 24.7367 14.9035C24.851 14.7903 24.9185 14.6382 24.926 14.4774L25.1536 9.08778C25.1411 8.93246 25.0723 8.78707 24.96 8.67896C24.8478 8.57085 24.7 8.50746 24.5443 8.50072C24.3886 8.49398 24.2358 8.54435 24.1147 8.64236C23.9935 8.74037 23.9124 8.87926 23.8865 9.03292L23.6588 14.4253C23.6551 14.5091 23.6681 14.5928 23.6969 14.6716C23.7257 14.7504 23.7697 14.8227 23.8266 14.8844C23.8834 14.9461 23.9519 14.9959 24.0281 15.031C24.1043 15.0662 24.1866 15.0859 24.2705 15.089H24.2595ZM24.1964 14.4555L24.435 9.0576C24.4354 9.04517 24.4383 9.03295 24.4435 9.02164C24.4486 9.01034 24.456 9.00018 24.4652 8.99178C24.4798 8.97909 24.498 8.9714 24.5173 8.96983C24.5295 8.96951 24.5415 8.97208 24.5525 8.97732C24.5635 8.98257 24.573 8.99034 24.5804 9.00001C24.5895 9.00822 24.5964 9.01848 24.6007 9.02993C24.605 9.04138 24.6065 9.05369 24.6051 9.06583L24.3774 14.4555C24.3767 14.479 24.3669 14.5013 24.35 14.5177C24.3331 14.5341 24.3105 14.5432 24.2869 14.5432C24.2749 14.543 24.263 14.5401 24.2521 14.5349C24.2413 14.5297 24.2316 14.5223 24.2238 14.5131C24.2157 14.5058 24.209 14.4969 24.2043 14.487C24.1996 14.4771 24.1969 14.4664 24.1964 14.4555V14.4555Z" fill="white"/>
<path d="M20.5073 22.6179C20.6646 22.6279 20.8196 22.5762 20.9394 22.4738C21.0593 22.3714 21.1345 22.2263 21.1491 22.0694C21.1575 21.9066 21.1814 21.7449 21.2204 21.5866C21.3263 21.1966 21.5412 20.8449 21.84 20.5728C22.1388 20.3007 22.5091 20.1196 22.9073 20.0507C23.087 20.0057 23.2708 19.979 23.4558 19.9711C23.5347 19.9693 23.6125 19.952 23.6847 19.9202C23.7569 19.8883 23.8221 19.8426 23.8766 19.7855C23.9311 19.7285 23.9738 19.6612 24.0024 19.5877C24.0309 19.5141 24.0446 19.4356 24.0428 19.3567C24.0385 19.1974 23.9716 19.0462 23.8566 18.9358C23.7416 18.8254 23.5878 18.7648 23.4284 18.767C22.3011 18.7917 20.137 19.4911 19.9588 21.9679C19.952 22.0466 19.9608 22.1259 19.9847 22.2012C20.0087 22.2765 20.0472 22.3463 20.0982 22.4067C20.1491 22.4671 20.2115 22.5169 20.2817 22.5531C20.3519 22.5893 20.4286 22.6114 20.5073 22.6179V22.6179Z" fill="white"/>
</svg>
