<svg width="49" height="48" viewBox="0 0 49 48" fill="none" xmlns="http://www.w3.org/2000/svg">
<rect x="0.5" width="48" height="48" rx="6" fill="#FECB32"/>
<g clip-path="url(#clip0_1081_13648)">
<path d="M14.8898 22.2451C14.4665 22.6685 14.1316 23.1719 13.9044 23.7259C13.6773 24.28 13.5625 24.8736 13.5666 25.4724C13.5666 26.6803 14.045 27.8389 14.8971 28.6947C15.7493 29.5505 16.9056 30.0337 18.1131 30.0386V30.0386C19.0357 30.0379 19.9363 29.7572 20.696 29.2336C21.4557 28.71 22.0387 27.9681 22.368 27.1061H26.6289C26.9598 27.9676 27.5437 28.7088 28.3036 29.2323C29.0636 29.7557 29.9641 30.0368 30.8868 30.0386V30.0386C31.5761 30.0371 32.256 29.8794 32.8755 29.5773C33.4951 29.2752 34.0381 28.8366 34.4639 28.2945C34.8897 27.7523 35.1871 27.1208 35.3339 26.4471C35.4807 25.7735 35.4729 25.0754 35.3113 24.4052C35.1496 23.735 34.8382 23.1102 34.4005 22.5776C33.9628 22.0451 33.4102 21.6187 32.7841 21.3304C32.158 21.0421 31.4748 20.8995 30.7857 20.9133C30.0966 20.927 29.4196 21.0968 28.8055 21.4098C28.534 20.9914 28.2112 20.6087 27.8446 20.2706C27.738 20.171 27.5995 20.1126 27.4538 20.1058C27.3081 20.0991 27.1648 20.1444 27.0495 20.2337C27.0249 20.2552 24.5138 22.1253 22.1193 20.4149L20.8545 18.4588C21.2819 18.9824 21.8205 19.4042 22.4311 19.6937C23.0417 19.9831 23.7091 20.133 24.3849 20.1324C25.5955 20.1324 26.7566 19.6513 27.6127 18.795C28.4688 17.9387 28.9498 16.7772 28.9498 15.5662C28.9498 14.3552 28.4688 13.1937 27.6127 12.3374C26.7566 11.4811 25.5955 11 24.3849 11C23.6057 10.9995 22.8394 11.199 22.1592 11.5793C21.4791 11.9597 20.9078 12.5081 20.5001 13.1723C20.0923 13.8365 19.8617 14.5942 19.8302 15.373C19.7988 16.1518 19.9675 16.9256 20.3204 17.6205L18.7854 15.2653C18.5589 14.926 18.2081 14.6895 17.8087 14.6068C17.4094 14.524 16.9935 14.6017 16.6509 14.8231C16.3083 15.0444 16.0665 15.3916 15.9777 15.7898C15.8888 16.1879 15.9601 16.6051 16.176 16.9511L18.7854 20.9584C18.568 20.9254 18.3484 20.908 18.1285 20.9062C17.5268 20.9031 16.9305 21.0199 16.3745 21.2498C15.8184 21.4796 15.3137 21.818 14.8898 22.2451V22.2451ZM22.0303 13.214C22.3389 12.9033 22.7059 12.6566 23.11 12.4881C23.5142 12.3195 23.9476 12.2324 24.3855 12.2317C24.8234 12.231 25.2571 12.3168 25.6618 12.4841C26.0664 12.6514 26.4341 12.8969 26.7438 13.2066C27.0534 13.5163 27.2989 13.8841 27.4661 14.2889C27.6334 14.6937 27.7191 15.1276 27.7184 15.5656C27.7177 16.0036 27.6306 16.4371 27.4621 16.8414C27.2936 17.2457 27.047 17.6127 26.7364 17.9215C26.4277 18.2321 26.0608 18.4788 25.6566 18.6474C25.2525 18.816 24.819 18.9031 24.3812 18.9038C23.9433 18.9045 23.5096 18.8187 23.1049 18.6514C22.7002 18.4841 22.3325 18.2386 22.0229 17.9288C21.7133 17.6191 21.4678 17.2513 21.3005 16.8465C21.1333 16.4417 21.0475 16.0079 21.0482 15.5699C21.0489 15.1319 21.136 14.6983 21.3045 14.2941C21.473 13.8898 21.7197 13.5228 22.0303 13.214V13.214ZM28.5292 23.1141C28.8375 22.8025 29.2048 22.5554 29.6096 22.3873C30.0144 22.2191 30.4485 22.1332 30.8868 22.1345C31.7705 22.1361 32.6176 22.488 33.2425 23.1131C33.8673 23.7381 34.2191 24.5854 34.2207 25.4694C34.2199 26.3541 33.8686 27.2025 33.2437 27.8287C32.6189 28.4549 31.7714 28.8079 30.8868 28.8103V28.8103C30.2274 28.8113 29.5824 28.6164 29.0338 28.2504C28.4852 27.8843 28.0575 27.3636 27.805 26.7542C27.5525 26.1448 27.4865 25.4742 27.6154 24.8272C27.7444 24.1803 28.0624 23.5862 28.5292 23.1202V23.1141ZM17.0233 16.4076C16.9839 16.3469 16.9568 16.2791 16.9436 16.208C16.9305 16.1368 16.9315 16.0638 16.9466 15.993C16.9617 15.9223 16.9906 15.8552 17.0317 15.7957C17.0728 15.7361 17.1252 15.6853 17.186 15.646C17.3096 15.5703 17.4575 15.545 17.5992 15.5753C17.7409 15.6056 17.8655 15.6892 17.9473 15.8088L20.922 20.4149L21.6864 21.6002L21.7356 21.6493C21.943 21.7747 22.1583 21.8865 22.3802 21.9841C22.5622 22.062 22.7488 22.1287 22.939 22.1837C24.8423 22.7425 26.5798 21.9533 27.3381 21.5173C27.5047 21.7103 27.6566 21.9156 27.7924 22.1315C27.7494 22.1714 27.7034 22.2082 27.6604 22.2512C27.2351 22.6739 26.8978 23.1768 26.668 23.7308C26.4383 24.2848 26.3206 24.8788 26.3219 25.4786C26.3219 25.6106 26.3219 25.7396 26.3434 25.8685H22.6596C22.6596 25.7396 22.6811 25.6075 22.6811 25.4755C22.6792 24.6538 22.4561 23.8478 22.0353 23.1422C21.6145 22.4365 21.0115 21.8572 20.2897 21.4651L20.2252 21.3638L17.0233 16.4076ZM21.4501 25.4694C21.4493 26.3541 21.0979 27.2025 20.4731 27.8287C19.8482 28.4549 19.0007 28.8079 18.1162 28.8103V28.8103C17.2338 28.8063 16.389 28.4528 15.7665 27.8273C15.144 27.2017 14.7946 26.355 14.7946 25.4724C14.7946 24.5903 15.1436 23.7441 15.7654 23.1187C16.3873 22.4932 17.2313 22.1394 18.1131 22.1345C18.9971 22.1361 19.8445 22.4879 20.4698 23.1129C21.0952 23.7378 21.4476 24.5851 21.4501 25.4694V25.4694Z" fill="white"/>
<path d="M12.5168 36.8158C12.5737 36.8739 12.6415 36.92 12.7163 36.9517C12.7911 36.9833 12.8715 36.9997 12.9527 37.0001H23.2767C23.4359 37.0002 23.5889 36.9384 23.7034 36.8279C23.818 36.7173 23.8851 36.5666 23.8907 36.4074C23.8907 36.2447 23.992 32.397 21.5729 30.18C21.4668 30.082 21.3295 30.0245 21.1852 30.0178C21.0409 30.0111 20.8988 30.0554 20.784 30.1431C20.6765 30.226 18.0763 32.1545 15.6174 30.1431C15.5066 30.0496 15.3663 29.9983 15.2214 29.9983C15.0764 29.9983 14.9361 30.0496 14.8254 30.1431C14.7271 30.2291 12.3971 32.2926 12.3388 36.3614C12.3358 36.4453 12.3501 36.5289 12.3807 36.6071C12.4113 36.6852 12.4577 36.7563 12.5168 36.8158V36.8158ZM15.2981 31.4359C17.4685 32.8699 19.7924 32.1913 21.0787 31.4359C22.2882 32.8116 22.5768 34.8137 22.6443 35.781H13.5974C13.6938 34.1899 14.2888 32.6695 15.2981 31.4359V31.4359Z" fill="white"/>
<path d="M33.5577 30.1399C33.4472 30.2229 30.847 32.1513 28.388 30.1399C28.2773 30.0464 28.137 29.9951 27.992 29.9951C27.8471 29.9951 27.7068 30.0464 27.596 30.1399C27.4978 30.2259 25.1677 32.2895 25.1094 36.3582C25.1085 36.4395 25.1238 36.5203 25.1544 36.5956C25.185 36.671 25.2302 36.7396 25.2875 36.7973C25.3443 36.8554 25.4121 36.9015 25.487 36.9331C25.5618 36.9648 25.6422 36.9812 25.7234 36.9816H36.0474C36.2065 36.9817 36.3595 36.9199 36.4741 36.8094C36.5886 36.6988 36.6558 36.548 36.6613 36.3889C36.6613 36.2262 36.7626 32.3785 34.3436 30.1614C34.2358 30.0665 34.0981 30.0123 33.9545 30.0084C33.8109 30.0044 33.6705 30.051 33.5577 30.1399ZM35.3996 35.7686H26.3681C26.4677 34.181 27.0625 32.6646 28.0688 31.4327C30.2392 32.8668 32.5631 32.1881 33.8493 31.4327C35.0558 32.8023 35.3628 34.7891 35.415 35.7686H35.3996Z" fill="white"/>
</g>
<defs>
<clipPath id="clip0_1081_13648">
<rect width="24.3226" height="26" fill="white" transform="translate(12.3387 11)"/>
</clipPath>
</defs>
</svg>
