<svg width="48" height="48" viewBox="0 0 48 48" fill="none" xmlns="http://www.w3.org/2000/svg">
<rect width="48" height="48" rx="6" fill="#FECB32"/>
<path d="M33.4976 19.2754C33.4976 19.7829 33.4613 20.2783 33.4009 20.7496C32.8451 20.5079 32.2409 20.375 31.6005 20.375C30.1263 20.375 28.8213 21.0879 28.0118 22.1754C27.1901 21.0879 25.8851 20.375 24.4109 20.375C21.9338 20.375 19.928 22.3929 19.928 24.8942C19.928 28.1325 21.6438 30.6096 23.553 32.2892C23.4926 32.3254 23.4322 32.3375 23.3718 32.3617C23.0093 32.4946 22.4051 32.4946 22.0426 32.3617C18.913 31.2863 11.9167 26.8396 11.9167 19.2754C11.9167 15.9404 14.5992 13.2458 17.9101 13.2458C19.8797 13.2458 21.6197 14.1883 22.7072 15.6504C23.8067 14.1883 25.5467 13.2458 27.5042 13.2458C30.8151 13.2458 33.4976 15.9404 33.4976 19.2754Z" stroke="white" stroke-linecap="round" stroke-linejoin="round"/>
<path d="M36.0834 24.8942C36.0834 30.5492 30.8513 33.8842 28.5072 34.6817C28.2292 34.7783 27.7821 34.7783 27.5042 34.6817C26.5013 34.3433 24.9667 33.5337 23.553 32.2891C21.6438 30.6096 19.928 28.1325 19.928 24.8942C19.928 22.3929 21.9338 20.375 24.4109 20.375C25.8851 20.375 27.1901 21.0879 28.0117 22.1754C28.8213 21.0879 30.1263 20.375 31.6005 20.375C32.2409 20.375 32.8451 20.5079 33.4009 20.7496C34.9838 21.4504 36.0834 23.0333 36.0834 24.8942Z" stroke="white" stroke-linecap="round" stroke-linejoin="round"/>
</svg>
