<svg width="246" height="57" viewBox="0 0 246 57" fill="none" xmlns="http://www.w3.org/2000/svg">
<path d="M33.9977 56.9301C49.4963 56.9301 62.0604 44.1859 62.0604 28.465C62.0604 12.7442 49.4963 0 33.9977 0C18.4991 0 5.93506 12.7442 5.93506 28.465C5.93506 44.1859 18.4991 56.9301 33.9977 56.9301Z" fill="#4FEBFA"/>
<path d="M5.99048 30.2327C6.89065 45.1296 19.0845 56.9302 34 56.9302C48.9155 56.9302 61.1046 45.1296 62.0049 30.2333L5.99048 30.2327Z" fill="#18D2F8"/>
<path d="M34.0572 56.9999C42.8641 56.9999 48.5988 53.3576 52.0161 50.3357C46.8079 53.2894 39.389 56.7301 28.0827 54.2818C25.0913 53.6345 12.9599 48.6561 17.2323 46.5014C20.0317 45.09 16.7263 42.4869 11.0776 44.8686C16.1506 52.2057 24.5511 56.9999 34.0572 56.9999Z" fill="#11A5D3"/>
<path d="M30.2026 5.84619C29.9829 6.15715 29.706 6.44598 29.3509 6.57375C29.0342 6.68801 28.6884 6.66332 28.3537 6.64034C25.9501 6.46834 23.4644 6.41183 21.2111 7.27502C19.7719 7.83046 18.4439 8.75066 16.9171 8.94662C15.9386 9.07279 14.9792 8.87843 14.1013 8.46268C18.304 4.1679 23.7499 1.34807 29.6442 0.414795C29.823 0.600378 29.9908 0.796426 30.1469 1.00193C31.1725 2.38076 31.1968 4.44034 30.2026 5.84619Z" fill="#26C254"/>
<path d="M56.9405 12.141C56.9443 12.7835 56.9224 13.4285 56.8912 14.068C56.8371 15.1675 56.748 16.3013 56.2483 17.278C55.7485 18.2547 54.7309 19.0416 53.6507 18.9282C52.7255 18.8299 51.9878 18.1284 51.3348 17.4565C49.162 15.2221 47.0204 12.8018 46.0521 9.82117C45.8394 9.16425 45.6822 8.4803 45.3483 7.87892C44.9775 7.21807 44.4096 6.69764 43.9012 6.13987C43.015 5.17593 41.1129 2.80123 40.9872 0.959229C47.4446 2.64814 53.0993 6.61156 56.9405 12.141Z" fill="#26C254"/>
<path d="M51.234 50.9982C41.4475 58.7234 27.8221 59.0185 17.719 51.7241C18.365 51.0556 19.1115 50.4954 19.9308 50.0644C22.1676 48.9442 24.9522 49.0324 27.1132 50.2979C28.1778 50.9199 29.1577 51.826 30.3802 51.9481C31.7521 52.0853 32.9895 51.1987 34.1549 50.4511C35.3204 49.7035 36.7833 49.0428 38.0308 49.6379C38.6761 49.944 39.1383 50.539 39.7226 50.9509C41.0835 51.9116 42.9153 51.7767 44.5258 51.3777C46.1362 50.9786 47.7373 50.3518 49.3915 50.455C50.0372 50.4988 50.6658 50.6841 51.234 50.9982Z" fill="#26C254"/>
<path d="M57.6992 43.7764C56.9847 44.9168 56.1906 46.0039 55.3229 47.0291C52.4775 46.206 49.4075 46.2414 46.4213 46.2357C42.0932 46.231 37.7698 46.1129 33.451 45.8811C29.455 45.6669 25.4465 45.3559 21.4591 45.6962C19.2691 45.8835 17.0884 46.2754 14.9969 46.9656C14.4979 47.1315 13.8237 47.3441 13.0854 47.5115C11.9593 46.2364 10.9488 44.861 10.0662 43.4019C11.9888 42.6252 14.6356 42.3228 15.5312 42.2046C17.7321 41.9127 19.9597 41.8928 22.1794 41.8714C32.6344 41.7778 43.123 41.6851 53.5028 42.9536C54.9146 43.1273 56.3515 43.336 57.6992 43.7764Z" fill="#11A5D3"/>
<path opacity="0.5" d="M34 0C25.1931 0 19.4576 3.64235 16.0411 6.66427C21.2494 3.71029 28.6673 0.270286 39.9749 2.71809C44.3275 3.66115 52.0841 8.99045 56.9796 12.1313C51.9042 4.79426 43.5032 0 34 0Z" fill="#F5F5F5"/>
<path d="M51.234 50.9981C51.1659 50.96 51.0955 50.9235 51.0252 50.8895C45.8762 53.694 38.693 56.5851 28.0792 54.2843C25.8665 53.8082 22.4869 52.3159 19.2011 50.4919C18.6765 50.8431 18.1884 51.2474 17.7441 51.6984C22.369 55.06 27.896 56.9083 33.585 56.9958H34.0227C40.259 57.0013 46.3178 54.89 51.234 50.9981Z" fill="#1AA24E"/>
<path d="M49.0799 14.8701H18.9155V44.2318H49.0799V14.8701Z" fill="#044076"/>
<path d="M18.9155 14.87L2.51229 11.4426L2.50757 47.8541L18.9155 44.2315V14.87Z" fill="#FF5484"/>
<path d="M49.0798 14.87L65.4924 11.4426L65.4877 47.8541L49.0798 44.2315V14.87Z" fill="#FF5484"/>
<path d="M2.5072 47.7471C2.86075 47.7035 3.21115 47.6622 3.56701 47.6202L18.9152 44.2317V41.6819C8.43751 37.8785 2.78336 31.6567 2.51035 31.2769L2.5072 47.7471Z" fill="#DB3D78"/>
<path d="M2.50988 11.4426H0.00231934V47.8541H2.50988V11.4426Z" fill="#DB3D78"/>
<path d="M65.4899 47.747C65.1363 47.7034 64.7859 47.6621 64.4301 47.6201L49.0822 44.2316V40.9494C61.1351 40.6932 65.214 30.9243 65.487 30.5469L65.4899 47.747Z" fill="#DB3D78"/>
<path d="M67.9977 11.4426H65.4901V47.8541H67.9977V11.4426Z" fill="#DB3D78"/>
<path d="M2.51071 31.2793L0.00545043 20.5181L0 47.8542H2.50756L2.51071 31.2793Z" fill="#B72A6E"/>
<path d="M68 21.4438L65.4869 30.5468L65.4877 47.8541H67.9952L68 21.4438Z" fill="#B72A6E"/>
<path d="M25.7695 42.8852L23.5849 44.2339C23.5849 44.2339 12.9281 40.5674 11.0635 40.3585C8.40416 40.0618 2.9799 36.2331 3.89194 32.7835C4.80398 29.3339 21.2862 35.5601 21.2862 35.5601L26.7456 37.2094L25.7695 42.8852Z" fill="#A2A2A2"/>
<path d="M23.9259 36.7145C22.6612 36.0845 21.1886 36.0655 19.7806 36.1591C18.7934 36.2265 17.7508 36.368 16.9765 36.9938C16.4361 37.4309 16.0834 38.0633 15.819 38.7113C15.4314 39.6635 15.065 40.4805 15.1286 41.4501C15.7342 41.6373 16.3682 41.8372 17.0059 42.0419C17.6621 41.9818 18.3056 41.8213 18.9144 41.5659C20.0446 41.082 21.5738 40.0339 23.5839 39.807C24.9025 39.6578 25.7684 40.3053 25.7684 40.3053C25.7684 40.3053 26.0625 39.9824 26.3299 39.6183L26.5443 38.371C25.9804 37.6594 24.633 37.0684 23.9259 36.7145Z" fill="#7B7B7B"/>
<path d="M11.3795 36.9929C10.577 35.4062 10.078 33.6854 9.35136 32.0638C8.85391 31.9749 8.37367 31.9052 7.91765 31.8472C7.83953 32.2843 7.86291 32.8294 7.98572 33.4014C8.7632 37.0088 10.182 39.2913 11.0228 40.3537L11.0635 40.3584C11.5038 40.4075 12.4369 40.6504 13.6039 40.993C12.979 39.6071 12.0693 38.3543 11.3795 36.9929Z" fill="#7B7B7B"/>
<path d="M44.4541 43.2502L47.1672 44.2316C47.1672 44.2316 56.8995 40.2942 58.5041 39.9793C61.1299 39.4644 66.2294 35.1968 65.0437 31.8369C63.8579 28.477 47.9293 36.0418 47.9293 36.0418L42.6208 38.137L44.4541 43.2502Z" fill="#A2A2A2"/>
<path d="M47.9293 36.037L42.9337 38.0085C42.9021 38.3166 42.9384 38.628 43.04 38.9201C43.1918 39.3446 43.485 39.6984 43.7729 40.0419C44.2751 40.6439 44.0858 40.6591 44.5871 41.2605C44.6864 41.2153 45.2082 40.7677 45.284 40.6892C47.1666 38.7487 49.3052 39.3168 51.4888 39.2358C53.8642 39.1486 56.1661 38.0564 57.9415 36.4535C59.0734 35.4308 60.2453 33.9148 60.3553 31.3655C55.2697 32.5549 47.9293 36.037 47.9293 36.037Z" fill="#7B7B7B"/>
<path d="M47.1667 44.2317H23.5845C25.2809 39.2819 29.9261 35.7197 35.376 35.7197C40.826 35.7197 45.471 39.2819 47.1667 44.2317Z" fill="#A2A2A2"/>
<path d="M35.3766 35.7197C33.5409 35.7193 31.7278 36.1303 30.067 36.9235C28.4062 37.7166 26.9387 38.8723 25.7695 40.3077C31.1109 43.6144 34.6156 43.328 34.6336 43.5811C34.661 43.9668 34.0978 43.92 34.3208 44.2317H37.6322C38.2893 43.858 42.8242 42.9662 45.2817 40.6918C44.1188 39.1461 42.6202 37.8934 40.9022 37.0311C39.1843 36.1688 37.2934 35.72 35.3766 35.7197Z" fill="#7B7B7B"/>
<path d="M19.0327 18.3972C19.0327 18.3972 20.6338 11.9171 28.3404 9.22914C36.0469 6.54115 45.0642 9.5584 47.313 13.4689C47.313 13.4689 57.5122 6.13744 59.9216 20.5561C62.3311 34.9747 54.3831 40.9216 47.4765 37.0929C47.4765 37.0929 37.6166 45.0646 22.9011 37.9887C22.9011 37.9887 12.9427 49.1489 8.36481 32.6935C3.46488 15.077 14.0677 14.8232 19.0327 18.3972Z" fill="#C4C4C4"/>
<path d="M7.66693 29.8091C7.85103 30.7145 8.08359 31.6761 8.36459 32.6936C12.7884 48.5935 22.3322 38.6741 22.9649 37.9888C22.5645 37.7007 22.3901 37.5762 22.2211 37.3437C21.4914 36.3377 20.1946 35.9157 19.0393 35.5094C17.4383 34.9541 14.7125 32.9104 13.1247 32.3151C10.6919 31.4006 9.63526 31.5568 7.66693 29.8091Z" fill="#A2A2A2"/>
<path d="M21.7844 36.9309C21.7844 36.9309 17.5397 33.2459 18.8464 24.3848C18.8464 24.3848 10.4539 16.0894 11.1766 28.9943C11.8994 41.8992 21.6051 36.8882 21.6339 36.9199" fill="#FFBBBA"/>
<path d="M51.14 31.9003C50.4311 32.7098 49.8058 33.5908 49.2737 34.5294C48.8326 35.3228 47.4749 37.096 47.4749 37.096C53.7437 40.5709 60.8731 35.9917 60.3334 24.334C58.7154 25.344 57.118 26.3889 55.5411 27.4686C53.5912 28.8086 52.7137 30.1231 51.14 31.9003Z" fill="#A2A2A2"/>
<path d="M20.1927 34.8129C19.2417 34.9001 17.4138 34.4487 16.7036 34.1076C15.5832 33.5684 14.5765 32.814 13.7392 31.8862C12.4401 30.443 11.5791 28.6333 11.1519 26.7292C11.1197 27.5241 11.1278 28.3201 11.1762 29.1142C11.8989 42.0189 21.7554 36.9033 21.7844 36.9351C21.7844 36.9309 21.0992 36.256 20.1927 34.8129Z" fill="#FF98A1"/>
<path d="M49.2738 34.5296C54.0504 35.5665 57.7885 32.7049 56.7926 23.9581C55.5873 13.3873 49.0344 18.9004 49.0344 18.9004C49.0344 18.9004 51.068 31.9601 49.2738 34.5296Z" fill="#FFBBBA"/>
<path d="M55.8814 27.4195C54.6488 29.6108 52.4053 31.1745 49.9621 31.6148C49.873 32.9191 49.6642 33.9695 49.2738 34.5266C53.8494 35.5197 57.4723 32.9319 56.8923 25.0251C56.6127 25.8493 56.3053 26.6643 55.8814 27.4195Z" fill="#FF98A1"/>
<path d="M49.7627 33.2031C48.8929 34.3273 48.0287 34.8732 47.216 35.3721C46.1358 36.0338 44.9971 36.7208 43.8192 37.3429C43.7101 35.4333 42.8266 32.9793 39.2045 32.2051C39.2045 32.2051 40.4731 36.0806 40.9674 38.6674C39.5908 39.2021 38.1838 39.579 36.7727 39.6805C36.596 38.8014 35.6308 37.6288 32.1276 36.8815C32.1276 36.8815 33.1874 38.3168 33.6416 39.5075C24.0211 38.2445 21.4057 33.2201 20.7416 32.3572C20.1158 31.5488 19.6709 30.6181 19.2555 29.6836C19.2071 29.573 18.7314 29.0354 18.6837 28.925C18.9531 35.5848 22.9645 37.9887 22.9645 37.9887C31.9983 43.716 39.3442 41.9301 43.5803 39.7872C46.1179 38.5044 47.5399 37.0898 47.5399 37.0898C48.2766 36.1703 49.4293 34.7287 49.7627 33.2031Z" fill="#A2A2A2"/>
<path d="M39.2044 32.2051C39.2044 32.2051 43.7143 33.706 42.6707 38.7566C41.6272 43.8071 34.7201 47.144 34.7201 47.144C34.7201 47.144 31.9828 45.3519 31.9091 44.4553C31.9091 44.4553 38.3619 40.4639 31.9091 36.9184" fill="#C4C4C4"/>
<path d="M41.7433 36.6875C42.57 40.9448 39.3492 43.9555 39.3492 43.9555C39.3492 43.9555 41.9756 41.8135 42.6686 38.7566C43.809 33.7275 39.2029 32.2051 39.2029 32.2051C39.2029 32.2051 41.2983 34.3836 41.7433 36.6875Z" fill="#E1E1E1"/>
<path d="M46.9273 12.889C44.1672 9.27134 35.6645 6.67537 28.3436 9.2292C27.2335 9.61276 26.1669 10.1152 25.1617 10.7281C26.2654 10.6083 27.5935 10.1629 27.9556 10.0769C38.6788 7.54655 44.9704 11.8585 46.9273 12.889Z" fill="#E1E1E1"/>
<path d="M59.4762 18.4338C57.3472 10.2963 52.1718 11.1678 49.3082 12.3892C56.1701 11.054 58.82 16.767 59.4762 18.4338Z" fill="#E1E1E1"/>
<path d="M19.0422 18.3601C19.0359 18.3839 19.0328 18.397 19.0328 18.397C16.6426 16.6786 12.9477 15.844 10.301 17.4061C11.2638 17.4061 14.3626 16.1284 18.9703 19.6743C18.9977 19.2178 19.0837 18.9797 19.0422 18.3601Z" fill="#E1E1E1"/>
<path d="M24.8511 30.113C24.9735 29.3416 25.4082 28.6134 26.0477 28.096C26.683 27.571 27.5312 27.2961 28.3424 27.29C28.739 27.2869 29.143 27.3216 29.5427 27.4155C29.9413 27.5163 30.3337 27.6803 30.68 27.9167C31.0206 28.1494 31.3137 28.4466 31.5432 28.7919C31.7551 29.1209 31.9203 29.4786 32.0339 29.8544L31.8715 29.9551C31.6 29.6886 31.3582 29.4174 31.0902 29.1982C30.8253 28.9771 30.5503 28.7968 30.2583 28.6652C29.9662 28.5337 29.6605 28.4441 29.3423 28.387C29.015 28.3378 28.6844 28.3139 28.3535 28.3156C28.1896 28.3216 28.0289 28.3279 27.8681 28.3432C27.7113 28.3714 27.5475 28.3787 27.3957 28.4267C27.0797 28.4889 26.7832 28.6166 26.4894 28.7646C25.9037 29.0685 25.3727 29.545 24.9095 30.1351L24.8511 30.113Z" fill="#484848"/>
<path d="M45.3948 28.2414C44.9579 27.9182 44.4985 27.6647 44.049 27.5491C43.5988 27.428 43.1606 27.4437 42.72 27.5663C42.6135 27.5988 42.4959 27.6384 42.3756 27.6806C42.2594 27.7253 42.1411 27.765 42.0301 27.8145C41.808 27.904 41.594 28.0127 41.3903 28.1393C41.1871 28.2699 41.0003 28.425 40.834 28.6014C40.6564 28.7837 40.4998 29.0095 40.3175 29.2403L40.2112 29.2034C40.2065 28.9071 40.2445 28.6066 40.3528 28.3108C40.4636 28.0083 40.635 27.7322 40.856 27.5C41.0764 27.264 41.3367 27.0778 41.6054 26.9293C41.7386 26.855 41.8762 26.789 42.0172 26.7315L42.2268 26.6492C42.2985 26.6228 42.3787 26.6013 42.4544 26.5777C42.7705 26.4895 43.0995 26.4588 43.4262 26.4869C43.7527 26.5168 44.0704 26.6103 44.362 26.7621C44.9326 27.067 45.3592 27.5469 45.5725 28.1208L45.3948 28.2414Z" fill="#484848"/>
<g filter="url(#filter0_d_1615_14684)">
<path d="M107.09 15.4697C107.09 15.4697 87.8149 12.9498 88 28.8297C88.2065 46.2656 107.485 42.3105 107.485 42.3105L107.065 33.8955C107.065 33.8955 95.038 39.7095 95.0196 28.6553C95.0028 20.6411 107.209 23.4793 107.209 23.4793L107.09 15.4697Z" fill="#FF5484"/>
</g>
<g filter="url(#filter1_d_1615_14684)">
<path d="M129.027 25.5278L133.583 24.7306L134.296 29.4415C134.296 29.4415 136.017 22.1143 142.081 23.043C148.144 23.9718 147.451 31.4779 147.451 31.4779L142.459 33.2206C142.459 33.2206 141.86 27.9712 138.62 29.8393C135.379 31.7074 139.279 41.1261 139.279 41.1261L131.945 41.6295C131.945 41.6295 132.194 35.4575 129.027 25.5278Z" fill="#33E257"/>
</g>
<g filter="url(#filter2_d_1615_14684)">
<path d="M212.008 24.9724L217.782 25.1101L219.572 40.9334L213.387 40.7865L212.008 24.9724Z" fill="#33E257"/>
</g>
<g filter="url(#filter3_d_1615_14684)">
<path d="M216.349 14.9129C213.471 13.9367 207.628 17.1359 210.773 20.3413C212.924 22.5384 216.274 22.2094 217.768 19.5304C218.815 17.6623 218.562 15.6656 216.349 14.9129Z" fill="#33E257"/>
</g>
<g filter="url(#filter4_d_1615_14684)">
<path d="M207.159 19.9326L207.025 25.5936C207.025 25.5936 197.929 22.0394 197.921 26.7044C197.914 31.3694 207.407 26.8574 208.645 31.2103C209.883 35.5631 208.893 45.8218 194.092 40.3138L193.897 35.508C193.897 35.508 203.212 38.5068 203.399 34.9481C203.668 29.8302 190.996 36.0512 192.938 23.7209C194.277 15.2294 207.159 19.9326 207.159 19.9326Z" fill="#FF5E3C"/>
</g>
<g filter="url(#filter5_d_1615_14684)">
<path d="M120.633 35.8707C120.633 35.8707 120.881 38.4793 119.435 38.5482C117.99 38.617 115.939 38.0525 115.935 33.9276L126.798 32.4313C126.798 32.4313 125.291 22.1145 118.268 22.4985C111.245 22.8825 107.957 28.0203 110.644 36.8269C112.809 43.9261 125.858 46.0238 125.581 35.987L120.633 35.8707Z" fill="#FF5E3C"/>
</g>
<g filter="url(#filter6_d_1615_14684)">
<path d="M167.425 14.3114L160.932 14.1584L162.561 28.0814C160.49 24.0759 147.829 23.0324 150.627 35.6733C153.426 48.3142 163.663 38.3554 163.663 38.3554L164.001 41.4567L169.498 40.1822L167.425 14.3114Z" fill="#18D2F8"/>
</g>
<g filter="url(#filter7_d_1615_14684)">
<path d="M171.516 21.9613L172.933 27.4311C172.933 27.4311 182.617 19.2226 183.914 29.7796C183.914 29.7796 173.403 24.9861 172.534 35.5432C171.665 46.1002 185.039 38.8877 185.039 38.8877L184.977 41.4887L190.259 40.5707C190.259 40.5707 190.706 21.7058 183.112 20.0825C175.519 18.4592 171.516 21.9613 171.516 21.9613Z" fill="#FF5484"/>
</g>
<g filter="url(#filter8_d_1615_14684)">
<path d="M222.251 22.3409L223.67 27.8106C223.67 27.8106 233.35 19.6022 234.649 30.1592C234.649 30.1592 224.139 25.3657 223.27 35.9227C222.401 46.4797 235.775 39.2673 235.775 39.2673L235.712 41.8683L241 40.9334C241 40.9334 241.447 22.0685 233.853 20.4452C226.26 18.8219 222.251 22.3409 222.251 22.3409Z" fill="#18D2F8"/>
</g>
<g filter="url(#filter9_d_1615_14684)">
<path d="M115.326 30.1162L115.22 30.078C115.221 29.7784 115.277 29.4816 115.387 29.2028C115.505 28.9078 115.683 28.6401 115.909 28.4164C116.134 28.1963 116.392 28.013 116.674 27.8732C116.809 27.8034 116.948 27.7415 117.09 27.6881L117.301 27.6116C117.373 27.5871 117.454 27.5688 117.529 27.5474C117.847 27.4675 118.176 27.4447 118.502 27.48C118.972 27.5343 119.418 27.7182 119.789 28.0111C120.161 28.3039 120.443 28.6943 120.606 29.1386L120.425 29.2533C120.029 28.9335 119.576 28.6916 119.09 28.5403C118.657 28.4153 118.198 28.41 117.763 28.525C117.656 28.5556 117.537 28.5908 117.416 28.6306C117.295 28.6704 117.18 28.7071 117.068 28.753C116.845 28.8363 116.629 28.9387 116.423 29.059C116.217 29.1827 116.027 29.3312 115.857 29.5012C115.67 29.6971 115.492 29.9024 115.326 30.1162Z" fill="#FF916C"/>
</g>
<g filter="url(#filter10_d_1615_14684)">
<path d="M154.997 34.1739C154.928 34.1727 154.859 34.157 154.796 34.1277C154.733 34.0985 154.677 34.0564 154.632 34.0041C154.239 33.5255 154.041 32.9163 154.078 32.2981C154.09 31.4869 154.407 30.7101 154.967 30.1225C155.259 29.8231 155.618 29.5961 156.014 29.4596C156.409 29.3231 156.831 29.2808 157.246 29.336C157.375 29.3603 157.489 29.4335 157.565 29.5404C157.641 29.6472 157.672 29.7793 157.652 29.9088C157.632 30.0382 157.563 30.1549 157.459 30.2342C157.354 30.3134 157.223 30.3491 157.093 30.3336C156.836 30.3021 156.576 30.3308 156.332 30.4173C156.088 30.5039 155.867 30.646 155.687 30.8324C155.308 31.2364 155.094 31.7682 155.088 32.3226C155.088 32.5674 155.114 33.0249 155.394 33.3339C155.459 33.4074 155.501 33.4983 155.515 33.5955C155.53 33.6927 155.515 33.792 155.474 33.8811C155.433 33.9703 155.367 34.0455 155.283 34.0975C155.2 34.1495 155.103 34.1761 155.005 34.1739H154.997Z" fill="#A2FEF9"/>
</g>
<g filter="url(#filter11_d_1615_14684)">
<path d="M177.352 37.0257C177.283 37.0239 177.215 37.0078 177.152 36.9786C177.089 36.9494 177.033 36.9076 176.986 36.8559C176.594 36.3771 176.397 35.7678 176.434 35.1499C176.446 34.3402 176.762 33.5646 177.32 32.9773C177.613 32.6787 177.972 32.4522 178.367 32.3157C178.763 32.1792 179.185 32.1365 179.6 32.1909C179.667 32.1989 179.732 32.2204 179.791 32.254C179.849 32.2876 179.901 32.3328 179.942 32.3867C179.983 32.4406 180.013 32.5022 180.029 32.5679C180.046 32.6335 180.049 32.7019 180.039 32.7688C180.029 32.8358 180.005 32.9 179.97 32.9576C179.934 33.0152 179.887 33.0651 179.832 33.1043C179.777 33.1434 179.714 33.1711 179.648 33.1855C179.582 33.2 179.513 33.201 179.447 33.1885C179.19 33.1565 178.929 33.1849 178.685 33.2715C178.44 33.3581 178.22 33.5005 178.041 33.6872C177.66 34.0909 177.446 34.623 177.441 35.1775C177.441 35.4223 177.467 35.8797 177.747 36.1873C177.812 36.2609 177.854 36.3519 177.868 36.4491C177.882 36.5463 177.868 36.6455 177.827 36.7347C177.786 36.8239 177.719 36.8992 177.636 36.9514C177.553 37.0036 177.456 37.0305 177.358 37.0288L177.352 37.0257Z" fill="#FFBBBA"/>
</g>
<g filter="url(#filter12_d_1615_14684)">
<path d="M228.087 37.4053C228.018 37.4035 227.949 37.3875 227.886 37.3583C227.824 37.329 227.767 37.2873 227.721 37.2355C227.327 36.7574 227.129 36.1478 227.167 35.5296C227.179 34.7183 227.497 33.9415 228.056 33.3539C228.349 33.0548 228.708 32.8281 229.103 32.6916C229.499 32.5551 229.921 32.5126 230.336 32.5675C230.403 32.5755 230.468 32.5969 230.527 32.6306C230.586 32.6642 230.637 32.7093 230.678 32.7632C230.719 32.8172 230.749 32.8788 230.766 32.9444C230.782 33.0101 230.786 33.0784 230.775 33.1454C230.765 33.2123 230.741 33.2765 230.706 33.3342C230.67 33.3918 230.623 33.4417 230.568 33.4808C230.513 33.52 230.45 33.5476 230.384 33.5621C230.318 33.5766 230.249 33.5776 230.183 33.565C229.926 33.5329 229.665 33.5613 229.421 33.6479C229.177 33.7345 228.956 33.8769 228.777 34.0638C228.396 34.4671 228.182 34.9994 228.177 35.554C228.177 35.7988 228.203 36.2563 228.483 36.5638C228.548 36.6375 228.59 36.7285 228.605 36.8257C228.619 36.9229 228.604 37.0221 228.563 37.1113C228.522 37.2005 228.456 37.2758 228.373 37.328C228.289 37.3802 228.193 37.4071 228.094 37.4053H228.087Z" fill="#A2FEF9"/>
</g>
<g filter="url(#filter13_d_1615_14684)">
<path d="M169.09 35.0886C168.784 35.3946 168.55 35.771 168.203 36.0265C166.986 36.9231 165.28 35.8307 163.781 36.0265C162.482 36.1918 161.538 37.2811 160.479 38.0522C157.745 40.0412 153.665 39.6786 151.134 37.5106C154.483 47.2934 163.662 38.3628 163.662 38.3628L164 41.4641L169.497 40.1896L169.09 35.0886Z" fill="#11A5D3"/>
</g>
<g filter="url(#filter14_d_1615_14684)">
<path d="M125.517 37.4542C123.979 40.0843 121.179 41.0834 118.617 41.0513C115.304 41.01 112.885 39.6743 110.372 35.863C110.456 36.1797 110.544 36.4995 110.644 36.8269C112.697 43.5574 124.529 45.7897 125.517 37.4542Z" fill="#DB3D2B"/>
</g>
<g filter="url(#filter15_d_1615_14684)">
<path d="M107.485 42.3104L107.278 38.0784C98.889 41.8315 91.2773 38.4472 88.8278 34.2014C92.5365 45.3704 107.485 42.3104 107.485 42.3104Z" fill="#DB3D78"/>
</g>
<g filter="url(#filter16_d_1615_14684)">
<path d="M131.945 41.6295L139.279 41.1261C139.279 41.1261 138.998 40.4422 138.648 39.411C136.065 39.0928 133.574 38.109 131.565 36.4612C132.018 39.7721 131.945 41.6295 131.945 41.6295Z" fill="#26C254"/>
</g>
<g filter="url(#filter17_d_1615_14684)">
<path d="M190.259 40.5586C190.259 40.5586 190.297 38.9031 190.156 36.5316C187.505 35.8355 184.757 37.0487 182.162 37.9698C179.531 38.9046 176.305 39.4493 174.188 37.6301C173.556 37.0855 173.086 36.3771 172.52 35.7666C171.861 45.9916 185.039 38.8878 185.039 38.8878L184.977 41.4888L190.259 40.5586Z" fill="#DB3D78"/>
</g>
<g filter="url(#filter18_d_1615_14684)">
<path d="M235.775 39.2673L235.712 41.8683L241 40.9334C241 40.9334 241.032 39.5213 240.927 37.4374C238.958 37.7723 236.935 37.3492 235.266 36.2532C234.133 37.2148 232.813 37.9302 231.389 38.354C229.965 38.7778 228.468 38.9007 226.994 38.7149C225.913 38.5711 224.84 38.2559 223.752 38.3324C223.627 38.3401 223.501 38.3554 223.376 38.3722C224.724 45.2251 235.775 39.2673 235.775 39.2673Z" fill="#11A5D3"/>
</g>
<g filter="url(#filter19_d_1615_14684)">
<path d="M219.337 38.8573C217.574 38.6835 215.923 37.9152 214.655 36.6786C214.075 36.1018 213.523 35.3995 212.875 34.9207L213.387 40.7806L219.58 40.9336L219.337 38.8573Z" fill="#26C254"/>
</g>
<g filter="url(#filter20_d_1615_14684)">
<path d="M208.933 35.5969C208.715 35.7882 208.503 35.9825 208.293 36.1676C204.48 39.5336 198.654 40.4042 194.012 38.3326L194.092 40.3139C204.904 44.3378 208.345 39.9528 208.933 35.5969Z" fill="#DB3D2B"/>
</g>
<g filter="url(#filter21_d_1615_14684)">
<path d="M89.8024 21.5268C95.4129 16.9124 99.3434 17.1679 107.125 17.4127L107.096 15.4696C107.096 15.4696 94.5576 13.834 89.8024 21.5268Z" fill="#FF7D95"/>
</g>
<g filter="url(#filter22_d_1615_14684)">
<path d="M118.268 22.4984C113.912 22.737 110.994 24.8056 110.047 28.4439C113.152 25.1835 118.144 23.7009 122.477 25.0397C123.061 25.2202 123.631 25.4451 124.198 25.6731C122.899 23.8203 121.002 22.35 118.268 22.4984Z" fill="#FF916C"/>
</g>
<g filter="url(#filter23_d_1615_14684)">
<path d="M143.616 25.3C144.755 25.9517 145.71 26.9585 146.96 27.3548C146.337 25.4392 144.986 23.4839 142.081 23.0432C138.173 22.448 136.071 25.277 135.069 27.3639C136.879 24.7415 140.811 23.6965 143.616 25.3Z" fill="#84F685"/>
</g>
<g filter="url(#filter24_d_1615_14684)">
<path d="M133.583 24.7307L129.027 25.5278C129.163 25.9578 129.292 26.377 129.417 26.7931C130.936 26.6844 132.403 26.1911 133.68 25.3595L133.583 24.7307Z" fill="#84F685"/>
</g>
<g filter="url(#filter25_d_1615_14684)">
<path d="M233.849 20.4499C226.255 18.825 222.251 22.3409 222.251 22.3409L222.915 24.8976C224.857 22.8183 227.853 21.7381 230.749 21.6555C232.908 21.5989 235.033 22.012 237.103 22.6347C236.226 21.5209 235.157 20.7375 233.849 20.4499Z" fill="#73FAFD"/>
</g>
<g filter="url(#filter26_d_1615_14684)">
<path d="M212.247 17.3394C213.93 16.1016 216.289 15.71 218.186 16.5132C217.917 15.8171 217.323 15.2448 216.35 14.9128C213.693 14.0055 208.521 16.6677 210.209 19.6023C210.732 18.7209 211.425 17.9518 212.247 17.3394Z" fill="#84F685"/>
</g>
<g filter="url(#filter27_d_1615_14684)">
<path d="M195.195 20.6563C199.107 19.2793 203.633 19.8913 207.107 22.1236L207.159 19.9326C207.159 19.9326 197.248 16.3096 193.91 21.1566C194.335 20.9822 194.762 20.8078 195.195 20.6563Z" fill="#FF916C"/>
</g>
<g filter="url(#filter28_d_1615_14684)">
<path d="M182.912 20.9226C183.813 21.0419 184.717 21.2378 185.619 21.4351C184.927 20.7555 184.059 20.2828 183.112 20.0704C175.516 18.4425 171.516 21.9615 171.516 21.9615L171.907 23.4716C175.156 21.3419 179.057 20.4383 182.912 20.9226Z" fill="#FF7D95"/>
</g>
<g filter="url(#filter29_d_1615_14684)">
<path d="M150.499 29.9804C153.236 26.9158 158.227 25.9733 161.81 28.0816C161.904 27.8348 161.969 27.5781 162.005 27.3166C159.48 24.6606 152.027 24.0547 150.499 29.9804Z" fill="#73FAFD"/>
</g>
<g filter="url(#filter30_d_1615_14684)">
<path d="M160.932 14.1584L161.334 17.6071C162.005 14.7337 166.581 15.8828 167.425 14.3114L160.932 14.1584Z" fill="#73FAFD"/>
</g>
<defs>
<filter id="filter0_d_1615_14684" x="83.9987" y="11.3235" width="27.4858" height="35.3723" filterUnits="userSpaceOnUse" color-interpolation-filters="sRGB">
<feFlood flood-opacity="0" result="BackgroundImageFix"/>
<feColorMatrix in="SourceAlpha" type="matrix" values="0 0 0 0 0 0 0 0 0 0 0 0 0 0 0 0 0 0 127 0" result="hardAlpha"/>
<feOffset/>
<feGaussianBlur stdDeviation="2"/>
<feComposite in2="hardAlpha" operator="out"/>
<feColorMatrix type="matrix" values="0 0 0 0 1 0 0 0 0 1 0 0 0 0 1 0 0 0 0.1 0"/>
<feBlend mode="normal" in2="BackgroundImageFix" result="effect1_dropShadow_1615_14684"/>
<feBlend mode="normal" in="SourceGraphic" in2="effect1_dropShadow_1615_14684" result="shape"/>
</filter>
<filter id="filter1_d_1615_14684" x="125.027" y="18.9617" width="26.4482" height="26.6677" filterUnits="userSpaceOnUse" color-interpolation-filters="sRGB">
<feFlood flood-opacity="0" result="BackgroundImageFix"/>
<feColorMatrix in="SourceAlpha" type="matrix" values="0 0 0 0 0 0 0 0 0 0 0 0 0 0 0 0 0 0 127 0" result="hardAlpha"/>
<feOffset/>
<feGaussianBlur stdDeviation="2"/>
<feComposite in2="hardAlpha" operator="out"/>
<feColorMatrix type="matrix" values="0 0 0 0 1 0 0 0 0 1 0 0 0 0 1 0 0 0 0.1 0"/>
<feBlend mode="normal" in2="BackgroundImageFix" result="effect1_dropShadow_1615_14684"/>
<feBlend mode="normal" in="SourceGraphic" in2="effect1_dropShadow_1615_14684" result="shape"/>
</filter>
<filter id="filter2_d_1615_14684" x="208.008" y="20.9724" width="15.5643" height="23.9609" filterUnits="userSpaceOnUse" color-interpolation-filters="sRGB">
<feFlood flood-opacity="0" result="BackgroundImageFix"/>
<feColorMatrix in="SourceAlpha" type="matrix" values="0 0 0 0 0 0 0 0 0 0 0 0 0 0 0 0 0 0 127 0" result="hardAlpha"/>
<feOffset/>
<feGaussianBlur stdDeviation="2"/>
<feComposite in2="hardAlpha" operator="out"/>
<feColorMatrix type="matrix" values="0 0 0 0 1 0 0 0 0 1 0 0 0 0 1 0 0 0 0.1 0"/>
<feBlend mode="normal" in2="BackgroundImageFix" result="effect1_dropShadow_1615_14684"/>
<feBlend mode="normal" in="SourceGraphic" in2="effect1_dropShadow_1615_14684" result="shape"/>
</filter>
<filter id="filter3_d_1615_14684" x="205.869" y="10.7344" width="16.4943" height="15.0549" filterUnits="userSpaceOnUse" color-interpolation-filters="sRGB">
<feFlood flood-opacity="0" result="BackgroundImageFix"/>
<feColorMatrix in="SourceAlpha" type="matrix" values="0 0 0 0 0 0 0 0 0 0 0 0 0 0 0 0 0 0 127 0" result="hardAlpha"/>
<feOffset/>
<feGaussianBlur stdDeviation="2"/>
<feComposite in2="hardAlpha" operator="out"/>
<feColorMatrix type="matrix" values="0 0 0 0 1 0 0 0 0 1 0 0 0 0 1 0 0 0 0.1 0"/>
<feBlend mode="normal" in2="BackgroundImageFix" result="effect1_dropShadow_1615_14684"/>
<feBlend mode="normal" in="SourceGraphic" in2="effect1_dropShadow_1615_14684" result="shape"/>
</filter>
<filter id="filter4_d_1615_14684" x="188.736" y="14.6335" width="24.2943" height="31.2666" filterUnits="userSpaceOnUse" color-interpolation-filters="sRGB">
<feFlood flood-opacity="0" result="BackgroundImageFix"/>
<feColorMatrix in="SourceAlpha" type="matrix" values="0 0 0 0 0 0 0 0 0 0 0 0 0 0 0 0 0 0 127 0" result="hardAlpha"/>
<feOffset/>
<feGaussianBlur stdDeviation="2"/>
<feComposite in2="hardAlpha" operator="out"/>
<feColorMatrix type="matrix" values="0 0 0 0 1 0 0 0 0 1 0 0 0 0 1 0 0 0 0.1 0"/>
<feBlend mode="normal" in2="BackgroundImageFix" result="effect1_dropShadow_1615_14684"/>
<feBlend mode="normal" in="SourceGraphic" in2="effect1_dropShadow_1615_14684" result="shape"/>
</filter>
<filter id="filter5_d_1615_14684" x="105.711" y="18.488" width="25.087" height="28.3535" filterUnits="userSpaceOnUse" color-interpolation-filters="sRGB">
<feFlood flood-opacity="0" result="BackgroundImageFix"/>
<feColorMatrix in="SourceAlpha" type="matrix" values="0 0 0 0 0 0 0 0 0 0 0 0 0 0 0 0 0 0 127 0" result="hardAlpha"/>
<feOffset/>
<feGaussianBlur stdDeviation="2"/>
<feComposite in2="hardAlpha" operator="out"/>
<feColorMatrix type="matrix" values="0 0 0 0 1 0 0 0 0 1 0 0 0 0 1 0 0 0 0.1 0"/>
<feBlend mode="normal" in2="BackgroundImageFix" result="effect1_dropShadow_1615_14684"/>
<feBlend mode="normal" in="SourceGraphic" in2="effect1_dropShadow_1615_14684" result="shape"/>
</filter>
<filter id="filter6_d_1615_14684" x="146.226" y="10.1584" width="27.2728" height="35.9238" filterUnits="userSpaceOnUse" color-interpolation-filters="sRGB">
<feFlood flood-opacity="0" result="BackgroundImageFix"/>
<feColorMatrix in="SourceAlpha" type="matrix" values="0 0 0 0 0 0 0 0 0 0 0 0 0 0 0 0 0 0 127 0" result="hardAlpha"/>
<feOffset/>
<feGaussianBlur stdDeviation="2"/>
<feComposite in2="hardAlpha" operator="out"/>
<feColorMatrix type="matrix" values="0 0 0 0 1 0 0 0 0 1 0 0 0 0 1 0 0 0 0.1 0"/>
<feBlend mode="normal" in2="BackgroundImageFix" result="effect1_dropShadow_1615_14684"/>
<feBlend mode="normal" in="SourceGraphic" in2="effect1_dropShadow_1615_14684" result="shape"/>
</filter>
<filter id="filter7_d_1615_14684" x="167.516" y="15.6531" width="26.7474" height="29.8357" filterUnits="userSpaceOnUse" color-interpolation-filters="sRGB">
<feFlood flood-opacity="0" result="BackgroundImageFix"/>
<feColorMatrix in="SourceAlpha" type="matrix" values="0 0 0 0 0 0 0 0 0 0 0 0 0 0 0 0 0 0 127 0" result="hardAlpha"/>
<feOffset/>
<feGaussianBlur stdDeviation="2"/>
<feComposite in2="hardAlpha" operator="out"/>
<feColorMatrix type="matrix" values="0 0 0 0 1 0 0 0 0 1 0 0 0 0 1 0 0 0 0.1 0"/>
<feBlend mode="normal" in2="BackgroundImageFix" result="effect1_dropShadow_1615_14684"/>
<feBlend mode="normal" in="SourceGraphic" in2="effect1_dropShadow_1615_14684" result="shape"/>
</filter>
<filter id="filter8_d_1615_14684" x="218.251" y="16.0173" width="26.7535" height="29.8508" filterUnits="userSpaceOnUse" color-interpolation-filters="sRGB">
<feFlood flood-opacity="0" result="BackgroundImageFix"/>
<feColorMatrix in="SourceAlpha" type="matrix" values="0 0 0 0 0 0 0 0 0 0 0 0 0 0 0 0 0 0 127 0" result="hardAlpha"/>
<feOffset/>
<feGaussianBlur stdDeviation="2"/>
<feComposite in2="hardAlpha" operator="out"/>
<feColorMatrix type="matrix" values="0 0 0 0 1 0 0 0 0 1 0 0 0 0 1 0 0 0 0.1 0"/>
<feBlend mode="normal" in2="BackgroundImageFix" result="effect1_dropShadow_1615_14684"/>
<feBlend mode="normal" in="SourceGraphic" in2="effect1_dropShadow_1615_14684" result="shape"/>
</filter>
<filter id="filter9_d_1615_14684" x="111.22" y="23.4639" width="13.3856" height="10.6523" filterUnits="userSpaceOnUse" color-interpolation-filters="sRGB">
<feFlood flood-opacity="0" result="BackgroundImageFix"/>
<feColorMatrix in="SourceAlpha" type="matrix" values="0 0 0 0 0 0 0 0 0 0 0 0 0 0 0 0 0 0 127 0" result="hardAlpha"/>
<feOffset/>
<feGaussianBlur stdDeviation="2"/>
<feComposite in2="hardAlpha" operator="out"/>
<feColorMatrix type="matrix" values="0 0 0 0 1 0 0 0 0 1 0 0 0 0 1 0 0 0 0.1 0"/>
<feBlend mode="normal" in2="BackgroundImageFix" result="effect1_dropShadow_1615_14684"/>
<feBlend mode="normal" in="SourceGraphic" in2="effect1_dropShadow_1615_14684" result="shape"/>
</filter>
<filter id="filter10_d_1615_14684" x="150.073" y="25.3125" width="11.5846" height="12.8616" filterUnits="userSpaceOnUse" color-interpolation-filters="sRGB">
<feFlood flood-opacity="0" result="BackgroundImageFix"/>
<feColorMatrix in="SourceAlpha" type="matrix" values="0 0 0 0 0 0 0 0 0 0 0 0 0 0 0 0 0 0 127 0" result="hardAlpha"/>
<feOffset/>
<feGaussianBlur stdDeviation="2"/>
<feComposite in2="hardAlpha" operator="out"/>
<feColorMatrix type="matrix" values="0 0 0 0 1 0 0 0 0 1 0 0 0 0 1 0 0 0 0.1 0"/>
<feBlend mode="normal" in2="BackgroundImageFix" result="effect1_dropShadow_1615_14684"/>
<feBlend mode="normal" in="SourceGraphic" in2="effect1_dropShadow_1615_14684" result="shape"/>
</filter>
<filter id="filter11_d_1615_14684" x="172.43" y="28.168" width="11.6152" height="12.8608" filterUnits="userSpaceOnUse" color-interpolation-filters="sRGB">
<feFlood flood-opacity="0" result="BackgroundImageFix"/>
<feColorMatrix in="SourceAlpha" type="matrix" values="0 0 0 0 0 0 0 0 0 0 0 0 0 0 0 0 0 0 127 0" result="hardAlpha"/>
<feOffset/>
<feGaussianBlur stdDeviation="2"/>
<feComposite in2="hardAlpha" operator="out"/>
<feColorMatrix type="matrix" values="0 0 0 0 1 0 0 0 0 1 0 0 0 0 1 0 0 0 0.1 0"/>
<feBlend mode="normal" in2="BackgroundImageFix" result="effect1_dropShadow_1615_14684"/>
<feBlend mode="normal" in="SourceGraphic" in2="effect1_dropShadow_1615_14684" result="shape"/>
</filter>
<filter id="filter12_d_1615_14684" x="223.163" y="28.5442" width="11.6184" height="12.8613" filterUnits="userSpaceOnUse" color-interpolation-filters="sRGB">
<feFlood flood-opacity="0" result="BackgroundImageFix"/>
<feColorMatrix in="SourceAlpha" type="matrix" values="0 0 0 0 0 0 0 0 0 0 0 0 0 0 0 0 0 0 127 0" result="hardAlpha"/>
<feOffset/>
<feGaussianBlur stdDeviation="2"/>
<feComposite in2="hardAlpha" operator="out"/>
<feColorMatrix type="matrix" values="0 0 0 0 1 0 0 0 0 1 0 0 0 0 1 0 0 0 0.1 0"/>
<feBlend mode="normal" in2="BackgroundImageFix" result="effect1_dropShadow_1615_14684"/>
<feBlend mode="normal" in="SourceGraphic" in2="effect1_dropShadow_1615_14684" result="shape"/>
</filter>
<filter id="filter13_d_1615_14684" x="147.134" y="31.0886" width="26.363" height="15.0024" filterUnits="userSpaceOnUse" color-interpolation-filters="sRGB">
<feFlood flood-opacity="0" result="BackgroundImageFix"/>
<feColorMatrix in="SourceAlpha" type="matrix" values="0 0 0 0 0 0 0 0 0 0 0 0 0 0 0 0 0 0 127 0" result="hardAlpha"/>
<feOffset/>
<feGaussianBlur stdDeviation="2"/>
<feComposite in2="hardAlpha" operator="out"/>
<feColorMatrix type="matrix" values="0 0 0 0 1 0 0 0 0 1 0 0 0 0 1 0 0 0 0.1 0"/>
<feBlend mode="normal" in2="BackgroundImageFix" result="effect1_dropShadow_1615_14684"/>
<feBlend mode="normal" in="SourceGraphic" in2="effect1_dropShadow_1615_14684" result="shape"/>
</filter>
<filter id="filter14_d_1615_14684" x="106.372" y="31.863" width="23.1455" height="14.9775" filterUnits="userSpaceOnUse" color-interpolation-filters="sRGB">
<feFlood flood-opacity="0" result="BackgroundImageFix"/>
<feColorMatrix in="SourceAlpha" type="matrix" values="0 0 0 0 0 0 0 0 0 0 0 0 0 0 0 0 0 0 127 0" result="hardAlpha"/>
<feOffset/>
<feGaussianBlur stdDeviation="2"/>
<feComposite in2="hardAlpha" operator="out"/>
<feColorMatrix type="matrix" values="0 0 0 0 1 0 0 0 0 1 0 0 0 0 1 0 0 0 0.1 0"/>
<feBlend mode="normal" in2="BackgroundImageFix" result="effect1_dropShadow_1615_14684"/>
<feBlend mode="normal" in="SourceGraphic" in2="effect1_dropShadow_1615_14684" result="shape"/>
</filter>
<filter id="filter15_d_1615_14684" x="84.8278" y="30.2014" width="26.6569" height="16.4924" filterUnits="userSpaceOnUse" color-interpolation-filters="sRGB">
<feFlood flood-opacity="0" result="BackgroundImageFix"/>
<feColorMatrix in="SourceAlpha" type="matrix" values="0 0 0 0 0 0 0 0 0 0 0 0 0 0 0 0 0 0 127 0" result="hardAlpha"/>
<feOffset/>
<feGaussianBlur stdDeviation="2"/>
<feComposite in2="hardAlpha" operator="out"/>
<feColorMatrix type="matrix" values="0 0 0 0 1 0 0 0 0 1 0 0 0 0 1 0 0 0 0.1 0"/>
<feBlend mode="normal" in2="BackgroundImageFix" result="effect1_dropShadow_1615_14684"/>
<feBlend mode="normal" in="SourceGraphic" in2="effect1_dropShadow_1615_14684" result="shape"/>
</filter>
<filter id="filter16_d_1615_14684" x="127.565" y="32.4612" width="15.7142" height="13.1685" filterUnits="userSpaceOnUse" color-interpolation-filters="sRGB">
<feFlood flood-opacity="0" result="BackgroundImageFix"/>
<feColorMatrix in="SourceAlpha" type="matrix" values="0 0 0 0 0 0 0 0 0 0 0 0 0 0 0 0 0 0 127 0" result="hardAlpha"/>
<feOffset/>
<feGaussianBlur stdDeviation="2"/>
<feComposite in2="hardAlpha" operator="out"/>
<feColorMatrix type="matrix" values="0 0 0 0 1 0 0 0 0 1 0 0 0 0 1 0 0 0 0.1 0"/>
<feBlend mode="normal" in2="BackgroundImageFix" result="effect1_dropShadow_1615_14684"/>
<feBlend mode="normal" in="SourceGraphic" in2="effect1_dropShadow_1615_14684" result="shape"/>
</filter>
<filter id="filter17_d_1615_14684" x="168.496" y="31.7666" width="25.7675" height="13.7222" filterUnits="userSpaceOnUse" color-interpolation-filters="sRGB">
<feFlood flood-opacity="0" result="BackgroundImageFix"/>
<feColorMatrix in="SourceAlpha" type="matrix" values="0 0 0 0 0 0 0 0 0 0 0 0 0 0 0 0 0 0 127 0" result="hardAlpha"/>
<feOffset/>
<feGaussianBlur stdDeviation="2"/>
<feComposite in2="hardAlpha" operator="out"/>
<feColorMatrix type="matrix" values="0 0 0 0 1 0 0 0 0 1 0 0 0 0 1 0 0 0 0.1 0"/>
<feBlend mode="normal" in2="BackgroundImageFix" result="effect1_dropShadow_1615_14684"/>
<feBlend mode="normal" in="SourceGraphic" in2="effect1_dropShadow_1615_14684" result="shape"/>
</filter>
<filter id="filter18_d_1615_14684" x="219.376" y="32.2532" width="25.6287" height="13.615" filterUnits="userSpaceOnUse" color-interpolation-filters="sRGB">
<feFlood flood-opacity="0" result="BackgroundImageFix"/>
<feColorMatrix in="SourceAlpha" type="matrix" values="0 0 0 0 0 0 0 0 0 0 0 0 0 0 0 0 0 0 127 0" result="hardAlpha"/>
<feOffset/>
<feGaussianBlur stdDeviation="2"/>
<feComposite in2="hardAlpha" operator="out"/>
<feColorMatrix type="matrix" values="0 0 0 0 1 0 0 0 0 1 0 0 0 0 1 0 0 0 0.1 0"/>
<feBlend mode="normal" in2="BackgroundImageFix" result="effect1_dropShadow_1615_14684"/>
<feBlend mode="normal" in="SourceGraphic" in2="effect1_dropShadow_1615_14684" result="shape"/>
</filter>
<filter id="filter19_d_1615_14684" x="208.875" y="30.9207" width="14.7045" height="14.0129" filterUnits="userSpaceOnUse" color-interpolation-filters="sRGB">
<feFlood flood-opacity="0" result="BackgroundImageFix"/>
<feColorMatrix in="SourceAlpha" type="matrix" values="0 0 0 0 0 0 0 0 0 0 0 0 0 0 0 0 0 0 127 0" result="hardAlpha"/>
<feOffset/>
<feGaussianBlur stdDeviation="2"/>
<feComposite in2="hardAlpha" operator="out"/>
<feColorMatrix type="matrix" values="0 0 0 0 1 0 0 0 0 1 0 0 0 0 1 0 0 0 0.1 0"/>
<feBlend mode="normal" in2="BackgroundImageFix" result="effect1_dropShadow_1615_14684"/>
<feBlend mode="normal" in="SourceGraphic" in2="effect1_dropShadow_1615_14684" result="shape"/>
</filter>
<filter id="filter20_d_1615_14684" x="190.012" y="31.5969" width="22.9205" height="14.3047" filterUnits="userSpaceOnUse" color-interpolation-filters="sRGB">
<feFlood flood-opacity="0" result="BackgroundImageFix"/>
<feColorMatrix in="SourceAlpha" type="matrix" values="0 0 0 0 0 0 0 0 0 0 0 0 0 0 0 0 0 0 127 0" result="hardAlpha"/>
<feOffset/>
<feGaussianBlur stdDeviation="2"/>
<feComposite in2="hardAlpha" operator="out"/>
<feColorMatrix type="matrix" values="0 0 0 0 1 0 0 0 0 1 0 0 0 0 1 0 0 0 0.1 0"/>
<feBlend mode="normal" in2="BackgroundImageFix" result="effect1_dropShadow_1615_14684"/>
<feBlend mode="normal" in="SourceGraphic" in2="effect1_dropShadow_1615_14684" result="shape"/>
</filter>
<filter id="filter21_d_1615_14684" x="85.8024" y="11.324" width="25.3226" height="14.2029" filterUnits="userSpaceOnUse" color-interpolation-filters="sRGB">
<feFlood flood-opacity="0" result="BackgroundImageFix"/>
<feColorMatrix in="SourceAlpha" type="matrix" values="0 0 0 0 0 0 0 0 0 0 0 0 0 0 0 0 0 0 127 0" result="hardAlpha"/>
<feOffset/>
<feGaussianBlur stdDeviation="2"/>
<feComposite in2="hardAlpha" operator="out"/>
<feColorMatrix type="matrix" values="0 0 0 0 1 0 0 0 0 1 0 0 0 0 1 0 0 0 0.1 0"/>
<feBlend mode="normal" in2="BackgroundImageFix" result="effect1_dropShadow_1615_14684"/>
<feBlend mode="normal" in="SourceGraphic" in2="effect1_dropShadow_1615_14684" result="shape"/>
</filter>
<filter id="filter22_d_1615_14684" x="106.047" y="18.488" width="22.151" height="13.9558" filterUnits="userSpaceOnUse" color-interpolation-filters="sRGB">
<feFlood flood-opacity="0" result="BackgroundImageFix"/>
<feColorMatrix in="SourceAlpha" type="matrix" values="0 0 0 0 0 0 0 0 0 0 0 0 0 0 0 0 0 0 127 0" result="hardAlpha"/>
<feOffset/>
<feGaussianBlur stdDeviation="2"/>
<feComposite in2="hardAlpha" operator="out"/>
<feColorMatrix type="matrix" values="0 0 0 0 1 0 0 0 0 1 0 0 0 0 1 0 0 0 0.1 0"/>
<feBlend mode="normal" in2="BackgroundImageFix" result="effect1_dropShadow_1615_14684"/>
<feBlend mode="normal" in="SourceGraphic" in2="effect1_dropShadow_1615_14684" result="shape"/>
</filter>
<filter id="filter23_d_1615_14684" x="131.069" y="18.9626" width="19.8911" height="12.4014" filterUnits="userSpaceOnUse" color-interpolation-filters="sRGB">
<feFlood flood-opacity="0" result="BackgroundImageFix"/>
<feColorMatrix in="SourceAlpha" type="matrix" values="0 0 0 0 0 0 0 0 0 0 0 0 0 0 0 0 0 0 127 0" result="hardAlpha"/>
<feOffset/>
<feGaussianBlur stdDeviation="2"/>
<feComposite in2="hardAlpha" operator="out"/>
<feColorMatrix type="matrix" values="0 0 0 0 1 0 0 0 0 1 0 0 0 0 1 0 0 0 0.1 0"/>
<feBlend mode="normal" in2="BackgroundImageFix" result="effect1_dropShadow_1615_14684"/>
<feBlend mode="normal" in="SourceGraphic" in2="effect1_dropShadow_1615_14684" result="shape"/>
</filter>
<filter id="filter24_d_1615_14684" x="125.027" y="20.7307" width="12.6527" height="10.0625" filterUnits="userSpaceOnUse" color-interpolation-filters="sRGB">
<feFlood flood-opacity="0" result="BackgroundImageFix"/>
<feColorMatrix in="SourceAlpha" type="matrix" values="0 0 0 0 0 0 0 0 0 0 0 0 0 0 0 0 0 0 127 0" result="hardAlpha"/>
<feOffset/>
<feGaussianBlur stdDeviation="2"/>
<feComposite in2="hardAlpha" operator="out"/>
<feColorMatrix type="matrix" values="0 0 0 0 1 0 0 0 0 1 0 0 0 0 1 0 0 0 0.1 0"/>
<feBlend mode="normal" in2="BackgroundImageFix" result="effect1_dropShadow_1615_14684"/>
<feBlend mode="normal" in="SourceGraphic" in2="effect1_dropShadow_1615_14684" result="shape"/>
</filter>
<filter id="filter25_d_1615_14684" x="218.251" y="16.021" width="22.8517" height="12.8765" filterUnits="userSpaceOnUse" color-interpolation-filters="sRGB">
<feFlood flood-opacity="0" result="BackgroundImageFix"/>
<feColorMatrix in="SourceAlpha" type="matrix" values="0 0 0 0 0 0 0 0 0 0 0 0 0 0 0 0 0 0 127 0" result="hardAlpha"/>
<feOffset/>
<feGaussianBlur stdDeviation="2"/>
<feComposite in2="hardAlpha" operator="out"/>
<feColorMatrix type="matrix" values="0 0 0 0 1 0 0 0 0 1 0 0 0 0 1 0 0 0 0.1 0"/>
<feBlend mode="normal" in2="BackgroundImageFix" result="effect1_dropShadow_1615_14684"/>
<feBlend mode="normal" in="SourceGraphic" in2="effect1_dropShadow_1615_14684" result="shape"/>
</filter>
<filter id="filter26_d_1615_14684" x="205.877" y="10.7324" width="16.309" height="12.8699" filterUnits="userSpaceOnUse" color-interpolation-filters="sRGB">
<feFlood flood-opacity="0" result="BackgroundImageFix"/>
<feColorMatrix in="SourceAlpha" type="matrix" values="0 0 0 0 0 0 0 0 0 0 0 0 0 0 0 0 0 0 127 0" result="hardAlpha"/>
<feOffset/>
<feGaussianBlur stdDeviation="2"/>
<feComposite in2="hardAlpha" operator="out"/>
<feColorMatrix type="matrix" values="0 0 0 0 1 0 0 0 0 1 0 0 0 0 1 0 0 0 0.1 0"/>
<feBlend mode="normal" in2="BackgroundImageFix" result="effect1_dropShadow_1615_14684"/>
<feBlend mode="normal" in="SourceGraphic" in2="effect1_dropShadow_1615_14684" result="shape"/>
</filter>
<filter id="filter27_d_1615_14684" x="189.91" y="14.6318" width="21.2498" height="11.4917" filterUnits="userSpaceOnUse" color-interpolation-filters="sRGB">
<feFlood flood-opacity="0" result="BackgroundImageFix"/>
<feColorMatrix in="SourceAlpha" type="matrix" values="0 0 0 0 0 0 0 0 0 0 0 0 0 0 0 0 0 0 127 0" result="hardAlpha"/>
<feOffset/>
<feGaussianBlur stdDeviation="2"/>
<feComposite in2="hardAlpha" operator="out"/>
<feColorMatrix type="matrix" values="0 0 0 0 1 0 0 0 0 1 0 0 0 0 1 0 0 0 0.1 0"/>
<feBlend mode="normal" in2="BackgroundImageFix" result="effect1_dropShadow_1615_14684"/>
<feBlend mode="normal" in="SourceGraphic" in2="effect1_dropShadow_1615_14684" result="shape"/>
</filter>
<filter id="filter28_d_1615_14684" x="167.516" y="15.6404" width="22.1021" height="11.8313" filterUnits="userSpaceOnUse" color-interpolation-filters="sRGB">
<feFlood flood-opacity="0" result="BackgroundImageFix"/>
<feColorMatrix in="SourceAlpha" type="matrix" values="0 0 0 0 0 0 0 0 0 0 0 0 0 0 0 0 0 0 127 0" result="hardAlpha"/>
<feOffset/>
<feGaussianBlur stdDeviation="2"/>
<feComposite in2="hardAlpha" operator="out"/>
<feColorMatrix type="matrix" values="0 0 0 0 1 0 0 0 0 1 0 0 0 0 1 0 0 0 0.1 0"/>
<feBlend mode="normal" in2="BackgroundImageFix" result="effect1_dropShadow_1615_14684"/>
<feBlend mode="normal" in="SourceGraphic" in2="effect1_dropShadow_1615_14684" result="shape"/>
</filter>
<filter id="filter29_d_1615_14684" x="146.499" y="21.3831" width="19.5056" height="12.5974" filterUnits="userSpaceOnUse" color-interpolation-filters="sRGB">
<feFlood flood-opacity="0" result="BackgroundImageFix"/>
<feColorMatrix in="SourceAlpha" type="matrix" values="0 0 0 0 0 0 0 0 0 0 0 0 0 0 0 0 0 0 127 0" result="hardAlpha"/>
<feOffset/>
<feGaussianBlur stdDeviation="2"/>
<feComposite in2="hardAlpha" operator="out"/>
<feColorMatrix type="matrix" values="0 0 0 0 1 0 0 0 0 1 0 0 0 0 1 0 0 0 0.1 0"/>
<feBlend mode="normal" in2="BackgroundImageFix" result="effect1_dropShadow_1615_14684"/>
<feBlend mode="normal" in="SourceGraphic" in2="effect1_dropShadow_1615_14684" result="shape"/>
</filter>
<filter id="filter30_d_1615_14684" x="156.932" y="10.1584" width="14.4933" height="11.4487" filterUnits="userSpaceOnUse" color-interpolation-filters="sRGB">
<feFlood flood-opacity="0" result="BackgroundImageFix"/>
<feColorMatrix in="SourceAlpha" type="matrix" values="0 0 0 0 0 0 0 0 0 0 0 0 0 0 0 0 0 0 127 0" result="hardAlpha"/>
<feOffset/>
<feGaussianBlur stdDeviation="2"/>
<feComposite in2="hardAlpha" operator="out"/>
<feColorMatrix type="matrix" values="0 0 0 0 1 0 0 0 0 1 0 0 0 0 1 0 0 0 0.1 0"/>
<feBlend mode="normal" in2="BackgroundImageFix" result="effect1_dropShadow_1615_14684"/>
<feBlend mode="normal" in="SourceGraphic" in2="effect1_dropShadow_1615_14684" result="shape"/>
</filter>
</defs>
</svg>
