<svg width="231" height="57" viewBox="0 0 231 57" fill="none" xmlns="http://www.w3.org/2000/svg">
<path d="M33.9977 56.9301C49.4963 56.9301 62.0604 44.1859 62.0604 28.465C62.0604 12.7442 49.4963 0 33.9977 0C18.4991 0 5.93506 12.7442 5.93506 28.465C5.93506 44.1859 18.4991 56.9301 33.9977 56.9301Z" fill="#4FEBFA"/>
<path d="M5.99048 30.2327C6.89065 45.1296 19.0845 56.9302 34 56.9302C48.9155 56.9302 61.1046 45.1296 62.0049 30.2333L5.99048 30.2327Z" fill="#18D2F8"/>
<path d="M34.0572 56.9999C42.8641 56.9999 48.5988 53.3576 52.0161 50.3357C46.8079 53.2894 39.389 56.7301 28.0827 54.2818C25.0913 53.6345 12.9599 48.6561 17.2323 46.5014C20.0317 45.09 16.7263 42.4869 11.0776 44.8686C16.1506 52.2057 24.5511 56.9999 34.0572 56.9999Z" fill="#11A5D3"/>
<path d="M30.2026 5.84619C29.9829 6.15715 29.706 6.44598 29.3509 6.57375C29.0342 6.68801 28.6884 6.66332 28.3537 6.64034C25.9501 6.46834 23.4644 6.41183 21.2111 7.27502C19.7719 7.83046 18.4439 8.75066 16.9171 8.94662C15.9386 9.07279 14.9792 8.87843 14.1013 8.46269C18.304 4.1679 23.7499 1.34807 29.6442 0.414795C29.823 0.600378 29.9908 0.796426 30.1469 1.00193C31.1725 2.38076 31.1968 4.44034 30.2026 5.84619Z" fill="#26C254"/>
<path d="M56.9405 12.141C56.9443 12.7835 56.9224 13.4285 56.8912 14.068C56.8371 15.1675 56.748 16.3013 56.2483 17.278C55.7485 18.2547 54.7309 19.0416 53.6507 18.9282C52.7255 18.8299 51.9878 18.1284 51.3348 17.4565C49.162 15.2221 47.0204 12.8018 46.0521 9.82117C45.8394 9.16425 45.6822 8.4803 45.3483 7.87892C44.9775 7.21807 44.4096 6.69764 43.9012 6.13987C43.015 5.17593 41.1129 2.80123 40.9872 0.959229C47.4446 2.64814 53.0993 6.61156 56.9405 12.141Z" fill="#26C254"/>
<path d="M51.234 50.9982C41.4475 58.7234 27.8221 59.0185 17.719 51.7241C18.365 51.0556 19.1115 50.4954 19.9308 50.0644C22.1676 48.9442 24.9522 49.0324 27.1132 50.2979C28.1778 50.9199 29.1577 51.826 30.3802 51.9481C31.7521 52.0853 32.9895 51.1987 34.1549 50.4511C35.3204 49.7035 36.7833 49.0428 38.0308 49.6379C38.6761 49.944 39.1383 50.539 39.7226 50.9509C41.0835 51.9116 42.9153 51.7767 44.5258 51.3777C46.1362 50.9786 47.7373 50.3518 49.3915 50.455C50.0372 50.4988 50.6658 50.6841 51.234 50.9982V50.9982Z" fill="#26C254"/>
<path d="M57.6992 43.7764C56.9847 44.9168 56.1906 46.0039 55.3229 47.0291C52.4775 46.206 49.4075 46.2414 46.4213 46.2357C42.0932 46.231 37.7698 46.1129 33.451 45.8811C29.455 45.6669 25.4465 45.3559 21.4591 45.6962C19.2691 45.8835 17.0884 46.2754 14.9969 46.9656C14.4979 47.1315 13.8237 47.3441 13.0854 47.5115C11.9593 46.2364 10.9488 44.861 10.0662 43.4019C11.9888 42.6252 14.6356 42.3228 15.5312 42.2046C17.7321 41.9127 19.9597 41.8928 22.1794 41.8714C32.6344 41.7778 43.123 41.6851 53.5028 42.9536C54.9146 43.1273 56.3515 43.336 57.6992 43.7764Z" fill="#11A5D3"/>
<path opacity="0.5" d="M34 0C25.1931 0 19.4575 3.64235 16.0411 6.66427C21.2494 3.71029 28.6673 0.270286 39.9749 2.71809C44.3274 3.66115 52.084 8.99045 56.9796 12.1313C51.9041 4.79426 43.5031 0 34 0Z" fill="#F5F5F5"/>
<path d="M51.234 50.9981C51.1659 50.96 51.0955 50.9235 51.0252 50.8895C45.8762 53.694 38.693 56.5851 28.0792 54.2843C25.8665 53.8082 22.4869 52.3159 19.2011 50.4919C18.6765 50.8431 18.1884 51.2474 17.7441 51.6984C22.369 55.06 27.896 56.9083 33.585 56.9958H34.0227C40.259 57.0013 46.3178 54.89 51.234 50.9981Z" fill="#1AA24E"/>
<path d="M49.0799 14.8701H18.9155V44.2318H49.0799V14.8701Z" fill="#044076"/>
<path d="M18.9155 14.87L2.51229 11.4426L2.50757 47.8541L18.9155 44.2315V14.87Z" fill="#FF5484"/>
<path d="M49.0798 14.87L65.4924 11.4426L65.4877 47.8541L49.0798 44.2315V14.87Z" fill="#FF5484"/>
<path d="M2.5072 47.7471C2.86075 47.7035 3.21115 47.6622 3.56701 47.6202L18.9152 44.2317V41.6819C8.43751 37.8785 2.78336 31.6567 2.51035 31.2769L2.5072 47.7471Z" fill="#DB3D78"/>
<path d="M2.50988 11.4426H0.00231934V47.8541H2.50988V11.4426Z" fill="#DB3D78"/>
<path d="M65.4899 47.747C65.1363 47.7034 64.7859 47.6621 64.4301 47.6201L49.0822 44.2316V40.9494C61.1351 40.6932 65.214 30.9243 65.487 30.5469L65.4899 47.747Z" fill="#DB3D78"/>
<path d="M67.9977 11.4426H65.4901V47.8541H67.9977V11.4426Z" fill="#DB3D78"/>
<path d="M2.51071 31.2793L0.00545043 20.5181L0 47.8542H2.50756L2.51071 31.2793Z" fill="#B72A6E"/>
<path d="M68 21.4438L65.4869 30.5468L65.4877 47.8541H67.9952L68 21.4438Z" fill="#B72A6E"/>
<path d="M25.7695 42.8852L23.5849 44.2339C23.5849 44.2339 12.9281 40.5674 11.0635 40.3585C8.40416 40.0618 2.9799 36.2331 3.89194 32.7835C4.80398 29.3339 21.2862 35.5601 21.2862 35.5601L26.7456 37.2094L25.7695 42.8852Z" fill="#A2A2A2"/>
<path d="M23.9259 36.7145C22.6612 36.0845 21.1886 36.0655 19.7806 36.1591C18.7934 36.2265 17.7508 36.368 16.9765 36.9938C16.4361 37.4309 16.0834 38.0633 15.819 38.7113C15.4314 39.6635 15.065 40.4805 15.1286 41.4501C15.7342 41.6373 16.3682 41.8372 17.0059 42.0419C17.6621 41.9818 18.3056 41.8213 18.9144 41.5659C20.0446 41.082 21.5738 40.0339 23.5839 39.807C24.9025 39.6578 25.7684 40.3053 25.7684 40.3053C25.7684 40.3053 26.0625 39.9824 26.3299 39.6183L26.5443 38.371C25.9804 37.6594 24.633 37.0684 23.9259 36.7145Z" fill="#7B7B7B"/>
<path d="M11.3795 36.9929C10.577 35.4062 10.078 33.6854 9.35136 32.0638C8.85391 31.9749 8.37367 31.9052 7.91765 31.8472C7.83953 32.2843 7.86291 32.8294 7.98572 33.4014C8.7632 37.0088 10.182 39.2913 11.0228 40.3537L11.0635 40.3584C11.5038 40.4075 12.4369 40.6504 13.6039 40.993C12.979 39.6071 12.0693 38.3543 11.3795 36.9929Z" fill="#7B7B7B"/>
<path d="M44.4541 43.2502L47.1672 44.2316C47.1672 44.2316 56.8995 40.2942 58.5041 39.9793C61.1299 39.4644 66.2294 35.1968 65.0437 31.8369C63.8579 28.477 47.9293 36.0418 47.9293 36.0418L42.6208 38.137L44.4541 43.2502Z" fill="#A2A2A2"/>
<path d="M47.9293 36.037L42.9337 38.0085C42.9021 38.3166 42.9384 38.628 43.04 38.9201C43.1918 39.3446 43.485 39.6984 43.7729 40.0419C44.2751 40.6439 44.0858 40.6591 44.5871 41.2605C44.6864 41.2153 45.2082 40.7677 45.284 40.6892C47.1666 38.7487 49.3052 39.3168 51.4888 39.2358C53.8642 39.1486 56.1661 38.0564 57.9415 36.4535C59.0734 35.4308 60.2453 33.9148 60.3553 31.3655C55.2697 32.5549 47.9293 36.037 47.9293 36.037Z" fill="#7B7B7B"/>
<path d="M47.1667 44.2317H23.5845C25.2809 39.2819 29.9261 35.7197 35.376 35.7197C40.826 35.7197 45.471 39.2819 47.1667 44.2317Z" fill="#A2A2A2"/>
<path d="M35.3765 35.7197C33.5408 35.7193 31.7278 36.1303 30.067 36.9235C28.4061 37.7166 26.9387 38.8723 25.7695 40.3077C31.1109 43.6144 34.6155 43.328 34.6336 43.5811C34.6609 43.9668 34.0977 43.92 34.3207 44.2317H37.6321C38.2892 43.858 42.8241 42.9662 45.2816 40.6918C44.1188 39.1461 42.6201 37.8934 40.9021 37.0311C39.1842 36.1688 37.2933 35.72 35.3765 35.7197Z" fill="#7B7B7B"/>
<path d="M19.0327 18.3972C19.0327 18.3972 20.6338 11.9171 28.3404 9.22914C36.0469 6.54115 45.0642 9.5584 47.313 13.4689C47.313 13.4689 57.5122 6.13744 59.9216 20.5561C62.3311 34.9747 54.3831 40.9216 47.4765 37.0929C47.4765 37.0929 37.6166 45.0646 22.9011 37.9887C22.9011 37.9887 12.9427 49.1489 8.36481 32.6935C3.46488 15.077 14.0677 14.8232 19.0327 18.3972Z" fill="#C4C4C4"/>
<path d="M7.66693 29.8091C7.85103 30.7145 8.08359 31.6761 8.36459 32.6936C12.7884 48.5935 22.3322 38.6741 22.9649 37.9888C22.5645 37.7007 22.3901 37.5762 22.2211 37.3437C21.4914 36.3377 20.1946 35.9157 19.0393 35.5094C17.4383 34.9541 14.7125 32.9104 13.1247 32.3151C10.6919 31.4006 9.63526 31.5568 7.66693 29.8091Z" fill="#A2A2A2"/>
<path d="M21.7844 36.9309C21.7844 36.9309 17.5397 33.2459 18.8464 24.3848C18.8464 24.3848 10.4539 16.0894 11.1766 28.9943C11.8994 41.8992 21.6051 36.8882 21.6339 36.9199" fill="#FFBBBA"/>
<path d="M51.14 31.9003C50.4311 32.7098 49.8058 33.5908 49.2737 34.5294C48.8326 35.3228 47.4749 37.096 47.4749 37.096C53.7437 40.5709 60.8731 35.9917 60.3334 24.334C58.7154 25.344 57.118 26.3889 55.5411 27.4686C53.5912 28.8086 52.7137 30.1231 51.14 31.9003Z" fill="#A2A2A2"/>
<path d="M20.1927 34.8129C19.2417 34.9001 17.4138 34.4487 16.7036 34.1076C15.5832 33.5684 14.5765 32.814 13.7392 31.8862C12.4401 30.443 11.5791 28.6333 11.1519 26.7292C11.1197 27.5241 11.1278 28.3201 11.1762 29.1142C11.8989 42.0189 21.7554 36.9033 21.7844 36.9351C21.7844 36.9309 21.0992 36.256 20.1927 34.8129Z" fill="#FF98A1"/>
<path d="M49.2738 34.5296C54.0504 35.5665 57.7885 32.7049 56.7926 23.9581C55.5873 13.3873 49.0344 18.9004 49.0344 18.9004C49.0344 18.9004 51.068 31.9601 49.2738 34.5296" fill="#FFBBBA"/>
<path d="M55.8814 27.4195C54.6488 29.6108 52.4053 31.1745 49.9621 31.6148C49.873 32.9191 49.6642 33.9695 49.2738 34.5266C53.8494 35.5197 57.4723 32.9319 56.8923 25.0251C56.6127 25.8493 56.3053 26.6643 55.8814 27.4195Z" fill="#FF98A1"/>
<path d="M49.7627 33.2031C48.8929 34.3273 48.0287 34.8732 47.216 35.3721C46.1358 36.0338 44.9971 36.7208 43.8192 37.3429C43.7102 35.4333 42.8266 32.9793 39.2045 32.2051C39.2045 32.2051 40.4731 36.0806 40.9674 38.6674C39.5908 39.2021 38.1838 39.579 36.7727 39.6805C36.596 38.8014 35.6308 37.6288 32.1276 36.8815C32.1276 36.8815 33.1874 38.3168 33.6416 39.5075C24.0211 38.2445 21.4057 33.2201 20.7416 32.3572C20.1158 31.5488 19.6709 30.6181 19.2555 29.6836C19.2071 29.573 18.7314 29.0354 18.6837 28.925C18.9531 35.5848 22.9645 37.9887 22.9645 37.9887C31.9983 43.716 39.3442 41.9301 43.5803 39.7872C46.1179 38.5044 47.5399 37.0898 47.5399 37.0898C48.2766 36.1703 49.4293 34.7287 49.7627 33.2031Z" fill="#A2A2A2"/>
<path d="M39.2044 32.2051C39.2044 32.2051 43.7143 33.706 42.6707 38.7566C41.6272 43.8071 34.7201 47.144 34.7201 47.144C34.7201 47.144 31.9828 45.3519 31.9091 44.4553C31.9091 44.4553 38.3619 40.4639 31.9091 36.9184" fill="#C4C4C4"/>
<path d="M41.7433 36.6875C42.57 40.9448 39.3492 43.9555 39.3492 43.9555C39.3492 43.9555 41.9756 41.8135 42.6686 38.7566C43.809 33.7275 39.2029 32.2051 39.2029 32.2051C39.2029 32.2051 41.2983 34.3836 41.7433 36.6875Z" fill="#E1E1E1"/>
<path d="M46.9273 12.889C44.1672 9.27134 35.6644 6.67537 28.3435 9.2292C27.2334 9.61276 26.1668 10.1152 25.1617 10.7281C26.2653 10.6083 27.5934 10.1629 27.9556 10.0769C38.6787 7.54655 44.9703 11.8585 46.9273 12.889Z" fill="#E1E1E1"/>
<path d="M59.4762 18.4338C57.3472 10.2963 52.1718 11.1678 49.3082 12.3892C56.1701 11.054 58.8199 16.767 59.4762 18.4338Z" fill="#E1E1E1"/>
<path d="M19.0422 18.3601C19.0359 18.3839 19.0328 18.397 19.0328 18.397C16.6426 16.6786 12.9477 15.844 10.301 17.4061C11.2638 17.4061 14.3626 16.1284 18.9703 19.6743C18.9977 19.2178 19.0837 18.9797 19.0422 18.3601Z" fill="#E1E1E1"/>
<path d="M24.851 30.113C24.9735 29.3416 25.4082 28.6134 26.0477 28.096C26.683 27.571 27.5312 27.2961 28.3423 27.29C28.739 27.2869 29.1429 27.3216 29.5426 27.4155C29.9412 27.5163 30.3337 27.6803 30.6799 27.9167C31.0205 28.1494 31.3136 28.4466 31.5432 28.7919C31.7551 29.1209 31.9202 29.4786 32.0338 29.8544L31.8714 29.9551C31.6 29.6886 31.3581 29.4174 31.0902 29.1982C30.8253 28.9771 30.5502 28.7968 30.2582 28.6652C29.9662 28.5337 29.6605 28.4441 29.3423 28.387C29.0149 28.3378 28.6844 28.3139 28.3535 28.3156C28.1896 28.3216 28.0289 28.3279 27.868 28.3432C27.7113 28.3714 27.5474 28.3787 27.3956 28.4267C27.0796 28.4889 26.7831 28.6166 26.4893 28.7646C25.9037 29.0685 25.3727 29.545 24.9094 30.1351L24.851 30.113Z" fill="#484848"/>
<path d="M45.3948 28.2414C44.9579 27.9182 44.4985 27.6647 44.049 27.5491C43.5988 27.428 43.1606 27.4437 42.72 27.5663C42.6135 27.5988 42.4959 27.6384 42.3756 27.6806C42.2594 27.7253 42.1411 27.765 42.0301 27.8145C41.808 27.904 41.594 28.0127 41.3903 28.1393C41.1871 28.2699 41.0003 28.425 40.834 28.6014C40.6564 28.7837 40.4998 29.0095 40.3175 29.2403L40.2112 29.2034C40.2065 28.9071 40.2445 28.6066 40.3528 28.3108C40.4636 28.0083 40.635 27.7322 40.856 27.5C41.0764 27.264 41.3367 27.0778 41.6054 26.9293C41.7386 26.855 41.8762 26.789 42.0172 26.7315L42.2268 26.6492C42.2985 26.6228 42.3787 26.6013 42.4544 26.5777C42.7705 26.4895 43.0995 26.4588 43.4262 26.4869C43.7527 26.5168 44.0704 26.6103 44.362 26.7621C44.9326 27.067 45.3592 27.5469 45.5725 28.1208L45.3948 28.2414Z" fill="#484848"/>
<g filter="url(#filter0_d_1615_14606)">
<path d="M105.716 21.044C103.971 21.044 102.633 21.5767 101.704 22.642C100.775 23.7073 100.31 25.2147 100.31 27.164C100.31 29.136 100.82 30.6547 101.84 31.72C102.883 32.7853 104.277 33.318 106.022 33.318C106.951 33.318 107.733 33.1933 108.368 32.944C109.025 32.6947 109.649 32.4113 110.238 32.094C110.623 32.4113 110.918 32.7967 111.122 33.25C111.349 33.6807 111.462 34.1907 111.462 34.78C111.462 35.7093 110.941 36.5027 109.898 37.16C108.878 37.7947 107.314 38.112 105.206 38.112C103.687 38.112 102.259 37.8967 100.922 37.466C99.5847 37.0353 98.4173 36.378 97.42 35.494C96.4227 34.5873 95.6293 33.454 95.04 32.094C94.4733 30.7113 94.19 29.068 94.19 27.164C94.19 25.396 94.462 23.8433 95.006 22.506C95.5727 21.146 96.332 20.0013 97.284 19.072C98.2587 18.1427 99.392 17.44 100.684 16.964C101.976 16.488 103.359 16.25 104.832 16.25C106.917 16.25 108.527 16.59 109.66 17.27C110.816 17.95 111.394 18.8227 111.394 19.888C111.394 20.4773 111.247 20.9873 110.952 21.418C110.657 21.8487 110.317 22.1887 109.932 22.438C109.343 22.0527 108.708 21.724 108.028 21.452C107.371 21.18 106.6 21.044 105.716 21.044ZM122.583 38.044C121.246 38.044 119.999 37.8627 118.843 37.5C117.71 37.1147 116.713 36.548 115.851 35.8C115.013 35.052 114.344 34.1113 113.845 32.978C113.369 31.8447 113.131 30.5187 113.131 29C113.131 27.504 113.369 26.2233 113.845 25.158C114.344 24.07 114.99 23.186 115.783 22.506C116.577 21.8033 117.483 21.2933 118.503 20.976C119.523 20.636 120.566 20.466 121.631 20.466C122.833 20.466 123.921 20.6473 124.895 21.01C125.893 21.3727 126.743 21.8713 127.445 22.506C128.171 23.1407 128.726 23.9 129.111 24.784C129.519 25.668 129.723 26.6313 129.723 27.674C129.723 28.4447 129.508 29.034 129.077 29.442C128.647 29.85 128.046 30.1107 127.275 30.224L118.877 31.482C119.127 32.23 119.637 32.7967 120.407 33.182C121.178 33.5447 122.062 33.726 123.059 33.726C123.989 33.726 124.861 33.6127 125.677 33.386C126.516 33.1367 127.196 32.8533 127.717 32.536C128.08 32.7627 128.386 33.08 128.635 33.488C128.885 33.896 129.009 34.3267 129.009 34.78C129.009 35.8 128.533 36.5593 127.581 37.058C126.856 37.4433 126.04 37.704 125.133 37.84C124.227 37.976 123.377 38.044 122.583 38.044ZM121.631 24.682C121.087 24.682 120.611 24.7727 120.203 24.954C119.818 25.1353 119.501 25.3733 119.251 25.668C119.002 25.94 118.809 26.2573 118.673 26.62C118.56 26.96 118.492 27.3113 118.469 27.674L124.283 26.722C124.215 26.2687 123.966 25.8153 123.535 25.362C123.105 24.9087 122.47 24.682 121.631 24.682ZM138.37 37.466C138.144 37.534 137.781 37.602 137.282 37.67C136.806 37.738 136.308 37.772 135.786 37.772C135.288 37.772 134.834 37.738 134.426 37.67C134.041 37.602 133.712 37.466 133.44 37.262C133.168 37.058 132.953 36.786 132.794 36.446C132.658 36.0833 132.59 35.6187 132.59 35.052V24.852C132.59 24.3307 132.681 23.8887 132.862 23.526C133.066 23.1407 133.35 22.8007 133.712 22.506C134.075 22.2113 134.517 21.9507 135.038 21.724C135.582 21.4747 136.16 21.2593 136.772 21.078C137.384 20.8967 138.019 20.7607 138.676 20.67C139.334 20.5567 139.991 20.5 140.648 20.5C141.736 20.5 142.598 20.7153 143.232 21.146C143.867 21.554 144.184 22.234 144.184 23.186C144.184 23.5033 144.139 23.8207 144.048 24.138C143.958 24.4327 143.844 24.7047 143.708 24.954C143.232 24.954 142.745 24.9767 142.246 25.022C141.748 25.0673 141.26 25.1353 140.784 25.226C140.308 25.3167 139.855 25.4187 139.424 25.532C139.016 25.6227 138.665 25.736 138.37 25.872V37.466ZM145.309 29.238C145.309 27.742 145.536 26.45 145.989 25.362C146.442 24.2513 147.066 23.3333 147.859 22.608C148.675 21.8827 149.616 21.35 150.681 21.01C151.769 20.6473 152.936 20.466 154.183 20.466C154.636 20.466 155.078 20.5113 155.509 20.602C155.94 20.67 156.291 20.7607 156.563 20.874V15.366C156.79 15.298 157.152 15.23 157.651 15.162C158.15 15.0713 158.66 15.026 159.181 15.026C159.68 15.026 160.122 15.06 160.507 15.128C160.915 15.196 161.255 15.332 161.527 15.536C161.799 15.74 162.003 16.0233 162.139 16.386C162.275 16.726 162.343 17.1793 162.343 17.746V33.862C162.343 34.9273 161.844 35.7773 160.847 36.412C160.19 36.8427 159.34 37.2167 158.297 37.534C157.254 37.874 156.053 38.044 154.693 38.044C153.22 38.044 151.894 37.84 150.715 37.432C149.559 37.024 148.573 36.4347 147.757 35.664C146.964 34.8933 146.352 33.9753 145.921 32.91C145.513 31.822 145.309 30.598 145.309 29.238ZM154.965 24.988C153.741 24.988 152.8 25.3393 152.143 26.042C151.486 26.7447 151.157 27.81 151.157 29.238C151.157 30.6433 151.463 31.7087 152.075 32.434C152.687 33.1367 153.571 33.488 154.727 33.488C155.135 33.488 155.498 33.4313 155.815 33.318C156.155 33.182 156.416 33.0347 156.597 32.876V25.396C156.144 25.124 155.6 24.988 154.965 24.988ZM173.102 33.828C173.487 33.828 173.907 33.794 174.36 33.726C174.836 33.6353 175.187 33.522 175.414 33.386V30.666L172.966 30.87C172.331 30.9153 171.81 31.0513 171.402 31.278C170.994 31.5047 170.79 31.8447 170.79 32.298C170.79 32.7513 170.96 33.1253 171.3 33.42C171.663 33.692 172.263 33.828 173.102 33.828ZM172.83 20.466C174.054 20.466 175.165 20.5907 176.162 20.84C177.182 21.0893 178.043 21.4747 178.746 21.996C179.471 22.4947 180.027 23.1407 180.412 23.934C180.797 24.7047 180.99 25.6227 180.99 26.688V34.304C180.99 34.8933 180.82 35.3807 180.48 35.766C180.163 36.1287 179.777 36.446 179.324 36.718C177.851 37.602 175.777 38.044 173.102 38.044C171.901 38.044 170.813 37.9307 169.838 37.704C168.886 37.4773 168.059 37.1373 167.356 36.684C166.676 36.2307 166.143 35.6527 165.758 34.95C165.395 34.2473 165.214 33.4313 165.214 32.502C165.214 30.938 165.679 29.7367 166.608 28.898C167.537 28.0593 168.977 27.538 170.926 27.334L175.38 26.858V26.62C175.38 25.9627 175.085 25.498 174.496 25.226C173.929 24.9313 173.102 24.784 172.014 24.784C171.153 24.784 170.314 24.8747 169.498 25.056C168.682 25.2373 167.945 25.464 167.288 25.736C166.993 25.532 166.744 25.226 166.54 24.818C166.336 24.3873 166.234 23.9453 166.234 23.492C166.234 22.9027 166.37 22.438 166.642 22.098C166.937 21.7353 167.379 21.4293 167.968 21.18C168.625 20.9307 169.396 20.7493 170.28 20.636C171.187 20.5227 172.037 20.466 172.83 20.466ZM198.549 32.57C198.549 34.2927 197.903 35.6413 196.611 36.616C195.319 37.5907 193.415 38.078 190.899 38.078C189.947 38.078 189.063 38.01 188.247 37.874C187.431 37.738 186.728 37.534 186.139 37.262C185.572 36.9673 185.119 36.6047 184.779 36.174C184.462 35.7433 184.303 35.2333 184.303 34.644C184.303 34.1 184.416 33.6467 184.643 33.284C184.87 32.8987 185.142 32.5813 185.459 32.332C186.116 32.6947 186.864 33.0233 187.703 33.318C188.564 33.59 189.55 33.726 190.661 33.726C191.364 33.726 191.896 33.624 192.259 33.42C192.644 33.216 192.837 32.944 192.837 32.604C192.837 32.2867 192.701 32.0373 192.429 31.856C192.157 31.6747 191.704 31.5273 191.069 31.414L190.049 31.21C188.077 30.8247 186.604 30.224 185.629 29.408C184.677 28.5693 184.201 27.3793 184.201 25.838C184.201 24.9993 184.382 24.24 184.745 23.56C185.108 22.88 185.618 22.3133 186.275 21.86C186.932 21.4067 187.714 21.0553 188.621 20.806C189.55 20.5567 190.57 20.432 191.681 20.432C192.52 20.432 193.302 20.5 194.027 20.636C194.775 20.7493 195.421 20.9307 195.965 21.18C196.509 21.4293 196.94 21.758 197.257 22.166C197.574 22.5513 197.733 23.016 197.733 23.56C197.733 24.0813 197.631 24.5347 197.427 24.92C197.246 25.2827 197.008 25.5887 196.713 25.838C196.532 25.7247 196.26 25.6113 195.897 25.498C195.534 25.362 195.138 25.2487 194.707 25.158C194.276 25.0447 193.834 24.954 193.381 24.886C192.95 24.818 192.554 24.784 192.191 24.784C191.443 24.784 190.865 24.8747 190.457 25.056C190.049 25.2147 189.845 25.4753 189.845 25.838C189.845 26.0873 189.958 26.2913 190.185 26.45C190.412 26.6087 190.842 26.756 191.477 26.892L192.531 27.13C194.707 27.6287 196.248 28.32 197.155 29.204C198.084 30.0653 198.549 31.1873 198.549 32.57ZM201.292 16.386C201.292 15.5247 201.576 14.7993 202.142 14.21C202.732 13.6207 203.502 13.326 204.454 13.326C205.406 13.326 206.166 13.6207 206.732 14.21C207.322 14.7993 207.616 15.5247 207.616 16.386C207.616 17.2473 207.322 17.9727 206.732 18.562C206.166 19.1513 205.406 19.446 204.454 19.446C203.502 19.446 202.732 19.1513 202.142 18.562C201.576 17.9727 201.292 17.2473 201.292 16.386ZM207.344 37.466C207.095 37.5113 206.721 37.568 206.222 37.636C205.746 37.7267 205.259 37.772 204.76 37.772C204.262 37.772 203.808 37.738 203.4 37.67C203.015 37.602 202.686 37.466 202.414 37.262C202.142 37.058 201.927 36.786 201.768 36.446C201.632 36.0833 201.564 35.6187 201.564 35.052V21.214C201.814 21.1687 202.176 21.112 202.652 21.044C203.151 20.9533 203.65 20.908 204.148 20.908C204.647 20.908 205.089 20.942 205.474 21.01C205.882 21.078 206.222 21.214 206.494 21.418C206.766 21.622 206.97 21.9053 207.106 22.268C207.265 22.608 207.344 23.0613 207.344 23.628V37.466ZM218.181 33.828C218.566 33.828 218.986 33.794 219.439 33.726C219.915 33.6353 220.266 33.522 220.493 33.386V30.666L218.045 30.87C217.41 30.9153 216.889 31.0513 216.481 31.278C216.073 31.5047 215.869 31.8447 215.869 32.298C215.869 32.7513 216.039 33.1253 216.379 33.42C216.742 33.692 217.342 33.828 218.181 33.828ZM217.909 20.466C219.133 20.466 220.244 20.5907 221.241 20.84C222.261 21.0893 223.122 21.4747 223.825 21.996C224.55 22.4947 225.106 23.1407 225.491 23.934C225.876 24.7047 226.069 25.6227 226.069 26.688V34.304C226.069 34.8933 225.899 35.3807 225.559 35.766C225.242 36.1287 224.856 36.446 224.403 36.718C222.93 37.602 220.856 38.044 218.181 38.044C216.98 38.044 215.892 37.9307 214.917 37.704C213.965 37.4773 213.138 37.1373 212.435 36.684C211.755 36.2307 211.222 35.6527 210.837 34.95C210.474 34.2473 210.293 33.4313 210.293 32.502C210.293 30.938 210.758 29.7367 211.687 28.898C212.616 28.0593 214.056 27.538 216.005 27.334L220.459 26.858V26.62C220.459 25.9627 220.164 25.498 219.575 25.226C219.008 24.9313 218.181 24.784 217.093 24.784C216.232 24.784 215.393 24.8747 214.577 25.056C213.761 25.2373 213.024 25.464 212.367 25.736C212.072 25.532 211.823 25.226 211.619 24.818C211.415 24.3873 211.313 23.9453 211.313 23.492C211.313 22.9027 211.449 22.438 211.721 22.098C212.016 21.7353 212.458 21.4293 213.047 21.18C213.704 20.9307 214.475 20.7493 215.359 20.636C216.266 20.5227 217.116 20.466 217.909 20.466Z" fill="white"/>
</g>
<defs>
<filter id="filter0_d_1615_14606" x="90.1899" y="11.3259" width="139.879" height="32.7861" filterUnits="userSpaceOnUse" color-interpolation-filters="sRGB">
<feFlood flood-opacity="0" result="BackgroundImageFix"/>
<feColorMatrix in="SourceAlpha" type="matrix" values="0 0 0 0 0 0 0 0 0 0 0 0 0 0 0 0 0 0 127 0" result="hardAlpha"/>
<feOffset dy="2"/>
<feGaussianBlur stdDeviation="2"/>
<feComposite in2="hardAlpha" operator="out"/>
<feColorMatrix type="matrix" values="0 0 0 0 0 0 0 0 0 0 0 0 0 0 0 0 0 0 0.08 0"/>
<feBlend mode="normal" in2="BackgroundImageFix" result="effect1_dropShadow_1615_14606"/>
<feBlend mode="normal" in="SourceGraphic" in2="effect1_dropShadow_1615_14606" result="shape"/>
</filter>
</defs>
</svg>
