<svg width="800" height="660" viewBox="0 0 800 660" fill="none" xmlns="http://www.w3.org/2000/svg">
<path d="M399.97 658.92C581.926 658.92 729.43 511.416 729.43 329.46C729.43 147.504 581.926 0 399.97 0C218.014 0 70.51 147.504 70.51 329.46C70.51 511.416 218.014 658.92 399.97 658.92Z" fill="#4FEBFA"/>
<path d="M71.1699 349.92C81.7299 522.34 224.89 658.92 399.97 658.92C575.05 658.92 718.21 522.35 728.78 349.92H71.1699Z" fill="#18D2F8"/>
<path d="M400.67 659.73C504.06 659.73 571.39 617.57 611.51 582.62C550.36 616.8 463.27 656.62 330.51 628.29C295.4 620.8 152.97 563.18 203.13 538.29C236 521.95 197.19 491.83 130.87 519.39C190.45 604.23 289.07 659.73 400.67 659.73Z" fill="#11A5D3"/>
<path d="M355.42 67.67C352.84 71.27 349.59 74.61 345.42 76.09C341.7 77.41 337.64 77.09 333.71 76.86C305.49 74.86 276.31 74.22 249.86 84.24C232.96 90.64 217.37 101.32 199.45 103.59C188.105 104.902 176.622 102.959 166.34 97.99C215.681 48.2449 279.635 15.578 348.86 4.76001C350.962 6.90804 352.936 9.17868 354.77 11.56C366.81 27.56 367.09 51.4 355.42 67.67Z" fill="#26C254"/>
<path d="M669.32 140.52C669.32 147.96 669.11 155.43 668.74 162.83C668.11 175.55 667.06 188.68 661.19 199.98C655.32 211.28 643.38 220.39 630.7 219.08C619.84 217.95 611.18 209.82 603.51 202.08C578 176.22 552.86 148.2 541.51 113.7C539.01 106.1 537.17 98.19 533.22 91.23C528.87 83.58 522.22 77.55 516.22 71.1C505.82 59.94 483.49 32.45 482.01 11.1C557.829 30.6396 624.224 76.5146 669.32 140.52Z" fill="#26C254"/>
<path d="M602.33 590.26C546.377 633.805 477.871 658.142 406.987 659.655C336.102 661.168 266.62 639.778 208.86 598.66C216.455 590.921 225.231 584.437 234.86 579.45C261.12 566.45 293.86 567.53 319.18 582.15C331.68 589.35 343.18 599.84 357.53 601.25C373.64 602.84 388.17 592.57 401.85 583.92C415.53 575.27 432.7 567.63 447.35 574.51C454.92 578.06 460.35 584.94 467.21 589.71C483.21 600.83 504.69 599.27 523.6 594.65C542.51 590.03 561.3 582.78 580.72 583.97C588.293 584.48 595.666 586.626 602.33 590.26Z" fill="#26C254"/>
<path d="M678.26 506.67C669.874 519.882 660.553 532.478 650.37 544.36C616.96 534.83 580.92 535.24 545.86 535.2C495.08 535.147 444.323 533.78 393.59 531.1C346.68 528.62 299.59 525.02 252.81 528.96C227.11 531.13 201.49 535.66 176.94 543.7C171.08 545.62 163.16 548.08 154.5 550.01C141.256 535.221 129.375 519.266 119 502.34C141.57 493.34 172.65 489.85 183.16 488.48C209 485.1 235.16 484.87 261.16 484.63C383.9 483.54 507.04 482.47 628.9 497.15C645.54 499.16 662.41 501.55 678.26 506.67Z" fill="#11A5D3"/>
<path opacity="0.5" d="M400 0C296.61 0 229.28 42.16 189.16 77.11C250.31 42.93 337.4 3.11 470.16 31.44C521.26 42.34 612.33 104.03 669.8 140.44C610.19 55.5 511.57 0 400 0Z" fill="#F5F5F5"/>
<path d="M577.04 172.11H222.91V511.94H577.04V172.11Z" fill="#044076"/>
<path d="M222.91 172.11L30.34 132.45L30.28 553.87L222.91 511.94V172.11Z" fill="#FFCC32"/>
<path d="M577.04 172.11L769.72 132.45L769.66 553.87L577.04 511.94V172.11Z" fill="#FFCC32"/>
<path d="M30.28 552.63C34.42 552.13 38.5666 551.64 42.72 551.16L222.91 511.94V482.43C99.91 438.43 33.5199 366.43 30.3199 362.03L30.28 552.63Z" fill="#F2B620"/>
<path d="M30.3102 132.45H0.870117V553.87H30.3102V132.45Z" fill="#D9A923"/>
<path d="M769.69 552.63C765.55 552.13 761.403 551.64 757.25 551.16L577.07 511.94V474C718.57 471 766.45 358 769.65 353.59L769.69 552.63Z" fill="#F2B620"/>
<path d="M799.13 132.45H769.69V553.87H799.13V132.45Z" fill="#D9A923"/>
<path d="M30.3198 362.03L0.899902 237.48L0.839844 553.87H30.2799L30.3198 362.03Z" fill="#C4941C"/>
<path d="M799.16 248.2L769.65 353.55L769.66 553.87H799.1L799.16 248.2Z" fill="#C4941C"/>
<path d="M563.63 511.94H286.78C306.69 454.65 361.23 413.42 425.21 413.42C489.19 413.42 543.72 454.65 563.63 511.94Z" fill="#A2A2A2"/>
<path d="M425.21 413.42C403.66 413.417 382.375 418.177 362.879 427.358C343.382 436.539 326.155 449.916 312.43 466.53C375.13 504.8 416.28 501.53 416.49 504.41C416.81 508.88 410.2 508.34 412.84 511.94H451.72C459.43 507.62 507.64 495.35 541.53 470.94C527.87 453.054 510.268 438.559 490.094 428.583C469.919 418.607 447.716 413.418 425.21 413.42Z" fill="#7B7B7B"/>
<path d="M233.33 212.94C233.33 212.94 252.13 137.94 342.65 106.82C433.17 75.7001 538.98 110.64 565.38 155.89C565.38 155.89 685.12 71.0401 713.38 237.89C741.64 404.74 648.32 473.6 567.23 429.29C567.23 429.29 451.48 521.55 278.73 439.66C278.73 439.66 161.81 568.83 108.07 378.37C50.57 174.51 175 171.57 233.33 212.94Z" fill="#C4C4C4"/>
<path d="M295.23 349.64C297.025 339.566 302.478 330.511 310.54 324.21C318.66 317.6 329.54 314.13 339.87 314.05C345.031 313.977 350.183 314.51 355.22 315.64C360.395 316.888 365.314 319.022 369.76 321.95C374.095 324.881 377.829 328.615 380.76 332.95C383.468 337.097 385.579 341.604 387.03 346.34L384.95 347.61C381.48 344.25 378.39 340.83 374.95 338.07C371.723 335.36 368.144 333.099 364.31 331.35C360.567 329.701 356.633 328.522 352.6 327.84C348.427 327.242 344.215 326.961 340 327C337.91 327.08 335.85 327.16 333.8 327.35C331.78 327.575 329.776 327.926 327.8 328.4C323.767 329.295 319.872 330.728 316.22 332.66C308.73 336.49 301.94 342.5 296.02 349.94L295.23 349.64Z" fill="#484848"/>
<path d="M557.89 326.05C552.31 321.97 546.43 318.78 540.69 317.32C535.108 315.852 529.232 315.928 523.69 317.54C522.33 317.95 520.83 318.45 519.29 318.98C517.75 319.51 516.29 320.04 514.87 320.67C512.03 321.795 509.293 323.163 506.69 324.76C504.096 326.409 501.709 328.363 499.58 330.58C497.31 332.88 495.31 335.73 492.98 338.64L491.62 338.18C491.515 334.35 492.129 330.534 493.43 326.93C494.844 323.116 497.034 319.636 499.86 316.71C502.658 313.821 505.895 311.391 509.45 309.51C511.151 308.573 512.907 307.742 514.71 307.02L517.39 306.02C518.3 305.69 519.33 305.42 520.29 305.12C524.333 304.009 528.542 303.623 532.72 303.98C538.756 304.521 544.521 306.735 549.368 310.372C554.216 314.009 557.953 318.926 560.16 324.57L557.89 326.05Z" fill="#484848"/>
<path d="M99.8999 345C102.06 355.48 104.77 366.59 108.1 378.38C160.03 562.38 270.93 448.03 278.36 440.1C275.77 437.1 273.07 434.4 270.77 432.2C260.32 422.2 246.98 415.63 233.42 410.97C214.62 404.51 182.62 380.89 163.98 373.97C135.37 363.43 123 365.25 99.8999 345Z" fill="#A2A2A2"/>
<path d="M265.64 427.43C265.64 427.43 215.81 384.8 231.14 282.23C231.14 282.23 132.61 186.23 141.14 335.59C149.67 484.95 263.57 426.95 263.91 427.32" fill="#FFBBBA"/>
<path d="M610.28 369.22C601.958 378.575 594.616 388.758 588.37 399.61C583.19 408.81 567.26 429.32 567.26 429.32C640.86 469.54 724.56 416.54 718.26 281.61C699.24 293.317 680.48 305.427 661.98 317.94C639.05 333.44 628.75 348.65 610.28 369.22Z" fill="#A2A2A2"/>
<path d="M247 402.93C235.83 403.93 214.37 398.72 206 394.77C192.845 388.525 181.027 379.787 171.2 369.04C155.95 352.34 145.84 331.43 140.82 309.31C140.447 318.512 140.544 327.728 141.11 336.92C149.6 486.28 265.31 427.07 265.65 427.43C265.64 427.43 257.59 419.63 247 402.93Z" fill="#FF98A1"/>
<path d="M588.37 399.61C644.44 411.61 688.37 378.46 676.63 277.25C662.49 154.95 585.55 218.75 585.55 218.75C585.55 218.75 609.47 369.91 588.37 399.61Z" fill="#FFBBBA"/>
<path d="M665.93 317.36C651.48 342.74 625.13 360.82 596.44 365.92C595.44 381.01 592.94 393.17 588.37 399.61C642.08 411.11 684.62 381.16 677.81 289.61C674.52 299.18 670.92 308.61 665.93 317.36Z" fill="#FF98A1"/>
<path d="M594.1 384.3C583.89 397.3 573.75 403.63 564.2 409.4C551.53 417.06 538.2 424.99 524.33 432.21C523.05 410.11 512.68 381.69 470.15 372.75C470.15 372.75 485.05 417.6 490.85 447.53C474.69 453.73 458.17 458.09 441.61 459.26C439.53 449.09 428.2 435.52 387.07 426.87C387.07 426.87 399.51 443.48 404.85 457.26C291.92 442.65 261.2 384.49 253.4 374.5C246.09 365.14 240.83 354.38 235.96 343.55C235.39 342.28 229.81 336.05 229.25 334.78C232.4 411.86 279.5 439.69 279.5 439.69C385.57 505.98 471.8 485.3 521.5 460.51C551.29 445.65 567.98 429.32 567.98 429.32C576.65 418.64 590.19 402 594.1 384.3Z" fill="#A2A2A2"/>
<path d="M470.15 372.75C470.15 372.75 523.09 390.12 510.84 448.58C498.59 507.04 417.49 545.69 417.49 545.69C417.49 545.69 385.37 524.95 384.49 514.57C384.49 514.57 460.24 468.37 384.49 427.36" fill="#C4C4C4"/>
<path d="M500 424.63C509.7 473.9 471.89 508.75 471.89 508.75C471.89 508.75 502.72 483.95 510.89 448.58C524.27 390.37 470.2 372.75 470.2 372.75C470.2 372.75 494.73 398 500 424.63Z" fill="#E1E1E1"/>
<path d="M560.82 149.19C528.42 107.31 428.63 77.2699 342.65 106.82C329.6 111.265 317.06 117.084 305.24 124.18C318.24 122.8 333.79 117.65 338.05 116.66C464 87.3499 537.84 137.25 560.82 149.19Z" fill="#E1E1E1"/>
<path d="M708.14 213.36C683.14 119.18 622.38 129.27 588.75 143.36C669.33 128 700.44 194.07 708.14 213.36Z" fill="#E1E1E1"/>
<path d="M233.45 212.51C233.37 212.78 233.33 212.94 233.33 212.94C205.33 193.03 161.9 183.39 130.85 201.47C142.16 201.47 178.53 186.67 232.63 227.72C232.92 222.4 233.94 219.63 233.45 212.51Z" fill="#E1E1E1"/>
<path d="M602.33 590.26C601.523 589.82 600.703 589.4 599.87 589C539.42 621.47 455.07 654.88 330.49 628.29C304.49 622.75 264.83 605.51 226.26 584.41C220.097 588.481 214.368 593.172 209.16 598.41C263.464 637.323 328.361 658.715 395.16 659.72H397.49H400.3C473.508 659.761 544.625 635.31 602.33 590.26Z" fill="#1AA24E"/>
</svg>
