<svg width="155" height="60" viewBox="0 0 155 60" fill="none" xmlns="http://www.w3.org/2000/svg">
<path d="M140 10.8C142.32 10.8 144.2 12.68 144.2 15V45C144.2 47.32 142.32 49.2 140 49.2H15C12.68 49.2 10.8 47.32 10.8 45V15C10.8 12.68 12.68 10.8 15 10.8H140ZM140 10H15C12.25 10 10 12.25 10 15V45C10 47.75 12.25 50 15 50H140C142.75 50 145 47.75 145 45V15C145 12.25 142.75 10 140 10Z" fill="#A6A6A6"/>
<path d="M57.42 20.24C57.42 21.08 57.17 21.75 56.67 22.24C56.11 22.83 55.37 23.13 54.47 23.13C53.6 23.13 52.87 22.83 52.26 22.23C51.65 21.63 51.35 20.88 51.35 20C51.35 19.11 51.65 18.37 52.26 17.77C52.87 17.17 53.6 16.87 54.47 16.87C54.9 16.87 55.31 16.95 55.7 17.12C56.09 17.29 56.4 17.51 56.64 17.79L56.11 18.32C55.71 17.85 55.17 17.61 54.47 17.61C53.84 17.61 53.29 17.83 52.83 18.28C52.37 18.72 52.14 19.3 52.14 20.01C52.14 20.72 52.37 21.3 52.83 21.74C53.29 22.18 53.84 22.41 54.47 22.41C55.14 22.41 55.7 22.19 56.15 21.74C56.44 21.45 56.61 21.04 56.65 20.52H54.47V19.8H57.38C57.4 19.95 57.42 20.1 57.42 20.24Z" fill="url(#paint0_linear_1615_14654)"/>
<path d="M62.03 17.74H59.3V19.64H61.76V20.36H59.3V22.26H62.03V23H58.53V17H62.03V17.74Z" fill="url(#paint1_linear_1615_14654)"/>
<path d="M65.28 23H64.51V17.74H62.83V17H66.95V17.74H65.27V23H65.28Z" fill="url(#paint2_linear_1615_14654)"/>
<path d="M69.94 23V17H70.71V23H69.94Z" fill="url(#paint3_linear_1615_14654)"/>
<path d="M74.13 23H73.36V17.74H71.68V17H75.8V17.74H74.12V23H74.13Z" fill="url(#paint4_linear_1615_14654)"/>
<path d="M83.61 22.22C83.02 22.83 82.29 23.13 81.41 23.13C80.53 23.13 79.8 22.83 79.21 22.22C78.62 21.61 78.33 20.87 78.33 20C78.33 19.13 78.62 18.38 79.21 17.78C79.8 17.17 80.53 16.87 81.41 16.87C82.28 16.87 83.01 17.17 83.61 17.78C84.2 18.39 84.5 19.13 84.5 20C84.49 20.88 84.2 21.62 83.61 22.22ZM79.78 21.72C80.22 22.17 80.77 22.39 81.41 22.39C82.05 22.39 82.6 22.17 83.04 21.72C83.48 21.27 83.71 20.7 83.71 20C83.71 19.3 83.49 18.73 83.04 18.28C82.6 17.83 82.05 17.61 81.41 17.61C80.77 17.61 80.22 17.83 79.78 18.28C79.34 18.73 79.11 19.3 79.11 20C79.11 20.7 79.34 21.27 79.78 21.72Z" fill="url(#paint5_linear_1615_14654)"/>
<path d="M85.58 23V17H86.52L89.44 21.67H89.47L89.44 20.51V17H90.21V23H89.41L86.36 18.11H86.33L86.36 19.27V23H85.58Z" fill="url(#paint6_linear_1615_14654)"/>
<path d="M78.14 31.75C75.79 31.75 73.87 33.54 73.87 36C73.87 38.45 75.79 40.25 78.14 40.25C80.49 40.25 82.41 38.45 82.41 36C82.41 33.54 80.49 31.75 78.14 31.75ZM78.14 38.58C76.85 38.58 75.74 37.52 75.74 36C75.74 34.47 76.85 33.42 78.14 33.42C79.43 33.42 80.54 34.47 80.54 36C80.54 37.52 79.42 38.58 78.14 38.58ZM68.82 31.75C66.47 31.75 64.55 33.54 64.55 36C64.55 38.45 66.47 40.25 68.82 40.25C71.17 40.25 73.09 38.45 73.09 36C73.09 33.54 71.17 31.75 68.82 31.75ZM68.82 38.58C67.53 38.58 66.42 37.52 66.42 36C66.42 34.47 67.53 33.42 68.82 33.42C70.11 33.42 71.22 34.47 71.22 36C71.22 37.52 70.11 38.58 68.82 38.58ZM57.74 33.06V34.86H62.06C61.93 35.87 61.59 36.62 61.08 37.13C60.45 37.76 59.47 38.45 57.75 38.45C55.09 38.45 53.01 36.31 53.01 33.65C53.01 30.99 55.09 28.85 57.75 28.85C59.18 28.85 60.23 29.41 61 30.14L62.27 28.87C61.19 27.84 59.76 27.05 57.74 27.05C54.1 27.05 51.04 30.01 51.04 33.66C51.04 37.3 54.1 40.27 57.74 40.27C59.71 40.27 61.19 39.63 62.35 38.42C63.54 37.23 63.91 35.55 63.91 34.2C63.91 33.78 63.88 33.39 63.81 33.07H57.74V33.06ZM103.05 34.46C102.7 33.51 101.62 31.75 99.41 31.75C97.22 31.75 95.4 33.47 95.4 36C95.4 38.38 97.2 40.25 99.62 40.25C101.57 40.25 102.7 39.06 103.16 38.37L101.71 37.4C101.23 38.11 100.57 38.58 99.62 38.58C98.67 38.58 97.99 38.14 97.56 37.29L103.25 34.94L103.05 34.46ZM97.25 35.88C97.2 34.24 98.52 33.4 99.47 33.4C100.21 33.4 100.84 33.77 101.05 34.3L97.25 35.88ZM92.63 40H94.5V27.5H92.63V40ZM89.57 32.7H89.5C89.08 32.2 88.28 31.75 87.26 31.75C85.13 31.75 83.18 33.62 83.18 36.02C83.18 38.4 85.13 40.26 87.26 40.26C88.27 40.26 89.08 39.81 89.5 39.29H89.56V39.9C89.56 41.53 88.69 42.4 87.29 42.4C86.15 42.4 85.44 41.58 85.15 40.89L83.52 41.57C83.99 42.7 85.23 44.08 87.29 44.08C89.48 44.08 91.33 42.79 91.33 39.65V32.01H89.56V32.7H89.57ZM87.42 38.58C86.13 38.58 85.05 37.5 85.05 36.02C85.05 34.52 86.13 33.43 87.42 33.43C88.69 33.43 89.69 34.53 89.69 36.02C89.7 37.5 88.7 38.58 87.42 38.58ZM111.81 27.5H107.34V40H109.21V35.26H111.82C113.89 35.26 115.92 33.76 115.92 31.38C115.92 29 113.87 27.5 111.81 27.5ZM111.85 33.52H109.2V29.23H111.85C113.25 29.23 114.04 30.39 114.04 31.37C114.04 32.35 113.25 33.52 111.85 33.52ZM123.39 31.73C122.04 31.73 120.64 32.33 120.06 33.64L121.72 34.33C122.07 33.64 122.73 33.41 123.42 33.41C124.38 33.41 125.37 33.99 125.38 35.02V35.15C125.04 34.96 124.32 34.67 123.43 34.67C121.64 34.67 119.83 35.65 119.83 37.48C119.83 39.15 121.29 40.23 122.93 40.23C124.18 40.23 124.88 39.67 125.31 39.01H125.37V39.98H127.17V35.19C127.18 32.97 125.52 31.73 123.39 31.73ZM123.16 38.58C122.55 38.58 121.7 38.27 121.7 37.52C121.7 36.56 122.76 36.19 123.68 36.19C124.5 36.19 124.89 36.37 125.38 36.61C125.24 37.76 124.24 38.58 123.16 38.58ZM133.74 32L131.6 37.42H131.54L129.32 32H127.31L130.64 39.58L128.74 43.79H130.69L135.82 32H133.74ZM116.94 40H118.81V27.5H116.94V40Z" fill="url(#paint7_linear_1615_14654)"/>
<path d="M20.44 17.54C20.15 17.85 19.98 18.33 19.98 18.94V41.06C19.98 41.68 20.15 42.16 20.44 42.46L20.51 42.53L32.9 30.15V29.85L20.51 17.47L20.44 17.54Z" fill="url(#paint8_linear_1615_14654)"/>
<path d="M37.4676 34.28L33.3376 30.15V29.85L37.4676 25.72L37.5576 25.77L42.4476 28.55C43.8476 29.34 43.8476 30.64 42.4476 31.44L37.5576 34.22L37.4676 34.28Z" fill="url(#paint9_linear_1615_14654)"/>
<path d="M37.12 35.22L32.9 31L20.44 43.46C20.9 43.95 21.66 44.01 22.52 43.52L37.12 35.22Z" fill="url(#paint10_linear_1615_14654)"/>
<path d="M37.12 24.78L22.51 16.48C21.65 15.99 20.89 16.05 20.43 16.54L32.9 29L37.12 24.78Z" fill="url(#paint11_linear_1615_14654)"/>
<path d="M140 10.8C142.32 10.8 144.2 12.68 144.2 15V45C144.2 47.32 142.32 49.2 140 49.2H15C12.68 49.2 10.8 47.32 10.8 45V15C10.8 12.68 12.68 10.8 15 10.8H140ZM140 10H15C12.25 10 10 12.25 10 15V45C10 47.75 12.25 50 15 50H140C142.75 50 145 47.75 145 45V15C145 12.25 142.75 10 140 10Z" fill="url(#paint12_linear_1615_14654)"/>
<defs>
<linearGradient id="paint0_linear_1615_14654" x1="10" y1="10" x2="145" y2="50" gradientUnits="userSpaceOnUse">
<stop stop-color="white"/>
<stop offset="1" stop-color="white"/>
</linearGradient>
<linearGradient id="paint1_linear_1615_14654" x1="10" y1="10" x2="145" y2="50" gradientUnits="userSpaceOnUse">
<stop stop-color="white"/>
<stop offset="1" stop-color="white"/>
</linearGradient>
<linearGradient id="paint2_linear_1615_14654" x1="10" y1="10" x2="145" y2="50" gradientUnits="userSpaceOnUse">
<stop stop-color="white"/>
<stop offset="1" stop-color="white"/>
</linearGradient>
<linearGradient id="paint3_linear_1615_14654" x1="10" y1="10" x2="145" y2="50" gradientUnits="userSpaceOnUse">
<stop stop-color="white"/>
<stop offset="1" stop-color="white"/>
</linearGradient>
<linearGradient id="paint4_linear_1615_14654" x1="10" y1="10" x2="145" y2="50" gradientUnits="userSpaceOnUse">
<stop stop-color="white"/>
<stop offset="1" stop-color="white"/>
</linearGradient>
<linearGradient id="paint5_linear_1615_14654" x1="10" y1="10" x2="145" y2="50" gradientUnits="userSpaceOnUse">
<stop stop-color="white"/>
<stop offset="1" stop-color="white"/>
</linearGradient>
<linearGradient id="paint6_linear_1615_14654" x1="10" y1="10" x2="145" y2="50" gradientUnits="userSpaceOnUse">
<stop stop-color="white"/>
<stop offset="1" stop-color="white"/>
</linearGradient>
<linearGradient id="paint7_linear_1615_14654" x1="10" y1="10" x2="145" y2="50" gradientUnits="userSpaceOnUse">
<stop stop-color="white"/>
<stop offset="1" stop-color="white"/>
</linearGradient>
<linearGradient id="paint8_linear_1615_14654" x1="10" y1="10" x2="145" y2="50" gradientUnits="userSpaceOnUse">
<stop stop-color="white"/>
<stop offset="1" stop-color="white"/>
</linearGradient>
<linearGradient id="paint9_linear_1615_14654" x1="10" y1="10" x2="145" y2="50" gradientUnits="userSpaceOnUse">
<stop stop-color="white"/>
<stop offset="1" stop-color="white"/>
</linearGradient>
<linearGradient id="paint10_linear_1615_14654" x1="10" y1="10" x2="145" y2="50" gradientUnits="userSpaceOnUse">
<stop stop-color="white"/>
<stop offset="1" stop-color="white"/>
</linearGradient>
<linearGradient id="paint11_linear_1615_14654" x1="10" y1="10" x2="145" y2="50" gradientUnits="userSpaceOnUse">
<stop stop-color="white"/>
<stop offset="1" stop-color="white"/>
</linearGradient>
<linearGradient id="paint12_linear_1615_14654" x1="10" y1="10" x2="145" y2="50" gradientUnits="userSpaceOnUse">
<stop stop-color="white"/>
<stop offset="1" stop-color="white"/>
</linearGradient>
</defs>
</svg>
